<svg width="376" height="269" viewBox="0 0 376 269" fill="none" xmlns="http://www.w3.org/2000/svg">
<path d="M158.118 201.997C157.626 201.998 157.154 202.193 156.806 202.541C156.458 202.889 156.262 203.361 156.262 203.853V267.144C156.262 267.636 156.458 268.108 156.806 268.456C157.154 268.804 157.626 268.999 158.118 269H373.931C374.423 268.999 374.895 268.804 375.242 268.456C375.59 268.108 375.786 267.636 375.787 267.144V203.853C375.786 203.361 375.59 202.889 375.242 202.541C374.895 202.193 374.423 201.998 373.931 201.997L158.118 201.997Z" fill="#F6F6F6"/>
<path d="M160.912 264.35H371.136V206.647H160.912V264.35Z" fill="#F6F6F6"/>
<path d="M344.601 252.379C344.197 252.379 343.797 252.458 343.423 252.612C343.05 252.766 342.711 252.993 342.425 253.278C342.139 253.564 341.912 253.903 341.758 254.276C341.603 254.649 341.523 255.049 341.523 255.453C341.523 255.857 341.603 256.257 341.758 256.63C341.912 257.003 342.139 257.342 342.425 257.628C342.711 257.913 343.05 258.14 343.423 258.294C343.797 258.448 344.197 258.527 344.601 258.527H356.896C357.712 258.527 358.493 258.203 359.07 257.626C359.646 257.05 359.97 256.268 359.97 255.453C359.97 254.638 359.646 253.856 359.07 253.279C358.493 252.703 357.712 252.379 356.896 252.379H344.601Z" fill="#EFD36F"/>
<path d="M359.97 246.417H218.034V247.226H359.97V246.417Z" fill="#EFD36F"/>
<path d="M218.258 241.901L217.809 241.228L232.559 231.395L242.673 236.249L257.22 226.955L286.16 239.3L309.205 227.979L331.583 237.051L359.702 212.146L360.238 212.752L331.744 237.99L309.237 228.864L286.183 240.189L257.296 227.866L242.729 237.174L232.624 232.324L218.258 241.901Z" fill="#22282D"/>
<path d="M220.662 252.802C220.317 252.802 219.974 252.869 219.655 253.001C219.336 253.133 219.046 253.327 218.801 253.571C218.557 253.815 218.363 254.105 218.231 254.424C218.098 254.743 218.03 255.085 218.03 255.43C218.03 255.776 218.098 256.118 218.231 256.437C218.363 256.756 218.557 257.046 218.801 257.29C219.046 257.534 219.336 257.728 219.655 257.86C219.974 257.992 220.317 258.059 220.662 258.059H248.16C248.856 258.058 249.524 257.781 250.016 257.288C250.508 256.795 250.785 256.127 250.785 255.43C250.785 254.734 250.508 254.066 250.016 253.573C249.524 253.08 248.856 252.803 248.16 252.802H220.662Z" fill="#F6F6F6"/>
<path d="M188.364 253.402C198.252 253.402 206.268 245.386 206.268 235.498C206.268 225.611 198.252 217.595 188.364 217.595C178.476 217.595 170.461 225.611 170.461 235.498C170.461 245.386 178.476 253.402 188.364 253.402Z" fill="#EFD36F"/>
<path d="M195.202 227.489H198L192.179 233.25C191.162 234.252 189.791 234.814 188.364 234.814C186.936 234.814 185.565 234.252 184.548 233.25L178.728 227.489H181.526L185.948 231.865C186.592 232.5 187.46 232.856 188.364 232.856C189.268 232.856 190.136 232.5 190.78 231.865L195.202 227.489ZM181.49 243.508H178.693L184.549 237.712C185.566 236.709 186.937 236.147 188.364 236.147C189.792 236.147 191.163 236.709 192.18 237.712L198.036 243.508H195.239L190.78 239.096C190.136 238.461 189.268 238.105 188.364 238.105C187.46 238.105 186.592 238.461 185.948 239.096L181.49 243.508Z" fill="#F6F6F6"/>
<path d="M98.0901 1.32074e-05C97.5981 0.00058819 97.1264 0.196286 96.7785 0.54417C96.4306 0.892054 96.2349 1.36372 96.2344 1.8557V65.1473C96.2349 65.6393 96.4306 66.111 96.7785 66.4589C97.1264 66.8067 97.5981 67.0024 98.0901 67.003H313.903C314.395 67.0024 314.867 66.8067 315.215 66.4588C315.563 66.111 315.759 65.6393 315.759 65.1473V1.85569C315.759 1.36371 315.563 0.892048 315.215 0.544163C314.867 0.196279 314.395 0.000578425 313.903 0L98.0901 1.32074e-05Z" fill="#E6E6E6"/>
<path d="M100.885 62.3528H311.109V4.65039H100.885V62.3528Z" fill="#F6F6F6"/>
<path d="M284.573 50.3822C283.758 50.3822 282.976 50.7061 282.4 51.2825C281.823 51.859 281.499 52.6408 281.499 53.4561C281.499 54.2713 281.823 55.0532 282.4 55.6296C282.976 56.2061 283.758 56.53 284.573 56.53H296.869C297.684 56.53 298.466 56.2061 299.042 55.6296C299.619 55.0532 299.943 54.2713 299.943 53.4561C299.943 52.6408 299.619 51.859 299.042 51.2825C298.466 50.7061 297.684 50.3822 296.869 50.3822H284.573Z" fill="#EFD36F"/>
<path d="M299.943 44.4197H158.006V45.2284H299.943V44.4197Z" fill="#E6E6E6"/>
<path d="M158.23 39.9035L157.782 39.2305L172.531 29.3978L182.645 34.2527L197.193 24.9583L197.389 25.0418L226.132 37.3029L249.177 25.9823L271.556 35.0546L299.675 10.149L300.211 10.7545L271.717 35.9924L249.209 26.8677L226.156 38.1923L197.269 25.8697L182.701 35.1767L172.596 30.3261L158.23 39.9035Z" fill="#3F3D56"/>
<path d="M160.634 50.8049C159.938 50.8058 159.27 51.0832 158.778 51.576C158.286 52.0688 158.009 52.7369 158.009 53.4334C158.009 54.1299 158.286 54.798 158.778 55.2908C159.27 55.7836 159.938 56.061 160.634 56.0618H188.132C188.829 56.0618 189.498 55.7849 189.991 55.292C190.484 54.7991 190.761 54.1305 190.761 53.4334C190.761 52.7363 190.484 52.0677 189.991 51.5748C189.498 51.0819 188.829 50.8049 188.132 50.8049H160.634Z" fill="#E6E6E6"/>
<path d="M128.337 51.4052C138.225 51.4052 146.241 43.3894 146.241 33.5015C146.241 23.6135 138.225 15.5978 128.337 15.5978C118.449 15.5978 110.433 23.6135 110.433 33.5015C110.433 43.3894 118.449 51.4052 128.337 51.4052Z" fill="#EFD36F"/>
<path d="M135.541 31.4119C135.875 29.1714 134.169 27.967 131.837 27.1635L132.594 24.1286L130.746 23.6682L130.009 26.6232C129.524 26.5021 129.025 26.388 128.529 26.2748L129.271 23.3004L127.425 22.84L126.668 25.8739C126.266 25.7823 125.871 25.6918 125.488 25.5966L125.49 25.5871L122.942 24.951L122.451 26.9241C122.451 26.9241 123.822 27.2383 123.793 27.2577C124.048 27.2883 124.282 27.4181 124.443 27.619C124.604 27.8199 124.679 28.076 124.654 28.3322L123.792 31.7896C123.857 31.8059 123.921 31.8265 123.984 31.8512L123.789 31.8028L122.58 36.6462C122.554 36.7308 122.511 36.8092 122.454 36.8771C122.397 36.945 122.327 37.0009 122.248 37.0417C122.17 37.0825 122.084 37.1073 121.995 37.1147C121.907 37.1222 121.818 37.1121 121.734 37.0851C121.752 37.1119 120.391 36.7499 120.391 36.7499L119.474 38.8651L121.878 39.4644C122.326 39.5765 122.764 39.6939 123.195 39.8043L122.43 42.8746L124.276 43.335L125.033 40.2979C125.537 40.4347 126.026 40.561 126.505 40.6799L125.751 43.7028L127.598 44.1632L128.363 41.0993C131.513 41.6954 133.882 41.455 134.878 38.6062C135.682 36.3121 134.839 34.9888 133.181 34.1253C134.388 33.8459 135.298 33.052 135.54 31.4119L135.541 31.4119ZM131.319 37.3308C130.748 39.6249 126.886 38.3853 125.633 38.0738L126.647 34.007C127.899 34.3195 131.915 34.9383 131.32 37.3308H131.319ZM131.89 31.3787C131.369 33.4655 128.154 32.4053 127.111 32.1454L128.031 28.4569C129.074 28.7168 132.433 29.2019 131.89 31.3787Z" fill="#F6F6F6"/>
<path d="M1.85569 100.999C1.36371 100.999 0.892054 101.195 0.54417 101.543C0.196286 101.891 0.000573838 102.362 0 102.854V166.146C0.000574992 166.638 0.196286 167.109 0.54417 167.457C0.892054 167.805 1.36371 168.001 1.85569 168.002H217.669C218.161 168.001 218.633 167.805 218.981 167.457C219.329 167.109 219.524 166.638 219.525 166.146V102.854C219.524 102.362 219.329 101.891 218.981 101.543C218.633 101.195 218.161 100.999 217.669 100.999L1.85569 100.999Z" fill="#EFD36F"/>
<path d="M4.65027 163.351H214.874V105.649H4.65027V163.351Z" fill="#EFD36F"/>
<path d="M188.339 151.381C187.524 151.381 186.742 151.704 186.165 152.281C185.589 152.857 185.265 153.639 185.265 154.455C185.265 155.27 185.589 156.052 186.165 156.628C186.742 157.205 187.524 157.528 188.339 157.528H200.634C201.45 157.528 202.231 157.205 202.808 156.628C203.384 156.052 203.708 155.27 203.708 154.455C203.708 153.639 203.384 152.857 202.808 152.281C202.231 151.704 201.45 151.381 200.634 151.381H188.339Z" fill="#EFD36F"/>
<path d="M203.708 145.418H61.7717V146.227H203.708V145.418Z" fill="#E6E6E6"/>
<path d="M61.9961 140.902L61.5472 140.229L76.2964 130.396L86.4109 135.251L100.958 125.957L101.155 126.04L129.897 138.301L152.943 126.981L175.321 136.053L203.44 111.148L203.977 111.753L175.482 136.991L152.975 127.866L129.921 139.191L101.034 126.868L86.4667 136.175L76.3621 131.325L61.9961 140.902Z" fill="#3F3D56"/>
<path d="M64.4002 151.803C63.7031 151.803 63.0345 152.08 62.5416 152.573C62.0487 153.066 61.7717 153.735 61.7717 154.432C61.7717 155.129 62.0487 155.798 62.5416 156.291C63.0345 156.783 63.7031 157.06 64.4002 157.06H91.8979C92.595 157.06 93.2635 156.783 93.7565 156.291C94.2494 155.798 94.5263 155.129 94.5263 154.432C94.5263 153.735 94.2494 153.066 93.7565 152.573C93.2635 152.08 92.595 151.803 91.8979 151.803H64.4002Z" fill="#E6E6E6"/>
<path d="M32.1024 152.404C41.9904 152.404 50.0061 144.388 50.0061 134.5C50.0061 124.612 41.9904 116.596 32.1024 116.596C22.2145 116.596 14.1987 124.612 14.1987 134.5C14.1987 144.388 22.2145 152.404 32.1024 152.404Z" fill="#F6F6F6"/>
<path d="M32.1005 146.3L39.3482 136.093L32.1005 140.372L24.8571 136.093L32.1005 146.3Z" fill="#EFD36F"/>
<path d="M32.1 139.001H32.1005L39.3439 134.719L32.1005 122.7H32.1L24.8571 134.719L32.1 139.001Z" fill="#EFD36F"/>
</svg>
