<svg width="376" height="394" viewBox="0 0 376 394" fill="none" xmlns="http://www.w3.org/2000/svg">
<path d="M190.316 351.359C155.315 351.359 121.397 339.223 94.3416 317.019C67.2858 294.814 48.7661 263.916 41.9378 229.588C35.1096 195.26 40.3955 159.626 56.8947 128.758C73.3939 97.8904 100.086 73.6984 132.422 60.3043C164.758 46.9102 200.739 45.1426 234.232 55.3028C267.726 65.463 296.66 86.9223 316.105 116.024C335.551 145.126 344.304 180.07 340.873 214.902C337.442 249.734 322.04 282.299 297.291 307.049C283.276 321.141 266.604 332.313 248.242 339.919C229.88 347.525 210.191 351.413 190.316 351.359ZM190.316 49.9511C107.538 49.9511 40.1936 117.296 40.1936 200.074C40.1936 282.851 107.538 350.196 190.316 350.196C273.093 350.196 340.438 282.851 340.438 200.074C340.438 117.296 273.093 49.9511 190.316 49.9511Z" fill="#A4A4A4"/>
<path d="M261.309 0.0810547H118.273V91.688H261.309V0.0810547Z" fill="white"/>
<path d="M247.646 25.7094H129.055V70.5226H247.646V25.7094Z" fill="#EFD168"/>
<path d="M179.125 33.4734H150.663V35.0998H179.125V33.4734Z" fill="#FAFAFA"/>
<path d="M194.673 39.4451H150.634V41.0715H194.673V39.4451Z" fill="#EFD168"/>
<path d="M185.195 45.0713H150.634V46.6977H185.195V45.0713Z" fill="#FAFAFA"/>
<path d="M170.964 50.6976H150.634V52.324H170.964V50.6976Z" fill="#FAFAFA"/>
<path d="M181.129 56.3237H150.634V57.9501H181.129V56.3237Z" fill="#FAFAFA"/>
<path d="M141.008 33.0056H137.755V36.2584H141.008V33.0056Z" fill="#FAFAFA"/>
<path d="M141.008 38.6318H137.755V41.8846H141.008V38.6318Z" fill="#EFD168"/>
<path d="M141.008 44.2583H137.755V47.5111H141.008V44.2583Z" fill="#FAFAFA"/>
<path d="M141.008 49.8844H137.755V53.1372H141.008V49.8844Z" fill="#FAFAFA"/>
<path d="M141.008 55.5106H137.755V58.7634H141.008V55.5106Z" fill="#FAFAFA"/>
<path d="M241.827 31.3243H212.707V60.4447H241.827V31.3243Z" fill="#FAFAFA"/>
<path d="M261.248 0H118.211V6.07671H261.248V0Z" fill="#EFD168"/>
<path d="M122.727 4.32643C123.401 4.32643 123.947 3.78031 123.947 3.10663C123.947 2.43296 123.401 1.88684 122.727 1.88684C122.053 1.88684 121.507 2.43296 121.507 3.10663C121.507 3.78031 122.053 4.32643 122.727 4.32643Z" fill="#EFD168"/>
<path d="M127.003 4.32643C127.676 4.32643 128.222 3.78031 128.222 3.10663C128.222 2.43296 127.676 1.88684 127.003 1.88684C126.329 1.88684 125.783 2.43296 125.783 3.10663C125.783 3.78031 126.329 4.32643 127.003 4.32643Z" fill="#EFD168"/>
<path d="M131.277 4.32643C131.951 4.32643 132.497 3.78031 132.497 3.10663C132.497 2.43296 131.951 1.88684 131.277 1.88684C130.604 1.88684 130.058 2.43296 130.058 3.10663C130.058 3.78031 130.604 4.32643 131.277 4.32643Z" fill="#EFD168"/>
<path d="M233.684 348.32C233.622 354.424 232.113 360.426 229.281 365.834C226.449 371.241 222.376 375.9 217.395 379.428C217.308 379.488 217.218 379.552 217.128 379.615C217.035 379.682 216.938 379.748 216.842 379.812C216.282 380.198 215.711 380.568 215.129 380.921C214.309 381.421 213.47 381.891 212.613 382.331C212.586 382.344 212.556 382.358 212.529 382.371C212.036 382.624 211.539 382.864 211.037 383.091C211.02 383.097 211.007 383.104 210.99 383.111C210.873 383.164 210.75 383.221 210.63 383.271C209.7 383.684 208.751 384.06 207.784 384.394C206.961 384.684 206.126 384.943 205.278 385.173C203.545 385.651 201.78 386.006 199.997 386.233C198.476 386.429 196.945 386.533 195.411 386.546C195.285 386.55 195.158 386.55 195.031 386.55C194.195 386.55 193.362 386.523 192.539 386.47C191.819 386.423 191.106 386.36 190.4 386.273C189.31 386.143 188.234 385.97 187.174 385.743C187.127 385.737 187.081 385.727 187.034 385.717C186.997 385.71 186.957 385.7 186.921 385.693C185.854 385.47 184.805 385.197 183.775 384.883C182.805 384.59 181.853 384.259 180.919 383.89C180.679 383.797 180.443 383.704 180.206 383.604C179.616 383.357 179.033 383.101 178.46 382.824C178.293 382.747 178.13 382.667 177.967 382.588C177.413 382.318 176.867 382.034 176.334 381.734C175.691 381.378 175.059 381.004 174.438 380.611C173.655 380.118 172.888 379.598 172.145 379.049C165.543 374.198 160.652 367.375 158.179 359.564C155.707 351.754 155.779 343.359 158.387 335.593C160.994 327.826 166.002 321.089 172.687 316.353C179.372 311.617 187.389 309.127 195.581 309.244C216.777 309.538 233.913 327.123 233.684 348.32Z" fill="#EFD168"/>
<path d="M186.921 385.693C185.854 385.47 184.805 385.197 183.775 384.884L187.31 362.96L190.973 362.847L197.614 362.637L201.02 362.53C201.02 362.53 203.436 373.147 205.278 385.173C203.545 385.651 201.78 386.006 199.997 386.233C198.476 386.429 196.945 386.533 195.411 386.546C195.285 386.55 195.158 386.55 195.031 386.55C194.195 386.55 193.362 386.523 192.539 386.47C191.819 386.423 191.106 386.36 190.4 386.273C189.31 386.143 188.233 385.97 187.174 385.743C187.127 385.737 187.081 385.727 187.034 385.717C186.997 385.71 186.957 385.7 186.921 385.693Z" fill="#22282D"/>
<path d="M187.174 385.743C187.128 385.737 187.081 385.727 187.034 385.717C186.998 385.71 186.958 385.7 186.921 385.693C185.855 385.47 184.805 385.197 183.775 384.884C182.806 384.59 181.854 384.259 180.919 383.891C180.68 383.797 180.443 383.704 180.206 383.604C179.617 383.357 179.033 383.101 178.46 382.824C178.294 382.748 178.13 382.668 177.967 382.588L177.674 366.173L186.671 362.317C186.671 362.317 186.701 362.557 190.973 362.847C191.786 365.499 187.174 385.743 187.174 385.743Z" fill="#22282D"/>
<path d="M214.066 365.396L212.37 374.31L212.53 382.371C212.037 382.624 211.539 382.864 211.037 383.091C211.02 383.097 211.007 383.104 210.99 383.111C210.874 383.164 210.75 383.221 210.63 383.271C209.701 383.684 208.751 384.061 207.785 384.394C206.961 384.684 206.126 384.944 205.279 385.174C203.546 385.652 201.78 386.006 199.997 386.233C198.476 386.429 196.945 386.533 195.412 386.546L195.235 372.261C194.862 367.655 196.098 364.61 197.614 362.637C205.695 361.557 205.515 361.461 205.515 361.461L214.083 365.316L214.066 365.396Z" fill="#22282D"/>
<path d="M181.529 367.459L180.919 383.89C180.679 383.797 180.442 383.704 180.206 383.604C179.616 383.357 179.033 383.101 178.46 382.824C178.293 382.747 178.13 382.667 177.966 382.587C177.413 382.317 176.867 382.034 176.334 381.734C175.69 381.378 175.058 381.003 174.438 380.611L177.673 366.172L181.529 367.459Z" fill="#22282D"/>
<path d="M217.395 379.428C217.308 379.488 217.218 379.552 217.128 379.615C217.035 379.682 216.938 379.748 216.842 379.812C216.282 380.198 215.711 380.568 215.129 380.921C214.309 381.421 213.471 381.891 212.613 382.331C212.586 382.344 212.556 382.358 212.53 382.371C212.022 382.632 211.509 382.879 210.991 383.111L210.99 383.111L210.38 366.622L214.066 365.396L214.236 365.339L217.395 379.428Z" fill="#22282D"/>
<path d="M204.229 350.137C205.71 345.086 202.826 339.794 197.788 338.317C192.749 336.839 187.464 339.737 185.983 344.788C184.502 349.84 187.386 355.132 192.425 356.609C197.463 358.086 202.748 355.189 204.229 350.137Z" fill="#9F616A"/>
<path d="M185.532 349.853V346.143C185.532 346.143 182.54 342.62 185.831 341.733C185.831 341.733 186.728 332.858 194.506 337C194.506 337 205.274 335.225 204.078 341.437C204.078 341.437 206.77 339.815 205.873 343.957L204.137 350.628C204.137 350.628 204.975 346.221 202.283 345.629L200.787 344.742C200.787 344.742 196.6 348.883 190.318 343.854C190.318 343.854 187.626 343.212 187.925 345.874C188.224 348.537 185.532 349.853 185.532 349.853Z" fill="#22282D"/>
<path d="M195.031 394C199.896 394 203.841 390.056 203.841 385.19C203.841 380.325 199.896 376.381 195.031 376.381C190.166 376.381 186.222 380.325 186.222 385.19C186.222 390.056 190.166 394 195.031 394Z" fill="#F4F4F4"/>
<path d="M194.193 388.909L191.556 385.519L193.09 384.326L194.338 385.931L198.556 381.479L199.966 382.815L194.193 388.909Z" fill="#EFD168"/>
<path d="M77.9041 202.353C77.9089 208.631 76.3939 214.817 73.4887 220.383C70.5834 225.949 66.3741 230.728 61.2204 234.314C59.7687 235.33 58.2486 236.244 56.6707 237.05C56.1471 237.319 55.6199 237.574 55.0828 237.816C54.5991 238.037 54.1124 238.246 53.6188 238.444C47.4969 240.922 40.8468 241.81 34.2892 241.022C33.1544 240.888 32.0341 240.703 30.9282 240.468C30.8813 240.458 30.8309 240.448 30.784 240.438C28.4682 239.948 26.2031 239.244 24.0183 238.333C17.5049 235.629 11.8477 231.208 7.6503 225.54C3.45294 219.873 0.872923 213.173 0.185504 206.154C-0.501915 199.135 0.729067 192.062 3.74711 185.688C6.76515 179.314 11.457 173.879 17.3221 169.963C23.1872 166.047 30.0054 163.796 37.0493 163.452C44.0932 163.107 51.0985 164.681 57.3177 168.007C63.537 171.332 68.7368 176.283 72.3624 182.332C75.988 188.381 77.9034 195.301 77.9041 202.353Z" fill="#EFD168"/>
<path d="M46.1287 195.084C46.0951 195.043 46.0582 195.006 46.0213 194.969C43.9403 192.868 41.1145 191.673 38.1574 191.643C35.2003 191.613 32.3507 192.75 30.2273 194.808C30.2038 194.828 30.1837 194.849 30.1635 194.869C30.1366 194.892 30.1132 194.916 30.0896 194.939C29.0439 195.982 28.2143 197.222 27.6485 198.586C27.0828 199.95 26.7918 201.413 26.7925 202.89V209.941C26.7931 210.341 26.9525 210.725 27.2357 211.009C27.5189 211.292 27.9029 211.451 28.3034 211.452H47.7773C48.1779 211.451 48.5618 211.292 48.845 211.009C49.1283 210.725 49.2876 210.341 49.2882 209.941V202.89C49.291 199.976 48.1576 197.175 46.1287 195.084Z" fill="#22282D"/>
<path d="M38.4907 211.382C43.0451 211.382 46.7372 207.69 46.7372 203.136C46.7372 198.581 43.0451 194.889 38.4907 194.889C33.9362 194.889 30.2441 198.581 30.2441 203.136C30.2441 207.69 33.9362 211.382 38.4907 211.382Z" fill="#FFB7B7"/>
<path d="M47.1582 202.434L46.1845 195.631C46.1545 195.422 46.048 195.232 45.8857 195.097C45.8309 195.053 45.7712 195.016 45.7076 194.986C40.7216 192.653 35.6652 192.653 30.6792 194.98C30.6126 195.01 30.5505 195.05 30.4944 195.097C30.4744 195.114 30.4543 195.134 30.4341 195.154C30.3008 195.292 30.218 195.471 30.199 195.661L29.5477 202.474C29.5367 202.59 29.5501 202.708 29.5871 202.819C29.6241 202.93 29.6839 203.032 29.7626 203.119C29.8894 203.258 30.0599 203.35 30.2461 203.38C30.2913 203.39 30.3375 203.395 30.3838 203.394H32.0357C32.1954 203.393 32.3517 203.348 32.4865 203.262C32.6214 203.177 32.7293 203.055 32.7978 202.91L33.513 201.379C33.5587 201.28 33.6356 201.198 33.732 201.147C33.8284 201.095 33.939 201.077 34.0469 201.094C34.1548 201.111 34.2542 201.163 34.33 201.242C34.4057 201.32 34.4536 201.422 34.4665 201.53L34.6075 202.659C34.6336 202.861 34.7325 203.047 34.8857 203.183C35.0389 203.318 35.2359 203.393 35.4403 203.394H46.3288C46.4713 203.395 46.6115 203.357 46.7351 203.286C46.8211 203.24 46.8983 203.178 46.9635 203.105C47.0422 203.014 47.1003 202.906 47.1339 202.791C47.1675 202.675 47.1758 202.553 47.1582 202.434Z" fill="#22282D"/>
<path d="M58.8834 226.491L61.2203 234.314C59.7686 235.33 58.2485 236.244 56.6707 237.05C56.147 237.319 55.6198 237.574 55.0827 237.816L52.6617 227.437L51.7217 223.412L57.7653 222.74L58.8834 226.491Z" fill="#FFB7B7"/>
<path d="M31.0729 225.191L30.8714 235.761L30.7842 240.438C28.4684 239.948 26.2034 239.243 24.0186 238.333L24.8211 228.32L25.0226 225.796L31.0729 225.191Z" fill="#FFB7B7"/>
<path d="M58.8833 226.49L52.8128 227.4L52.8867 228.398L53.6186 238.443C47.4967 240.922 40.8466 241.809 34.2891 241.022C33.1542 240.888 32.0339 240.703 30.928 240.468C31.425 238.38 31.8548 236.499 31.3243 236.13C31.1644 236.018 31.0129 235.895 30.871 235.761C28.3964 233.4 29.3097 228.072 29.3097 228.072L24.8206 228.32L23.2661 228.408C23.2661 228.408 23.9376 217.663 26.9594 217.663H30.6528L48.4479 215.985C48.4479 215.985 53.4843 214.306 54.8273 216.656C55.5325 217.888 56.7881 220.501 57.8257 222.71C58.7658 224.718 59.5279 226.393 59.5279 226.393L58.8833 226.49Z" fill="#22282D"/>
<path d="M38.9568 249.5C43.859 249.5 47.833 245.526 47.833 240.624C47.833 235.722 43.859 231.748 38.9568 231.748C34.0546 231.748 30.0806 235.722 30.0806 240.624C30.0806 245.526 34.0546 249.5 38.9568 249.5Z" fill="#F4F4F4"/>
<path d="M38.1105 244.371L35.4536 240.955L36.9988 239.753L38.2565 241.371L42.5062 236.885L43.9271 238.231L38.1105 244.371Z" fill="#EFD168"/>
<path d="M375.129 192.393C375.133 198.624 373.63 204.763 370.747 210.286C367.864 215.81 363.686 220.553 358.572 224.111C358.478 224.178 358.382 224.245 358.285 224.308C357.725 224.695 357.154 225.064 356.572 225.418C355.753 225.917 354.914 226.387 354.057 226.827C353.537 227.094 353.014 227.347 352.481 227.587C352.347 227.647 352.211 227.71 352.074 227.767C351.144 228.18 350.195 228.556 349.229 228.89C346.705 229.775 344.095 230.391 341.441 230.729C339.795 230.941 338.137 231.046 336.477 231.046C335.64 231.046 334.807 231.019 333.984 230.966C333.264 230.919 332.552 230.856 331.845 230.769C330.709 230.632 329.586 230.449 328.48 230.212C328.443 230.206 328.403 230.196 328.366 230.189C326.068 229.703 323.82 229.004 321.652 228.1C321.063 227.853 320.479 227.597 319.906 227.32C319.183 226.98 318.475 226.617 317.78 226.231C311.814 222.934 306.826 218.119 303.321 212.273C299.816 206.427 297.919 199.759 297.823 192.943C297.726 186.128 299.434 179.408 302.772 173.465C306.11 167.523 310.96 162.568 316.831 159.104C322.701 155.641 329.383 153.791 336.199 153.742C343.015 153.694 349.722 155.448 355.642 158.828C361.561 162.208 366.481 167.093 369.903 172.988C373.325 178.882 375.128 185.577 375.129 192.393Z" fill="#EFD168"/>
<path d="M335.415 201.919C340.182 201.919 344.046 198.055 344.046 193.288C344.046 188.521 340.182 184.657 335.415 184.657C330.648 184.657 326.784 188.521 326.784 193.288C326.784 198.055 330.648 201.919 335.415 201.919Z" fill="#FFB8B8"/>
<path d="M331.845 230.769C330.709 230.632 329.586 230.449 328.48 230.213L329.53 206.595L329.68 206.438L331.829 204.169H338.663L341.185 206.611L341.398 206.821L346.793 211.989L349.229 228.89C346.705 229.775 344.095 230.391 341.442 230.729C339.795 230.941 338.137 231.047 336.477 231.046C335.641 231.046 334.808 231.019 333.985 230.966C333.265 230.919 332.552 230.856 331.845 230.769Z" fill="#22282D"/>
<path d="M319.906 227.32C319.183 226.98 318.474 226.617 317.78 226.231C317.71 219.833 317.664 215.585 317.664 215.585L318.477 215.088C318.486 215.083 318.496 215.079 318.507 215.075L327.733 209.47L329.669 206.325L329.679 206.438L330.249 213.069C331.965 218.926 333.214 224.911 333.984 230.965C333.264 230.919 332.551 230.855 331.845 230.769C330.709 230.632 329.586 230.449 328.48 230.212C328.443 230.206 328.403 230.196 328.366 230.189C326.068 229.703 323.82 229.004 321.652 228.1C321.062 227.853 320.479 227.597 319.906 227.32Z" fill="#22282D"/>
<path d="M349.228 228.89C346.704 229.775 344.094 230.391 341.441 230.729C341.073 228.578 340.938 226.394 341.038 224.215C341.758 212.709 340.098 206.325 340.818 206.325L341.185 206.611L345.713 210.19L351.674 212.376H351.677L355.779 213.879L356.502 214.145V214.488C356.505 215.675 356.512 219.826 356.572 225.418C355.752 225.917 354.914 226.387 354.056 226.827C353.537 227.094 353.013 227.347 352.48 227.587C352.347 227.647 352.211 227.71 352.074 227.767C351.144 228.18 350.195 228.556 349.228 228.89Z" fill="#22282D"/>
<path d="M327.25 195.989C327.25 195.989 327.983 194.701 327.813 190.399C327.642 186.097 334.193 188.53 339.668 188.119C345.142 187.709 343.983 195.302 343.983 195.302C343.983 195.302 344.378 194.851 345.224 191.186C346.069 187.521 344.149 183.869 344.149 183.869C343.584 180.019 340.537 181.253 340.537 181.253C342.004 181.824 341.722 183.046 341.722 183.046C340.48 180.868 337.433 182.102 337.433 182.102C333.369 179.552 329.25 182.91 329.25 182.91C324.34 184.024 327.219 187.929 327.219 187.929C322.282 190.424 327.25 195.989 327.25 195.989Z" fill="#22282D"/>
<path d="M313.592 223.545C313.719 220.616 313.776 218.727 313.709 218.464C313.366 217.091 318.051 215.251 318.477 215.088C318.487 215.083 318.497 215.079 318.507 215.075L319.46 215.585L319.907 227.32C319.184 226.98 318.475 226.617 317.781 226.231C316.328 225.427 314.929 224.53 313.592 223.545Z" fill="#22282D"/>
<path d="M356.572 225.418C355.752 225.918 354.914 226.387 354.056 226.827C353.536 227.094 353.013 227.347 352.48 227.587C352.347 227.647 352.21 227.71 352.074 227.767L350.574 212.963L351.451 212.323C351.451 212.323 351.531 212.343 351.674 212.376H351.677C352.38 212.549 354.539 213.122 355.779 213.879C356.056 214.036 356.301 214.242 356.502 214.489C356.624 214.636 356.685 214.824 356.672 215.015C356.632 215.402 357.298 219.067 358.285 224.308C357.725 224.695 357.154 225.065 356.572 225.418Z" fill="#22282D"/>
<path d="M336.476 239.849C341.341 239.849 345.285 235.905 345.285 231.04C345.285 226.175 341.341 222.231 336.476 222.231C331.611 222.231 327.667 226.175 327.667 231.04C327.667 235.905 331.611 239.849 336.476 239.849Z" fill="#F4F4F4"/>
<path d="M335.638 234.759L333.001 231.369L334.534 230.176L335.783 231.781L340 227.33L341.41 228.666L335.638 234.759Z" fill="#EFD168"/>
<path d="M220.09 200.033C220.09 207.94 216.949 215.524 211.358 221.115C205.766 226.706 198.183 229.848 190.275 229.848C182.368 229.848 174.784 226.706 169.193 221.115C163.601 215.524 160.46 207.94 160.46 200.033C160.46 199.088 160.505 198.158 160.591 197.238C161.31 189.606 164.94 182.545 170.728 177.519C176.516 172.494 184.017 169.891 191.674 170.25C199.331 170.61 206.555 173.905 211.846 179.451C217.138 184.996 220.09 192.367 220.09 200.033Z" fill="#EFD168"/>
<path d="M200.579 202.092C199.834 201.104 198.853 200.322 197.728 199.817C196.341 199.228 194.908 198.754 193.444 198.399V189.963C195.694 190.305 197.805 191.275 199.537 192.763L201.236 189.112C200.259 188.235 199.137 187.536 197.921 187.048C196.574 186.498 195.159 186.132 193.715 185.961V181.685H189.78V186.003C188.261 186.175 186.795 186.671 185.48 187.458C184.293 188.166 183.293 189.154 182.566 190.336C181.873 191.49 181.514 192.817 181.529 194.165C181.462 195.627 181.882 197.07 182.723 198.263C183.497 199.295 184.519 200.112 185.694 200.637C187.103 201.243 188.561 201.73 190.051 202.092V210.176C187.395 209.974 184.865 208.956 182.801 207.26L181.102 210.916C182.256 211.878 183.569 212.628 184.98 213.133C186.526 213.691 188.142 214.03 189.78 214.142V218.381H193.715V214.063C195.901 213.822 197.95 212.875 199.558 211.363C200.266 210.679 200.825 209.854 201.2 208.941C201.575 208.027 201.758 207.046 201.737 206.058C201.802 204.642 201.394 203.246 200.579 202.092ZM190.051 197.506C189.093 197.213 188.201 196.731 187.429 196.088C187.123 195.814 186.882 195.475 186.721 195.095C186.561 194.715 186.486 194.305 186.502 193.892C186.473 192.957 186.814 192.048 187.45 191.366C188.155 190.65 189.065 190.174 190.051 190.005V197.506ZM195.915 208.684C195.25 209.371 194.384 209.826 193.444 209.981V203.027C194.342 203.27 195.183 203.693 195.915 204.272C196.192 204.51 196.413 204.809 196.56 205.146C196.707 205.482 196.777 205.848 196.764 206.215C196.8 207.117 196.497 207.999 195.915 208.684Z" fill="white"/>
</svg>
