<svg width="455" height="367" viewBox="0 0 455 367" fill="none" xmlns="http://www.w3.org/2000/svg">
<path d="M95.58 38.3567V37.1967H91.61V35.8967H90.34V37.1967H86.46V38.3567H90.35V39.4067H87.4V44.0767H88.6V40.5667H90.35V45.2867H91.59V40.5667H93.5V42.7667C93.5 42.8767 93.45 42.9267 93.29 42.9267C93.13 42.9267 92.54 42.9267 92.04 42.9067C92.21 43.2267 92.39 43.7367 92.44 44.0767C93.22 44.0767 93.79 44.0567 94.21 43.8767C94.62 43.6967 94.74 43.3567 94.74 42.7867V39.4067H91.59V38.3567H95.58ZM103.89 37.4867H101.31V37.0067H103.89V37.4867ZM103.89 38.7467H101.31V38.2667H103.89V38.7467ZM104.99 36.1867H100.26V39.5667H104.99V36.1867ZM105.67 40.9467V39.9467H99.38V40.9467H100.51C100.26 41.3367 99.95 41.6967 99.59 42.0067L99.38 41.1567L98.58 41.5067V39.1467H99.52V38.0267H98.58V36.0567H97.48V38.0267H96.48V39.1467H97.48V41.9667C97.01 42.1567 96.59 42.3267 96.25 42.4567L96.69 43.6567C97.3 43.3567 98.02 42.9967 98.74 42.6367C98.99 42.7967 99.37 43.1467 99.52 43.3367C99.93 43.0767 100.32 42.7467 100.69 42.3567H101.28C100.75 43.0967 99.98 43.7967 99.24 44.1667C99.52 44.3367 99.83 44.6367 100.02 44.8667C100.89 44.3167 101.82 43.3167 102.36 42.3567H102.95C102.52 43.2867 101.85 44.1767 101.09 44.6567C101.39 44.8167 101.73 45.0867 101.93 45.3167C102.74 44.6867 103.52 43.4767 103.93 42.3567H104.32C104.21 43.5667 104.09 44.0767 103.95 44.2267C103.87 44.3167 103.79 44.3367 103.65 44.3367C103.52 44.3367 103.26 44.3367 102.94 44.3067C103.09 44.5567 103.19 44.9567 103.21 45.2367C103.61 45.2567 103.99 45.2467 104.22 45.2167C104.47 45.1867 104.69 45.1067 104.88 44.8767C105.15 44.5867 105.31 43.7867 105.45 41.8367C105.46 41.6967 105.47 41.4267 105.47 41.4267H101.41C101.51 41.2667 101.61 41.1067 101.69 40.9467H105.67ZM109.36 36.2467H106.8V37.1467H109.36V36.2467ZM109.63 37.5867H106.33V38.5267H109.63V37.5867ZM109.39 38.9767H106.74V39.8867H109.39V38.9767ZM106.74 41.2367H109.39V40.3467H106.74V41.2367ZM111.39 39.6067V40.4767H113.99V39.6067H113.13V38.9267H113.92V38.0667H113.13V37.4167H112.2V38.0667H111.43V38.9267H112.2V39.6067H111.39ZM113.05 41.8467V42.7867H112.29V41.8467H113.05ZM113.91 43.6367V40.9867H111.45V43.9767H112.29V43.6367H113.91ZM108.42 43.8067H107.63V42.6567H108.42V43.8067ZM115.39 36.2967H110.02V40.0167C110.02 41.3967 109.97 43.2067 109.37 44.5067V41.7267H106.71V45.1367H107.63V44.7367H109.37C109.63 44.8667 110.03 45.1467 110.2 45.3267C110.98 43.8867 111.1 41.6067 111.1 40.0167V37.3067H114.29V43.9267C114.29 44.0767 114.25 44.1167 114.11 44.1167C113.96 44.1167 113.5 44.1267 113.09 44.1067C113.24 44.4167 113.39 44.9467 113.42 45.2667C114.13 45.2667 114.62 45.2467 114.96 45.0467C115.3 44.8567 115.39 44.5167 115.39 43.9367V36.2967ZM116.63 44.9967H125.37V43.9567H116.63V44.9967ZM118.32 40.1667C119.1 39.6767 119.81 39.0567 120.38 38.3667V39.8767H121.56V38.3667C122.15 39.0667 122.9 39.6867 123.72 40.1667H118.32ZM122.61 41.4367H119.25V40.9467H122.61V41.4367ZM122.61 42.7067H119.25V42.1867H122.61V42.7067ZM125.46 38.0867V37.0567H121.56V35.9367H120.38V37.0567H116.56V38.0867H119.23C118.46 38.8467 117.38 39.5167 116.27 39.8667C116.52 40.0967 116.86 40.5367 117.03 40.8167C117.39 40.6767 117.73 40.5167 118.07 40.3167V43.4867H123.86V40.2467C124.21 40.4467 124.57 40.5967 124.94 40.7367C125.1 40.4467 125.45 39.9967 125.71 39.7667C124.58 39.4467 123.47 38.8167 122.68 38.0867H125.46Z" fill="#22282D"/>
<path d="M220.58 37.95V36.79H216.61V35.49H215.34V36.79H211.46V37.95H215.35V39H212.4V43.67H213.6V40.16H215.35V44.88H216.59V40.16H218.5V42.36C218.5 42.47 218.45 42.52 218.29 42.52C218.13 42.52 217.54 42.52 217.04 42.5C217.21 42.82 217.39 43.33 217.44 43.67C218.22 43.67 218.79 43.65 219.21 43.47C219.62 43.29 219.74 42.95 219.74 42.38V39H216.59V37.95H220.58ZM228.89 37.08H226.31V36.6H228.89V37.08ZM228.89 38.34H226.31V37.86H228.89V38.34ZM229.99 35.78H225.26V39.16H229.99V35.78ZM230.67 40.54V39.54H224.38V40.54H225.51C225.26 40.93 224.95 41.29 224.59 41.6L224.38 40.75L223.58 41.1V38.74H224.52V37.62H223.58V35.65H222.48V37.62H221.48V38.74H222.48V41.56C222.01 41.75 221.59 41.92 221.25 42.05L221.69 43.25C222.3 42.95 223.02 42.59 223.74 42.23C223.99 42.39 224.37 42.74 224.52 42.93C224.93 42.67 225.32 42.34 225.69 41.95H226.28C225.75 42.69 224.98 43.39 224.24 43.76C224.52 43.93 224.83 44.23 225.02 44.46C225.89 43.91 226.82 42.91 227.36 41.95H227.95C227.52 42.88 226.85 43.77 226.09 44.25C226.39 44.41 226.73 44.68 226.93 44.91C227.74 44.28 228.52 43.07 228.93 41.95H229.32C229.21 43.16 229.09 43.67 228.95 43.82C228.87 43.91 228.79 43.93 228.65 43.93C228.52 43.93 228.26 43.93 227.94 43.9C228.09 44.15 228.19 44.55 228.21 44.83C228.61 44.85 228.99 44.84 229.22 44.81C229.47 44.78 229.69 44.7 229.88 44.47C230.15 44.18 230.31 43.38 230.45 41.43C230.46 41.29 230.47 41.02 230.47 41.02H226.41C226.51 40.86 226.61 40.7 226.69 40.54H230.67ZM236.7 36.11C237.25 37.16 238 38.26 238.79 39.18H233.39C234.18 38.28 234.88 37.18 235.37 36.03L234.09 35.66C233.49 37.18 232.39 38.56 231.14 39.4C231.43 39.61 231.94 40.09 232.16 40.36C232.43 40.15 232.7 39.91 232.96 39.64V40.34H234.65C234.45 41.8 233.93 43.11 231.67 43.84C231.96 44.11 232.31 44.6 232.46 44.94C235.05 43.97 235.7 42.26 235.95 40.34H237.92C237.83 42.43 237.72 43.32 237.52 43.53C237.41 43.65 237.3 43.67 237.12 43.67C236.87 43.67 236.35 43.66 235.8 43.62C236.01 43.96 236.17 44.46 236.19 44.82C236.78 44.84 237.36 44.84 237.7 44.79C238.09 44.74 238.36 44.64 238.61 44.32C238.96 43.9 239.08 42.72 239.19 39.7V39.63C239.41 39.86 239.62 40.08 239.83 40.27C240.06 39.93 240.52 39.45 240.84 39.2C239.75 38.36 238.5 36.91 237.87 35.64L236.7 36.11ZM245.3 41.01C245.12 40.75 244.32 39.72 243.98 39.33V38.7H245.19V37.58H243.98V35.53H242.84V37.58H241.48V38.7H242.71C242.42 39.89 241.84 41.25 241.21 42.04C241.4 42.34 241.66 42.81 241.77 43.15C242.17 42.61 242.54 41.83 242.84 40.98V44.86H243.98V40.76C244.24 41.19 244.49 41.64 244.63 41.95L245.3 41.01ZM250.69 38.89H246.93V37.51C248.11 37.3 249.39 36.99 250.39 36.56L249.38 35.63C248.71 35.96 247.72 36.26 246.71 36.49L245.77 36.23V39.12C245.77 40.6 245.66 42.61 244.54 44.08C244.83 44.21 245.29 44.6 245.46 44.85C246.53 43.49 246.84 41.54 246.91 40.01H248.23V44.86H249.41V40.01H250.69V38.89ZM253.96 41.67V42.89H252.8V41.67H253.96ZM253.86 39.02H252.8V38H253.86V39.02ZM252.8 40.02H254.91V37H253.65C253.82 36.6 254.01 36.11 254.18 35.64L252.86 35.53C252.82 35.96 252.7 36.52 252.58 37H251.75V44.51H252.8V43.89H255.01V40.67H252.8V40.02ZM260.59 37.07V35.99H255.18V37.07H257.34V37.96H255.52V43.33H256.6V39.03H257.34V44.86H258.45V39.03H259.24V42.26C259.24 42.36 259.21 42.39 259.12 42.39C259.04 42.39 258.79 42.39 258.54 42.38C258.68 42.65 258.82 43.09 258.84 43.4C259.35 43.4 259.7 43.39 259.98 43.21C260.27 43.03 260.34 42.74 260.34 42.28V37.96H258.45V37.07H260.59Z" fill="#22282D"/>
<g clip-path="url(#clip0)">
<path d="M122.651 20.772L119.91 18.0312C119.786 17.9074 119.618 17.8387 119.442 17.8387H118.994C119.753 16.8683 120.204 15.6477 120.204 14.3198C120.204 11.1611 117.644 8.60168 114.486 8.60168C111.327 8.60168 108.768 11.1611 108.768 14.3198C108.768 17.4786 111.327 20.038 114.486 20.038C115.814 20.038 117.034 19.5872 118.005 18.8284V19.2765C118.005 19.4524 118.073 19.6201 118.197 19.7439L120.938 22.4847C121.196 22.7431 121.614 22.7431 121.87 22.4847L122.648 21.7067C122.906 21.4483 122.906 21.0304 122.651 20.772ZM114.486 17.8387C112.542 17.8387 110.967 16.2662 110.967 14.3198C110.967 12.3762 112.539 10.801 114.486 10.801C116.429 10.801 118.005 12.3735 118.005 14.3198C118.005 16.2635 116.432 17.8387 114.486 17.8387Z" fill="#EFD168"/>
</g>
<path fill-rule="evenodd" clip-rule="evenodd" d="M107.141 6.17076C107.141 9.57754 104.377 12.3415 100.97 12.3415C97.5635 12.3415 94.7995 9.57754 94.7995 6.17076C94.7995 2.76399 97.5635 0 100.97 0C104.377 0 107.141 2.76399 107.141 6.17076ZM105.985 13.7128H104.094C103.143 14.1499 102.084 14.3985 100.97 14.3985C99.8561 14.3985 98.8019 14.1499 97.8463 13.7128H95.4851C92.4555 13.7128 90 16.1683 90 19.1979V19.8836C90 21.0192 90.9213 21.9405 92.0569 21.9405H109.884C110.147 21.9405 110.399 21.8909 110.63 21.8007C108.371 20.7836 106.009 17.8789 105.985 13.7128Z" fill="#22282D"/>
<path fill-rule="evenodd" clip-rule="evenodd" d="M237.141 6.17076C237.141 9.57754 234.377 12.3415 230.97 12.3415C227.563 12.3415 224.799 9.57754 224.799 6.17076C224.799 2.76399 227.563 0 230.97 0C234.377 0 237.141 2.76399 237.141 6.17076ZM235.985 13.7128H234.094C233.143 14.1499 232.084 14.3985 230.97 14.3985C229.856 14.3985 228.802 14.1499 227.846 13.7128H225.485C222.455 13.7128 220 16.1683 220 19.1979V19.8836C220 21.0192 220.921 21.9405 222.057 21.9405H239.884C240.147 21.9405 240.399 21.8909 240.63 21.8006C238.371 20.7836 236.009 17.8789 235.985 13.7128Z" fill="#22282D"/>
<path d="M248.002 8.88584C248.671 9.16708 249.278 9.57584 249.791 10.0893C250.304 10.6016 250.713 11.2093 250.994 11.8783C251.567 13.2573 251.577 14.8058 251.023 16.1924C250.567 16.2063 250.135 16.3973 249.818 16.7247C249.5 17.0522 249.323 17.4903 249.324 17.9462C249.324 18.9216 250.108 19.7056 251.083 19.7056C252.059 19.7056 252.843 18.9216 252.843 17.9462C252.843 17.4613 252.649 17.0229 252.333 16.7055C253.017 14.9946 253.007 13.0297 252.291 11.3322C251.939 10.4947 251.432 9.74163 250.786 9.09416C250.132 8.4404 249.355 7.92222 248.5 7.56932C247.646 7.21643 246.73 7.03578 245.805 7.03774L245.805 8.44528C246.569 8.44528 247.308 8.59378 248.002 8.88584ZM243.608 19.2644C242.938 18.9822 242.335 18.5768 241.82 18.0609C241.304 17.5451 240.898 16.9426 240.616 16.2719C240.043 14.8929 240.033 13.3444 240.587 11.9578C241.043 11.9442 241.475 11.7535 241.793 11.4261C242.11 11.0988 242.287 10.6606 242.286 10.2047C242.286 9.22928 241.502 8.44528 240.527 8.44528C239.551 8.44528 238.767 9.22928 238.767 10.2047C238.767 10.6896 238.962 11.1281 239.278 11.4455C238.94 12.2812 238.767 13.1742 238.767 14.0755C238.765 15.4594 239.171 16.8134 239.935 17.9674C240.699 19.1214 241.787 20.0241 243.062 20.5621C243.93 20.9277 244.863 21.1151 245.805 21.1132L245.805 19.7056C245.05 19.7074 244.303 19.5573 243.608 19.2644Z" fill="#EFD168"/>
<path d="M249 14.0754C249 12.3146 247.567 10.8817 245.806 10.8817C244.045 10.8817 242.612 12.3146 242.612 14.0754C242.612 15.8363 244.045 17.2692 245.806 17.2692C247.567 17.2692 249 15.8363 249 14.0754Z" fill="#EFD168"/>
<path d="M353.08 43.31V42.7H355.18V43.31H353.08ZM351.86 41.62H356.3V41.99H351.86V41.62ZM353.72 38.12C353.61 38.23 353.5 38.32 353.38 38.41C353.61 38.51 353.98 38.7 354.25 38.86H352.08L352.74 38.62C352.69 38.48 352.59 38.3 352.48 38.12H353.72ZM355.7 38.12C355.91 38.36 356.11 38.64 356.25 38.86H354.54C354.75 38.65 354.97 38.4 355.17 38.12H355.7ZM351.86 40.58H356.3V40.95H351.86V40.58ZM356.3 39.57V39.92H351.86V39.57H356.3ZM358.52 43.31H356.41V42.7H357.56V38.86H356.67L357.34 38.56C357.27 38.43 357.15 38.28 357.02 38.12H358.49V37.18H355.74C355.81 37.03 355.88 36.87 355.94 36.72L354.81 36.45C354.61 37 354.27 37.55 353.86 37.97V37.18H351.65C351.73 37.04 351.8 36.89 351.87 36.75L350.76 36.45C350.44 37.2 349.85 37.96 349.22 38.44C349.5 38.59 349.97 38.91 350.18 39.1C350.47 38.84 350.77 38.5 351.05 38.12H351.26C351.42 38.36 351.57 38.64 351.66 38.86H350.66V42.7H351.88V43.31H349.5V44.25H351.5C351.19 44.54 350.62 44.8 349.63 45C349.9 45.22 350.23 45.62 350.39 45.87C351.95 45.47 352.65 44.89 352.93 44.25H355.18V45.85H356.41V44.25H358.52V43.31ZM362.45 37.58C362.02 37.24 361.18 36.81 360.54 36.56L359.88 37.45C360.54 37.72 361.36 38.2 361.75 38.55L362.45 37.58ZM361.86 40.19C361.43 39.86 360.57 39.48 359.93 39.26L359.32 40.16C359.97 40.41 360.8 40.85 361.2 41.19L361.86 40.19ZM361.36 41.83C360.8 42.98 360.09 44.22 359.59 44.97L360.62 45.73C361.18 44.77 361.76 43.63 362.25 42.59L361.36 41.83ZM368.79 45.26C368.48 44.42 367.68 43.23 366.94 42.35L365.92 42.89C366.19 43.24 366.47 43.63 366.72 44.03C365.84 44.08 364.95 44.13 364.15 44.17C364.51 43.42 364.91 42.5 365.23 41.66L365.19 41.65H368.55V40.51H365.91V39.1H368.08V37.96H365.91V36.54H364.67V37.96H362.6V39.1H364.67V40.51H362.1V41.65H363.81C363.57 42.49 363.22 43.48 362.86 44.24L362.11 44.27L362.27 45.47C363.62 45.37 365.51 45.24 367.32 45.08C367.47 45.36 367.58 45.64 367.66 45.87L368.79 45.26ZM369.67 42.38C369.59 43.22 369.45 44.11 369.16 44.7C369.39 44.78 369.8 44.98 369.99 45.1C370.28 44.46 370.5 43.48 370.58 42.53L369.67 42.38ZM371.05 40.79C371.23 40.56 371.4 40.31 371.58 40.05C371.69 40.26 371.79 40.5 371.88 40.74L371.05 40.79ZM372.2 41.7C372.26 41.91 372.3 42.1 372.33 42.27L373.16 41.91C373.06 41.33 372.72 40.43 372.36 39.73L371.58 40.05C372.02 39.42 372.45 38.75 372.82 38.14L371.88 37.71C371.65 38.2 371.35 38.78 371.02 39.34C370.93 39.21 370.82 39.07 370.7 38.93C371.05 38.37 371.46 37.58 371.82 36.89L370.81 36.54C370.65 37.05 370.37 37.73 370.09 38.28C370.01 38.2 369.93 38.12 369.85 38.05L369.28 38.82C369.69 39.25 370.18 39.81 370.44 40.27C370.31 40.47 370.17 40.67 370.04 40.85C369.75 40.86 369.49 40.88 369.25 40.89L369.37 41.92L370.69 41.82V45.87H371.69V41.74L372.2 41.7ZM377.08 44.08H377.5V44.84C377.5 44.92 377.48 44.94 377.43 44.94C377.36 44.94 377.23 44.94 377.08 44.93V44.08ZM375.92 43.24V42.4H376.35V43.24H375.92ZM374.8 43.24V42.4H375.2V43.24H374.8ZM377.5 42.4V43.24H377.08V42.4H377.5ZM377.13 39.48V40.14H374.27V39.48H377.13ZM378.47 41.51H374.25C374.26 41.36 374.26 41.22 374.26 41.08H378.27V38.54H373.23V40.61C373.23 41.48 373.2 42.58 372.93 43.6C372.84 43.19 372.69 42.73 372.52 42.34L371.74 42.57C371.96 43.16 372.16 43.91 372.2 44.41L372.73 44.24C372.61 44.57 372.45 44.9 372.25 45.19C372.49 45.3 372.94 45.63 373.12 45.82C373.54 45.2 373.81 44.44 373.98 43.66V45.87H374.8V44.08H375.2V45.79H375.92V44.08H376.35V45.79H377.08V44.97C377.2 45.23 377.32 45.61 377.36 45.87C377.7 45.87 377.97 45.84 378.19 45.68C378.43 45.51 378.47 45.25 378.47 44.86V41.51ZM372.86 37.09V38.1H378.5V37.09H372.86ZM387.02 39.28H384.69V37.9H387.02V39.28ZM388.18 36.9H383.59V40.28H388.18V36.9ZM383.3 42.04C383.11 41.82 382.29 40.95 382.02 40.73V40.44H383.09V39.33H382.02V37.92C382.45 37.81 382.85 37.68 383.21 37.54L382.42 36.63C381.65 36.98 380.42 37.27 379.32 37.46C379.45 37.7 379.59 38.1 379.65 38.37C380.04 38.32 380.45 38.25 380.87 38.17V39.33H379.44V40.44H380.71C380.34 41.41 379.79 42.47 379.23 43.12C379.42 43.42 379.67 43.91 379.78 44.25C380.17 43.75 380.55 43.04 380.87 42.27V45.86H382.02V41.96C382.26 42.32 382.5 42.71 382.62 42.97L383.3 42.04ZM386.44 44.61V43.73H388.21V42.73H386.44V41.9H388.45V40.88H383.27V41.9H385.26V42.73H383.51V43.73H385.26V44.61H382.88V45.65H388.66V44.61H386.44Z" fill="#22282D"/>
<path d="M158.26 193.145V191.145H160.09V190.035H158.26V188.395H160.3V187.275H158.26V185.315H157.07V187.275H156.27C156.37 186.825 156.45 186.355 156.52 185.885L155.36 185.725C155.26 186.575 155.08 187.435 154.83 188.165C154.69 187.775 154.48 187.295 154.28 186.905L153.7 187.145V185.255H152.51V187.295L151.67 187.175C151.6 187.995 151.42 189.115 151.18 189.775L152.06 190.095C152.29 189.385 152.45 188.285 152.51 187.445V194.595H153.7V187.765C153.87 188.175 154.02 188.615 154.08 188.915L154.65 188.655C154.55 188.865 154.45 189.055 154.35 189.235C154.63 189.355 155.17 189.625 155.41 189.775C155.62 189.395 155.82 188.915 155.97 188.395H157.07V190.035H155.14V191.145H157.07V193.145H154.4V194.275H160.62V193.145H158.26ZM169.31 189.745C170.23 189.745 170.54 189.375 170.67 188.095C170.35 188.025 169.86 187.835 169.62 187.655C169.58 188.525 169.51 188.675 169.19 188.675H168.1C167.72 188.675 167.66 188.635 167.66 188.275V187.685C168.53 187.425 169.46 187.105 170.22 186.745L169.46 185.885C168.99 186.145 168.33 186.455 167.66 186.715V185.285H166.48V188.295C166.48 189.395 166.76 189.745 167.93 189.745H169.31ZM163.02 191.815V191.225H164.52V191.815H163.02ZM164.52 189.825V190.345H163.02V189.825H164.52ZM165.69 188.845H161.92V194.585H163.02V192.695H164.52V193.365C164.52 193.485 164.48 193.515 164.36 193.515C164.23 193.525 163.83 193.535 163.48 193.515C163.62 193.795 163.8 194.255 163.86 194.565C164.46 194.565 164.92 194.555 165.26 194.365C165.59 194.195 165.69 193.905 165.69 193.385V188.845ZM164.19 186.295C164.35 186.555 164.51 186.835 164.66 187.115L163.33 187.175C163.58 186.645 163.85 186.045 164.08 185.465L162.84 185.215C162.67 185.825 162.39 186.595 162.11 187.225C161.83 187.235 161.57 187.245 161.33 187.245L161.43 188.375C162.45 188.315 163.81 188.235 165.13 188.145C165.21 188.335 165.27 188.515 165.31 188.675L166.4 188.235C166.21 187.585 165.68 186.635 165.19 185.925L164.19 186.295ZM168.11 193.485C167.72 193.485 167.65 193.435 167.65 193.085V192.285C168.56 192.005 169.55 191.645 170.32 191.225L169.53 190.355C169.05 190.675 168.36 191.005 167.65 191.295V189.945H166.48V193.085C166.48 194.185 166.77 194.525 167.94 194.525H169.36C170.32 194.525 170.62 194.135 170.75 192.725C170.44 192.645 169.96 192.465 169.71 192.285C169.66 193.295 169.59 193.485 169.25 193.485H168.11ZM178.63 186.265H177.6V192.045H178.63V186.265ZM173.94 186.265C173.6 185.965 172.9 185.565 172.36 185.335L171.69 186.215C172.24 186.465 172.92 186.905 173.24 187.225L173.94 186.265ZM173.56 188.865C173.22 188.555 172.51 188.205 171.96 187.995L171.31 188.865C171.86 189.115 172.54 189.515 172.87 189.825L173.56 188.865ZM172.77 190.665C172.38 191.835 171.85 193.105 171.48 193.875L172.55 194.485C172.96 193.505 173.4 192.355 173.73 191.285L172.77 190.665ZM174.36 192.245C174.09 192.895 173.63 193.565 173.16 194.015C173.42 194.155 173.87 194.445 174.09 194.625C174.57 194.125 175.11 193.305 175.44 192.545L174.36 192.245ZM175.76 192.665C176.13 193.165 176.58 193.835 176.77 194.255L177.71 193.695C177.5 193.275 177.03 192.625 176.66 192.165L175.76 192.665ZM176.06 187.515H175.08V186.675H176.06V187.515ZM176.06 189.315H175.08V188.465H176.06V189.315ZM176.06 191.135H175.08V190.275H176.06V191.135ZM177.1 185.645H174.08V192.165H177.1V185.645ZM179.25 185.265V193.255C179.25 193.405 179.2 193.455 179.03 193.465C178.87 193.465 178.39 193.465 177.88 193.445C178.03 193.775 178.18 194.275 178.22 194.585C179 194.585 179.52 194.545 179.87 194.355C180.22 194.185 180.33 193.865 180.33 193.255V185.265H179.25ZM184.66 185.565H181.81V186.465H184.66V185.565ZM184.95 186.905H181.33V187.845H184.95V186.905ZM183.71 191.985V193.135H182.73V191.985H183.71ZM184.7 191.045H181.75V194.455H182.73V194.065H184.7V191.045ZM181.78 190.555H184.72V189.665H181.78V190.555ZM181.78 189.205H184.72V188.295H181.78V189.205ZM187.03 192.585V190.325H187.81V189.305H185.09V190.325H185.93V192.775C185.55 192.835 185.2 192.895 184.9 192.935L185.14 194.025C186 193.845 187.09 193.615 188.12 193.385L188.04 192.405L187.03 192.585ZM190.56 188.225V187.145H189.08C189.07 186.705 189.07 186.255 189.08 185.795C189.39 186.185 189.73 186.715 189.88 187.055L190.74 186.575C190.57 186.235 190.2 185.725 189.88 185.355L189.08 185.765V185.265H187.94C187.94 185.925 187.95 186.545 187.96 187.145H185.1V188.225H187.99C188.11 192.205 188.48 194.565 189.72 194.595C190.09 194.605 190.59 194.255 190.85 192.625C190.67 192.505 190.2 192.175 190.02 191.915C189.98 192.665 189.9 193.125 189.77 193.125C189.39 193.095 189.16 191.085 189.09 188.225H190.56Z" fill="#22282D"/>
<path d="M297.64 193.145V191.135H300.63V189.985H297.64V188.225H301.01V187.065H297.64V185.265H296.39V187.065H294.85C295.02 186.605 295.18 186.135 295.32 185.655L294.09 185.385C293.75 186.745 293.1 188.125 292.32 188.965C292.62 189.125 293.15 189.485 293.39 189.675C293.72 189.285 294.03 188.775 294.32 188.225H296.39V189.985H293.68V191.135H296.39V193.145H292.53V194.315H301.52V193.145H297.64ZM307.39 191.145V191.785H305.3V192.685H307.39V193.445H304.45V194.405H311.47V193.445H308.56V192.685H310.68V191.785H308.56V191.145H310.98V190.215H308.56V189.555H307.39V190.215H306.29C306.37 190.045 306.44 189.865 306.5 189.695L305.46 189.445C305.22 190.155 304.79 190.835 304.28 191.275C304.53 191.425 304.95 191.725 305.15 191.905C305.36 191.695 305.57 191.435 305.76 191.145H307.39ZM305.56 188.485C306.15 188.355 306.76 188.195 307.33 188.015C307.86 188.175 308.35 188.335 308.78 188.485H305.56ZM308.31 186.865C308.02 186.995 307.69 187.125 307.34 187.235C306.85 187.105 306.36 186.975 305.89 186.865H308.31ZM311.55 188.485H309.51L310.01 188.065C309.59 187.915 309.08 187.745 308.52 187.575C308.95 187.395 309.34 187.195 309.67 186.985L309.45 186.865H311.07V185.935H307.57V185.265H306.38V185.935H303.05V186.865H304.93L304.42 187.245C304.91 187.355 305.43 187.485 305.96 187.625C305.31 187.775 304.65 187.895 304.05 187.985C304.14 188.105 304.27 188.305 304.37 188.485H303.12V190.155C303.12 191.265 303.04 192.845 302.24 193.965C302.49 194.105 302.98 194.495 303.17 194.715C304.1 193.455 304.28 191.485 304.28 190.165V189.445H311.55V188.485Z" fill="#22282D"/>
<path d="M81.8532 324.843C82.4599 324.843 82.9865 324.943 83.4332 325.143C83.8865 325.343 84.2332 325.629 84.4732 326.003C84.7132 326.376 84.8332 326.819 84.8332 327.333C84.8332 327.839 84.7132 328.283 84.4732 328.663C84.2332 329.036 83.8865 329.323 83.4332 329.523C82.9865 329.723 82.4599 329.823 81.8532 329.823H80.2732V331.843H78.9732V324.843H81.8532ZM81.7932 328.723C82.3599 328.723 82.7899 328.603 83.0832 328.363C83.3765 328.123 83.5232 327.779 83.5232 327.333C83.5232 326.886 83.3765 326.543 83.0832 326.303C82.7899 326.063 82.3599 325.943 81.7932 325.943H80.2732V328.723H81.7932ZM87.1526 327.283C87.5126 326.723 88.1459 326.443 89.0526 326.443V327.633C88.9459 327.613 88.8492 327.603 88.7626 327.603C88.2759 327.603 87.8959 327.746 87.6226 328.033C87.3492 328.313 87.2126 328.719 87.2126 329.253V331.843H85.9626V326.503H87.1526V327.283ZM92.4641 331.913C91.9241 331.913 91.4375 331.796 91.0041 331.563C90.5708 331.329 90.2308 331.006 89.9841 330.593C89.7441 330.173 89.6241 329.699 89.6241 329.173C89.6241 328.646 89.7441 328.176 89.9841 327.763C90.2308 327.349 90.5708 327.026 91.0041 326.793C91.4375 326.559 91.9241 326.443 92.4641 326.443C93.0108 326.443 93.5008 326.559 93.9341 326.793C94.3675 327.026 94.7041 327.349 94.9441 327.763C95.1908 328.176 95.3141 328.646 95.3141 329.173C95.3141 329.699 95.1908 330.173 94.9441 330.593C94.7041 331.006 94.3675 331.329 93.9341 331.563C93.5008 331.796 93.0108 331.913 92.4641 331.913ZM92.4641 330.843C92.9241 330.843 93.3041 330.689 93.6041 330.383C93.9041 330.076 94.0541 329.673 94.0541 329.173C94.0541 328.673 93.9041 328.269 93.6041 327.963C93.3041 327.656 92.9241 327.503 92.4641 327.503C92.0041 327.503 91.6241 327.656 91.3241 327.963C91.0308 328.269 90.8841 328.673 90.8841 329.173C90.8841 329.673 91.0308 330.076 91.3241 330.383C91.6241 330.689 92.0041 330.843 92.4641 330.843ZM101.363 326.503L99.073 331.843H97.783L95.493 326.503H96.793L98.453 330.463L100.163 326.503H101.363ZM107.018 329.203C107.018 329.289 107.011 329.413 106.998 329.573H102.808C102.881 329.966 103.071 330.279 103.378 330.513C103.691 330.739 104.078 330.853 104.538 330.853C105.124 330.853 105.608 330.659 105.988 330.273L106.658 331.043C106.418 331.329 106.114 331.546 105.748 331.693C105.381 331.839 104.968 331.913 104.508 331.913C103.921 331.913 103.404 331.796 102.958 331.563C102.511 331.329 102.164 331.006 101.918 330.593C101.678 330.173 101.558 329.699 101.558 329.173C101.558 328.653 101.674 328.186 101.908 327.773C102.148 327.353 102.478 327.026 102.898 326.793C103.318 326.559 103.791 326.443 104.318 326.443C104.838 326.443 105.301 326.559 105.708 326.793C106.121 327.019 106.441 327.343 106.668 327.763C106.901 328.176 107.018 328.656 107.018 329.203ZM104.318 327.443C103.918 327.443 103.578 327.563 103.298 327.803C103.024 328.036 102.858 328.349 102.798 328.743H105.828C105.774 328.356 105.611 328.043 105.338 327.803C105.064 327.563 104.724 327.443 104.318 327.443ZM111.428 331.553C111.282 331.673 111.102 331.763 110.888 331.823C110.682 331.883 110.462 331.913 110.228 331.913C109.642 331.913 109.188 331.759 108.868 331.453C108.548 331.146 108.388 330.699 108.388 330.113V327.543H107.508V326.543H108.388V325.323H109.638V326.543H111.068V327.543H109.638V330.083C109.638 330.343 109.702 330.543 109.828 330.683C109.955 330.816 110.138 330.883 110.378 330.883C110.658 330.883 110.892 330.809 111.078 330.663L111.428 331.553ZM113.647 327.283C114.007 326.723 114.64 326.443 115.547 326.443V327.633C115.44 327.613 115.343 327.603 115.257 327.603C114.77 327.603 114.39 327.746 114.117 328.033C113.843 328.313 113.707 328.719 113.707 329.253V331.843H112.457V326.503H113.647V327.283ZM118.618 326.443C119.404 326.443 120.004 326.633 120.418 327.013C120.838 327.386 121.048 327.953 121.048 328.713V331.843H119.868V331.193C119.714 331.426 119.494 331.606 119.208 331.733C118.928 331.853 118.588 331.913 118.188 331.913C117.788 331.913 117.438 331.846 117.138 331.713C116.838 331.573 116.604 331.383 116.438 331.143C116.278 330.896 116.198 330.619 116.198 330.313C116.198 329.833 116.374 329.449 116.728 329.163C117.088 328.869 117.651 328.723 118.418 328.723H119.798V328.643C119.798 328.269 119.684 327.983 119.458 327.783C119.238 327.583 118.908 327.483 118.468 327.483C118.168 327.483 117.871 327.529 117.578 327.623C117.291 327.716 117.048 327.846 116.848 328.013L116.358 327.103C116.638 326.889 116.974 326.726 117.368 326.613C117.761 326.499 118.178 326.443 118.618 326.443ZM118.448 331.003C118.761 331.003 119.038 330.933 119.278 330.793C119.524 330.646 119.698 330.439 119.798 330.173V329.553H118.508C117.788 329.553 117.428 329.789 117.428 330.263C117.428 330.489 117.518 330.669 117.698 330.803C117.878 330.936 118.128 331.003 118.448 331.003ZM127.931 324.423V331.843H126.731V331.153C126.524 331.406 126.268 331.596 125.961 331.723C125.661 331.849 125.328 331.913 124.961 331.913C124.448 331.913 123.984 331.799 123.571 331.573C123.164 331.346 122.844 331.026 122.611 330.613C122.378 330.193 122.261 329.713 122.261 329.173C122.261 328.633 122.378 328.156 122.611 327.743C122.844 327.329 123.164 327.009 123.571 326.783C123.984 326.556 124.448 326.443 124.961 326.443C125.314 326.443 125.638 326.503 125.931 326.623C126.224 326.743 126.474 326.923 126.681 327.163V324.423H127.931ZM125.111 330.843C125.411 330.843 125.681 330.776 125.921 330.643C126.161 330.503 126.351 330.306 126.491 330.053C126.631 329.799 126.701 329.506 126.701 329.173C126.701 328.839 126.631 328.546 126.491 328.293C126.351 328.039 126.161 327.846 125.921 327.713C125.681 327.573 125.411 327.503 125.111 327.503C124.811 327.503 124.541 327.573 124.301 327.713C124.061 327.846 123.871 328.039 123.731 328.293C123.591 328.546 123.521 328.839 123.521 329.173C123.521 329.506 123.591 329.799 123.731 330.053C123.871 330.306 124.061 330.503 124.301 330.643C124.541 330.776 124.811 330.843 125.111 330.843ZM134.586 329.203C134.586 329.289 134.579 329.413 134.566 329.573H130.376C130.449 329.966 130.639 330.279 130.946 330.513C131.259 330.739 131.646 330.853 132.106 330.853C132.693 330.853 133.176 330.659 133.556 330.273L134.226 331.043C133.986 331.329 133.683 331.546 133.316 331.693C132.949 331.839 132.536 331.913 132.076 331.913C131.489 331.913 130.973 331.796 130.526 331.563C130.079 331.329 129.733 331.006 129.486 330.593C129.246 330.173 129.126 329.699 129.126 329.173C129.126 328.653 129.243 328.186 129.476 327.773C129.716 327.353 130.046 327.026 130.466 326.793C130.886 326.559 131.359 326.443 131.886 326.443C132.406 326.443 132.869 326.559 133.276 326.793C133.689 327.019 134.009 327.343 134.236 327.763C134.469 328.176 134.586 328.656 134.586 329.203ZM131.886 327.443C131.486 327.443 131.146 327.563 130.866 327.803C130.593 328.036 130.426 328.349 130.366 328.743H133.396C133.343 328.356 133.179 328.043 132.906 327.803C132.633 327.563 132.293 327.443 131.886 327.443Z" fill="#22282D"/>
<path d="M228.48 330.013C227.96 330.653 227.09 331.333 226.28 331.753C226.58 331.943 227.1 332.343 227.35 332.573C228.13 332.073 229.09 331.253 229.71 330.463L228.48 330.013ZM235.71 329.493C235.22 328.813 234.18 327.823 233.37 327.153L232.39 327.773C232.62 327.973 232.87 328.203 233.12 328.443C232.2 328.473 231.28 328.493 230.4 328.503C231.48 327.683 232.64 326.693 233.57 325.733L232.43 325.113C231.84 325.793 231.04 326.563 230.22 327.263C230 327.073 229.73 326.873 229.45 326.673C229.98 326.193 230.57 325.583 231.07 324.993L231.04 324.973C232.43 324.863 233.78 324.703 234.9 324.463L234.06 323.463C232.28 323.823 229.35 324.033 226.78 324.083C226.9 324.363 227.04 324.843 227.07 325.153C227.82 325.143 228.62 325.123 229.42 325.083C229.15 325.423 228.83 325.763 228.54 326.063C228.36 325.953 228.2 325.853 228.04 325.763L227.22 326.523C227.9 326.943 228.71 327.543 229.26 328.043C229.03 328.223 228.8 328.393 228.58 328.543C227.81 328.553 227.1 328.563 226.49 328.573L226.59 329.763C227.63 329.733 228.94 329.703 230.34 329.653V332.713H231.61V329.613C232.44 329.583 233.28 329.543 234.12 329.513C234.33 329.763 234.52 330.003 234.65 330.213L235.71 329.493ZM232.19 330.633C232.99 331.193 234.02 332.013 234.48 332.553L235.55 331.793C235.03 331.243 233.97 330.463 233.18 329.953L232.19 330.633ZM240.21 328.143C241.34 328.053 242.9 327.923 244.39 327.803C244.54 328.063 244.66 328.303 244.75 328.513L245.73 327.983C245.46 327.343 244.79 326.393 244.23 325.703L243.32 326.193C243.47 326.393 243.62 326.603 243.77 326.823C243.21 326.863 242.65 326.903 242.11 326.943C242.31 326.523 242.53 326.043 242.73 325.593H245.53V324.533H243.3V323.373H242.09V324.533H240.05V325.593H241.4C241.27 326.063 241.08 326.583 240.9 327.023C240.62 327.043 240.35 327.053 240.11 327.063L240.21 328.143ZM236.71 329.223C236.63 330.063 236.47 330.953 236.18 331.543C236.44 331.633 236.88 331.843 237.09 331.973C237.38 331.333 237.59 330.333 237.69 329.393L236.71 329.223ZM239.37 328.593C239.43 328.783 239.47 328.953 239.5 329.103L240.34 328.723C240.23 328.153 239.84 327.283 239.46 326.603L238.67 326.933C238.79 327.153 238.91 327.403 239.02 327.653L238.06 327.693C238.69 326.883 239.38 325.873 239.93 325.003L238.96 324.553C238.73 325.043 238.41 325.613 238.07 326.173C237.97 326.053 237.86 325.913 237.73 325.773C238.09 325.213 238.49 324.443 238.85 323.763L237.82 323.383C237.65 323.913 237.37 324.573 237.09 325.123C237.01 325.053 236.93 324.983 236.86 324.923L236.29 325.733C236.7 326.133 237.18 326.663 237.47 327.093C237.31 327.323 237.15 327.543 237 327.733L236.28 327.763L236.38 328.793L237.83 328.703V332.723H238.86V328.633L239.37 328.593ZM240.34 330.943C240.23 330.443 239.97 329.713 239.72 329.143L238.88 329.403C239.11 329.993 239.37 330.763 239.46 331.263L240.34 330.943ZM241.16 328.413C241.1 330.153 240.97 331.223 239.46 331.853C239.7 332.053 240 332.463 240.13 332.733C241.94 331.943 242.21 330.533 242.29 328.413H241.16ZM244.27 331.603C244.13 331.603 244.11 331.573 244.11 331.283V328.403H242.99V331.293C242.99 332.303 243.19 332.643 244.06 332.643H244.72C245.44 332.643 245.71 332.263 245.8 330.813C245.5 330.733 245.03 330.553 244.81 330.363C244.79 331.443 244.76 331.603 244.6 331.603H244.27Z" fill="#22282D"/>
<path d="M246.881 306.389H224.488V291.484H246.881V306.389ZM246.881 289H224.488C223.107 289 222 290.105 222 291.484V306.389C222 307.048 222.262 307.68 222.729 308.145C223.195 308.611 223.828 308.873 224.488 308.873H233.196V311.357H230.708V313.841H240.661V311.357H238.173V308.873H246.881C247.541 308.873 248.174 308.611 248.64 308.145C249.107 307.68 249.369 307.048 249.369 306.389V291.484C249.369 290.825 249.107 290.193 248.64 289.728C248.174 289.262 247.541 289 246.881 289Z" fill="#22282D"/>
<path d="M241.12 300.307L240.111 299.723C240.213 299.173 240.213 298.608 240.111 298.058L241.12 297.474C241.236 297.408 241.288 297.27 241.25 297.142C240.987 296.298 240.54 295.534 239.955 294.898C239.865 294.801 239.718 294.777 239.604 294.843L238.596 295.427C238.172 295.062 237.684 294.779 237.156 294.594V293.429C237.156 293.297 237.063 293.18 236.933 293.152C236.064 292.957 235.174 292.967 234.347 293.152C234.217 293.18 234.125 293.297 234.125 293.429V294.597C233.599 294.784 233.111 295.066 232.685 295.429L231.678 294.846C231.562 294.779 231.418 294.801 231.328 294.9C230.743 295.534 230.296 296.298 230.033 297.145C229.992 297.273 230.047 297.41 230.163 297.477L231.172 298.06C231.07 298.611 231.07 299.175 231.172 299.726L230.163 300.309C230.047 300.376 229.995 300.513 230.033 300.641C230.296 301.486 230.743 302.25 231.328 302.886C231.418 302.983 231.565 303.007 231.678 302.94L232.687 302.357C233.111 302.722 233.599 303.004 234.127 303.189V304.357C234.127 304.489 234.219 304.606 234.35 304.634C235.219 304.829 236.109 304.819 236.936 304.634C237.066 304.606 237.158 304.489 237.158 304.357V303.189C237.684 303.002 238.172 302.72 238.598 302.357L239.607 302.94C239.723 303.007 239.867 302.985 239.957 302.886C240.542 302.252 240.99 301.488 241.252 300.641C241.288 300.511 241.236 300.373 241.12 300.307V300.307ZM235.64 300.788C234.596 300.788 233.746 299.937 233.746 298.891C233.746 297.844 234.596 296.993 235.64 296.993C236.685 296.993 237.535 297.844 237.535 298.891C237.535 299.937 236.685 300.788 235.64 300.788Z" fill="#EFD168"/>
<path d="M361.41 327.75C361.95 327.56 362.47 327.33 362.95 327.08C363.48 327.34 364.05 327.57 364.66 327.75H361.41ZM361.35 329.58V328.73H364.68V329.58H361.35ZM361.83 324.96H364.05C363.75 325.27 363.37 325.56 362.95 325.82C362.5 325.58 362.11 325.3 361.78 325L361.83 324.96ZM365.06 324.02L364.86 324.07H362.68C362.79 323.93 362.9 323.79 363 323.65L361.89 323.43H366.07V324.54H367.29V322.35H363.58V321.54H362.36V322.35H358.71V324.54H359.88V323.43H361.72C361.22 324.17 360.3 324.91 358.91 325.44C359.17 325.62 359.54 326.04 359.7 326.32C360.15 326.11 360.55 325.89 360.92 325.65C361.2 325.92 361.5 326.17 361.82 326.4C360.76 326.87 359.53 327.2 358.31 327.39C358.51 327.64 358.76 328.13 358.86 328.45C359.31 328.36 359.75 328.26 360.19 328.14V330.87H361.35V330.56H364.68V330.85H365.91V328.07C366.24 328.13 366.58 328.19 366.93 328.24C367.09 327.9 367.43 327.37 367.68 327.09C366.39 326.96 365.18 326.71 364.14 326.34C364.84 325.82 365.43 325.22 365.86 324.5L365.06 324.02ZM370.84 326.73C370.89 326.2 370.91 325.7 370.91 325.27H375.31V326.73H370.84ZM370.91 324.17V323.47C372.76 323.25 374.79 322.9 376.31 322.43L375.36 321.54C374.18 321.95 372.27 322.31 370.49 322.53L369.7 322.31V325.22C369.7 326.67 369.58 328.64 368.35 330.06C368.65 330.21 369.12 330.61 369.3 330.87C370.06 330.02 370.46 328.91 370.68 327.83H375.31V328.34H376.52V324.17H370.91Z" fill="#22282D"/>
<path d="M3 76.44C3.07689 76.44 3.15462 76.44 3.23319 76.44C3.31176 76.44 3.39116 76.44 3.47141 76.44C3.55165 76.44 3.63273 76.44 3.71465 76.44C3.79656 76.44 3.87931 76.44 3.96289 76.44C4.04646 76.44 4.13087 76.44 4.21611 76.44C4.30135 76.44 4.38742 76.44 4.47431 76.44C4.5612 76.44 4.64892 76.44 4.73747 76.44C4.82601 76.44 4.91537 76.44 5.00556 76.44C5.09575 76.44 5.18676 76.44 5.27858 76.44C5.37041 76.44 5.46305 76.44 5.55651 76.44C5.64997 76.44 5.74425 76.44 5.83934 76.44C5.93443 76.44 6.03033 76.44 6.12705 76.44C6.22376 76.44 6.32128 76.44 6.41962 76.44C6.51795 76.44 6.61709 76.44 6.71703 76.44C6.81698 76.44 6.91773 76.44 7.01929 76.44C7.12084 76.44 7.2232 76.44 7.32636 76.44C7.42951 76.44 7.53347 76.44 7.63823 76.44C7.74299 76.44 7.84854 76.44 7.95489 76.44C8.06124 76.44 8.16838 76.44 8.27632 76.44C8.38426 76.44 8.49299 76.44 8.60251 76.44C8.71203 76.44 8.82234 76.44 8.93344 76.44C9.04454 76.44 9.15642 76.44 9.26909 76.44C9.38177 76.44 9.49522 76.44 9.60946 76.44C9.7237 76.44 9.83872 76.44 9.95452 76.44C10.0703 76.44 10.1869 76.44 10.3043 76.44C10.4216 76.44 10.5398 76.44 10.6587 76.44C10.7776 76.44 10.8973 76.44 11.0177 76.44C11.1382 76.44 11.2594 76.44 11.3814 76.44C11.5034 76.44 11.6262 76.44 11.7497 76.44C11.8733 76.44 11.9976 76.44 12.1226 76.44C12.2477 76.44 12.3735 76.44 12.5001 76.44C12.6267 76.44 12.7541 76.44 12.8822 76.44C13.0103 76.44 13.1392 76.44 13.2688 76.44C13.3985 76.44 13.5288 76.44 13.66 76.44C13.7911 76.44 13.923 76.44 14.0557 76.44C14.1883 76.44 14.3217 76.44 14.4559 76.44C14.59 76.44 14.7249 76.44 14.8606 76.44C14.9962 76.44 15.1326 76.44 15.2698 76.44C15.4069 76.44 15.5448 76.44 15.6834 76.44C15.822 76.44 15.9614 76.44 16.1015 76.44C16.2416 76.44 16.3825 76.44 16.524 76.44C16.6656 76.44 16.8079 76.44 16.951 76.44C17.094 76.44 17.2378 76.44 17.3824 76.44C17.5269 76.44 17.6721 76.44 17.8181 76.44C17.9641 76.44 18.1108 76.44 18.2582 76.44C18.4056 76.44 18.5538 76.44 18.7027 76.44C18.8516 76.44 19.0012 76.44 19.1515 76.44C19.3018 76.44 19.4529 76.44 19.6046 76.44C19.7564 76.44 19.9089 76.44 20.0621 76.44C20.2153 76.44 20.3692 76.44 20.5238 76.44C20.6785 76.44 20.8338 76.44 20.9899 76.44C21.1459 76.44 21.3027 76.44 21.4601 76.44C21.6176 76.44 21.7758 76.44 21.9347 76.44C22.0936 76.44 22.2532 76.44 22.4135 76.44C22.5738 76.44 22.7348 76.44 22.8965 76.44C23.0582 76.44 23.2206 76.44 23.3837 76.44C23.5468 76.44 23.7106 76.44 23.875 76.44C24.0395 76.44 24.2047 76.44 24.3706 76.44C24.5365 76.44 24.7031 76.44 24.8703 76.44C25.0376 76.44 25.2055 76.44 25.3742 76.44C25.5428 76.44 25.7122 76.44 25.8822 76.44C26.0522 76.44 26.2229 76.44 26.3943 76.44C26.5657 76.44 26.7377 76.44 26.9105 76.44C27.0832 76.44 27.2567 76.44 27.4308 76.44C27.6049 76.44 27.7796 76.44 27.9551 76.44C28.1306 76.44 28.3067 76.44 28.4835 76.44C28.6603 76.44 28.8378 76.44 29.0159 76.44C29.1941 76.44 29.3729 76.44 29.5524 76.44C29.7319 76.44 29.912 76.44 30.0928 76.44C30.2736 76.44 30.4551 76.44 30.6373 76.44C30.8194 76.44 31.0022 76.44 31.1857 76.44C31.3691 76.44 31.5533 76.44 31.7381 76.44C31.9228 76.44 32.1083 76.44 32.2944 76.44C32.4805 76.44 32.6672 76.44 32.8546 76.44C33.042 76.44 33.2301 76.44 33.4188 76.44C33.6075 76.44 33.7968 76.44 33.9868 76.44C34.1768 76.44 34.3675 76.44 34.5588 76.44C34.75 76.44 34.942 76.44 35.1346 76.44C35.3271 76.44 35.5203 76.44 35.7142 76.44C35.9081 76.44 36.1026 76.44 36.2977 76.44C36.4928 76.44 36.6886 76.44 36.885 76.44C37.0814 76.44 37.2784 76.44 37.4761 76.44C37.6738 76.44 37.8721 76.44 38.071 76.44C38.2699 76.44 38.4695 76.44 38.6697 76.44C38.8699 76.44 39.0707 76.44 39.2721 76.44C39.4735 76.44 39.6756 76.44 39.8783 76.44C40.081 76.44 40.2843 76.44 40.4882 76.44C40.6921 76.44 40.8966 76.44 41.1018 76.44C41.307 76.44 41.5127 76.44 41.7191 76.44C41.9255 76.44 42.1325 76.44 42.3401 76.44C42.5477 76.44 42.7559 76.44 42.9648 76.44C43.1736 76.44 43.383 76.44 43.5931 76.44C43.8031 76.44 44.0138 76.44 44.225 76.44C44.4363 76.44 44.6481 76.44 44.8606 76.44C45.0731 76.44 45.2861 76.44 45.4998 76.44C45.7134 76.44 45.9277 76.44 46.1425 76.44C46.3574 76.44 46.5728 76.44 46.7889 76.44C47.0049 76.44 47.2215 76.44 47.4388 76.44C47.656 76.44 47.8738 76.44 48.0922 76.44C48.3106 76.44 48.5296 76.44 48.7492 76.44C48.9687 76.44 49.1889 76.44 49.4097 76.44C49.6304 76.44 49.8517 76.44 50.0736 76.44C50.2955 76.44 50.518 76.44 50.7411 76.44C50.9642 76.44 51.1878 76.44 51.412 76.44C51.6362 76.44 51.861 76.44 52.0864 76.44C52.3118 76.44 52.5377 76.44 52.7642 76.44C52.9907 76.44 53.2178 76.44 53.4454 76.44C53.6731 76.44 53.9013 76.44 54.1301 76.44C54.3589 76.44 54.5882 76.44 54.8181 76.44C55.048 76.44 55.2785 76.44 55.5095 76.44C55.7406 76.44 55.9721 76.44 56.2043 76.44C56.4364 76.44 56.6691 76.44 56.9024 76.44C57.1357 76.44 57.3695 76.44 57.6038 76.44C57.8382 76.44 58.0731 76.44 58.3086 76.44C58.5441 76.44 58.7801 76.44 59.0166 76.44C59.2532 76.44 59.4903 76.44 59.728 76.44C59.9656 76.44 60.2038 76.44 60.4426 76.44C60.6813 76.44 60.9206 76.44 61.1604 76.44C61.4002 76.44 61.6406 76.44 61.8815 76.44C62.1224 76.44 62.3638 76.44 62.6058 76.44C62.8478 76.44 63.0903 76.44 63.3333 76.44C63.5764 76.44 63.8199 76.44 64.064 76.44C64.3081 76.44 64.5528 76.44 64.7979 76.44C65.0431 76.44 65.2887 76.44 65.5349 76.44C65.7811 76.44 66.0279 76.44 66.2751 76.44C66.5224 76.44 66.7701 76.44 67.0184 76.44C67.2667 76.44 67.5155 76.44 67.7649 76.44C68.0142 76.44 68.264 76.44 68.5144 76.44C68.7647 76.44 69.0156 76.44 69.267 76.44C69.5184 76.44 69.7703 76.44 70.0227 76.44C70.2751 76.44 70.528 76.44 70.7814 76.44C71.0348 76.44 71.2887 76.44 71.5432 76.44C71.7976 76.44 72.0525 76.44 72.3079 76.44C72.5634 76.44 72.8193 76.44 73.0757 76.44C73.3322 76.44 73.5891 76.44 73.8465 76.44C74.1039 76.44 74.3619 76.44 74.6203 76.44C74.8787 76.44 75.1376 76.44 75.397 76.44C75.6564 76.44 75.9163 76.44 76.1767 76.44C76.437 76.44 76.6979 76.44 76.9592 76.44C77.2206 76.44 77.4824 76.44 77.7448 76.44C78.0071 76.44 78.2699 76.44 78.5332 76.44C78.7964 76.44 79.0602 76.44 79.3244 76.44C79.5887 76.44 79.8534 76.44 80.1186 76.44C80.3838 76.44 80.6495 76.44 80.9156 76.44C81.1818 76.44 81.4484 76.44 81.7155 76.44C81.9825 76.44 82.2501 76.44 82.5181 76.44C82.7861 76.44 83.0546 76.44 83.3236 76.44C83.5926 76.44 83.862 76.44 84.1319 76.44C84.4017 76.44 84.6721 76.44 84.9429 76.44C85.2137 76.44 85.485 76.44 85.7567 76.44C86.0284 76.44 86.3006 76.44 86.5733 76.44C86.8459 76.44 87.119 76.44 87.3925 76.44C87.6661 76.44 87.9401 76.44 88.2145 76.44C88.489 76.44 88.7639 76.44 89.0392 76.44C89.3146 76.44 89.5903 76.44 89.8666 76.44C90.1428 76.44 90.4195 76.44 90.6966 76.44C90.9738 76.44 91.2513 76.44 91.5293 76.44C91.8073 76.44 92.0858 76.44 92.3647 76.44C92.6435 76.44 92.9229 76.44 93.2026 76.44C93.4824 76.44 93.7626 76.44 94.0432 76.44C94.3238 76.44 94.6048 76.44 94.8863 76.44C95.1678 76.44 95.4497 76.44 95.7321 76.44C96.0144 76.44 96.2972 76.44 96.5803 76.44C96.8635 76.44 97.1472 76.44 97.4312 76.44C97.7152 76.44 97.9997 76.44 98.2846 76.44C98.5694 76.44 98.8547 76.44 99.1404 76.44C99.4261 76.44 99.7123 76.44 99.9988 76.44C100.285 76.44 100.572 76.44 100.86 76.44C101.147 76.44 101.435 76.44 101.723 76.44C102.011 76.44 102.3 76.44 102.589 76.44C102.878 76.44 103.167 76.44 103.457 76.44C103.747 76.44 104.037 76.44 104.328 76.44C104.618 76.44 104.909 76.44 105.201 76.44C105.492 76.44 105.784 76.44 106.076 76.44C106.368 76.44 106.661 76.44 106.954 76.44C107.247 76.44 107.54 76.44 107.834 76.44C108.128 76.44 108.422 76.44 108.717 76.44C109.011 76.44 109.306 76.44 109.602 76.44C109.897 76.44 110.193 76.44 110.489 76.44C110.785 76.44 111.081 76.44 111.378 76.44C111.675 76.44 111.972 76.44 112.27 76.44C112.568 76.44 112.866 76.44 113.164 76.44C113.462 76.44 113.761 76.44 114.06 76.44C114.359 76.44 114.659 76.44 114.959 76.44C115.259 76.44 115.559 76.44 115.86 76.44C116.16 76.44 116.461 76.44 116.763 76.44C117.064 76.44 117.366 76.44 117.668 76.44C117.97 76.44 118.272 76.44 118.575 76.44C118.878 76.44 119.181 76.44 119.484 76.44C119.788 76.44 120.092 76.44 120.396 76.44C120.7 76.44 121.005 76.44 121.31 76.44C121.615 76.44 121.92 76.44 122.226 76.44C122.531 76.44 122.837 76.44 123.144 76.44C123.45 76.44 123.757 76.44 124.064 76.44C124.371 76.44 124.678 76.44 124.986 76.44C125.294 76.44 125.602 76.44 125.91 76.44C126.219 76.44 126.527 76.44 126.836 76.44C127.145 76.44 127.455 76.44 127.765 76.44C128.074 76.44 128.384 76.44 128.695 76.44C129.005 76.44 129.316 76.44 129.627 76.44C129.938 76.44 130.25 76.44 130.561 76.44C130.873 76.44 131.185 76.44 131.497 76.44C131.81 76.44 132.123 76.44 132.436 76.44C132.749 76.44 133.062 76.44 133.376 76.44C133.689 76.44 134.003 76.44 134.318 76.44C134.632 76.44 134.947 76.44 135.262 76.44C135.577 76.44 135.892 76.44 136.207 76.44C136.523 76.44 136.839 76.44 137.155 76.44C137.471 76.44 137.788 76.44 138.104 76.44C138.421 76.44 138.738 76.44 139.056 76.44C139.373 76.44 139.691 76.44 140.009 76.44C140.327 76.44 140.645 76.44 140.964 76.44C141.283 76.44 141.601 76.44 141.921 76.44C142.24 76.44 142.559 76.44 142.879 76.44C143.199 76.44 143.519 76.44 143.84 76.44C144.16 76.44 144.481 76.44 144.802 76.44C145.123 76.44 145.444 76.44 145.765 76.44C146.087 76.44 146.409 76.44 146.731 76.44C147.053 76.44 147.375 76.44 147.698 76.44C148.021 76.44 148.344 76.44 148.667 76.44C148.99 76.44 149.314 76.44 149.637 76.44C149.961 76.44 150.285 76.44 150.61 76.44C150.934 76.44 151.259 76.44 151.583 76.44C151.908 76.44 152.234 76.44 152.559 76.44C152.884 76.44 153.21 76.44 153.536 76.44C153.862 76.44 154.188 76.44 154.515 76.44C154.841 76.44 155.168 76.44 155.495 76.44C155.822 76.44 156.149 76.44 156.477 76.44C156.804 76.44 157.132 76.44 157.46 76.44C157.788 76.44 158.116 76.44 158.445 76.44C158.774 76.44 159.102 76.44 159.431 76.44C159.76 76.44 160.09 76.44 160.419 76.44C160.749 76.44 161.079 76.44 161.409 76.44C161.739 76.44 162.069 76.44 162.4 76.44C162.73 76.44 163.061 76.44 163.392 76.44C163.723 76.44 164.054 76.44 164.386 76.44C164.717 76.44 165.049 76.44 165.381 76.44C165.713 76.44 166.045 76.44 166.377 76.44C166.71 76.44 167.043 76.44 167.375 76.44C167.708 76.44 168.041 76.44 168.375 76.44C168.708 76.44 169.042 76.44 169.376 76.44C169.709 76.44 170.043 76.44 170.378 76.44C170.712 76.44 171.046 76.44 171.381 76.44C171.716 76.44 172.051 76.44 172.386 76.44C172.721 76.44 173.056 76.44 173.392 76.44C173.727 76.44 174.063 76.44 174.399 76.44C174.735 76.44 175.071 76.44 175.408 76.44C175.744 76.44 176.081 76.44 176.418 76.44C176.754 76.44 177.091 76.44 177.429 76.44C177.766 76.44 178.103 76.44 178.441 76.44C178.779 76.44 179.116 76.44 179.454 76.44C179.793 76.44 180.131 76.44 180.469 76.44C180.808 76.44 181.146 76.44 181.485 76.44C181.824 76.44 182.163 76.44 182.502 76.44C182.841 76.44 183.181 76.44 183.52 76.44C183.86 76.44 184.2 76.44 184.54 76.44C190.036 76.44 195.41 76.44 200.991 76.44C201.336 76.44 201.681 76.44 202.027 76.44C202.372 76.44 202.718 76.44 203.064 76.44C203.41 76.44 203.756 76.44 204.102 76.44C204.448 76.44 204.794 76.44 205.141 76.44C205.487 76.44 205.834 76.44 206.18 76.44C206.527 76.44 206.874 76.44 207.221 76.44C207.568 76.44 207.915 76.44 208.262 76.44C208.609 76.44 208.956 76.44 209.304 76.44C209.651 76.44 209.999 76.44 210.346 76.44C210.694 76.44 211.042 76.44 211.39 76.44C211.738 76.44 212.086 76.44 212.434 76.44C212.782 76.44 213.13 76.44 213.479 76.44C213.827 76.44 214.176 76.44 214.524 76.44C214.873 76.44 215.222 76.44 215.57 76.44C215.919 76.44 216.268 76.44 216.617 76.44C216.966 76.44 217.315 76.44 217.665 76.44C218.014 76.44 218.363 76.44 218.713 76.44C219.062 76.44 219.412 76.44 219.762 76.44C220.111 76.44 220.461 76.44 220.811 76.44C221.161 76.44 221.511 76.44 221.861 76.44C222.211 76.44 222.561 76.44 222.911 76.44C223.262 76.44 223.612 76.44 223.962 76.44C224.313 76.44 224.663 76.44 225.014 76.44C225.364 76.44 225.715 76.44 226.066 76.44C226.417 76.44 226.767 76.44 227.118 76.44C227.469 76.44 227.82 76.44 228.171 76.44C228.523 76.44 228.874 76.44 229.225 76.44C229.576 76.44 229.928 76.44 230.279 76.44C230.63 76.44 230.982 76.44 231.333 76.44C231.685 76.44 232.037 76.44 232.388 76.44C232.74 76.44 233.092 76.44 233.444 76.44C233.795 76.44 234.147 76.44 234.499 76.44C234.851 76.44 235.203 76.44 235.555 76.44C235.907 76.44 236.259 76.44 236.612 76.44C236.964 76.44 237.316 76.44 237.668 76.44C238.021 76.44 238.373 76.44 238.725 76.44C239.078 76.44 239.43 76.44 239.783 76.44C240.135 76.44 240.488 76.44 240.841 76.44C241.193 76.44 241.546 76.44 241.899 76.44C242.251 76.44 242.604 76.44 242.957 76.44C243.31 76.44 243.663 76.44 244.015 76.44C244.368 76.44 244.721 76.44 245.074 76.44C245.427 76.44 245.78 76.44 246.133 76.44C246.486 76.44 246.839 76.44 247.192 76.44C247.545 76.44 247.899 76.44 248.252 76.44C248.605 76.44 248.958 76.44 249.311 76.44C249.665 76.44 250.018 76.44 250.371 76.44C250.724 76.44 251.078 76.44 251.431 76.44C251.784 76.44 252.138 76.44 252.491 76.44C252.844 76.44 253.198 76.44 253.551 76.44C253.905 76.44 254.258 76.44 254.612 76.44C254.965 76.44 255.318 76.44 255.672 76.44C256.025 76.44 256.379 76.44 256.732 76.44C257.086 76.44 257.439 76.44 257.793 76.44C258.146 76.44 258.5 76.44 258.853 76.44C259.207 76.44 259.56 76.44 259.914 76.44C260.267 76.44 260.621 76.44 260.974 76.44C261.328 76.44 261.681 76.44 262.035 76.44C262.388 76.44 262.742 76.44 263.096 76.44C263.449 76.44 263.803 76.44 264.156 76.44C264.51 76.44 264.863 76.44 265.216 76.44C265.57 76.44 265.923 76.44 266.277 76.44C266.63 76.44 266.984 76.44 267.337 76.44C267.691 76.44 268.044 76.44 268.397 76.44C268.751 76.44 269.104 76.44 269.458 76.44C269.811 76.44 270.164 76.44 270.518 76.44C270.871 76.44 271.224 76.44 271.577 76.44C271.931 76.44 272.284 76.44 272.637 76.44C272.99 76.44 273.343 76.44 273.697 76.44C274.05 76.44 274.403 76.44 274.756 76.44C275.109 76.44 275.462 76.44 275.815 76.44C276.168 76.44 276.521 76.44 276.874 76.44C277.227 76.44 277.58 76.44 277.933 76.44C278.285 76.44 278.638 76.44 278.991 76.44C279.344 76.44 279.696 76.44 280.049 76.44C280.402 76.44 280.754 76.44 281.107 76.44C281.46 76.44 281.812 76.44 282.165 76.44C282.517 76.44 282.869 76.44 283.222 76.44C283.574 76.44 283.927 76.44 284.279 76.44C284.631 76.44 284.983 76.44 285.335 76.44C285.688 76.44 286.04 76.44 286.392 76.44C286.744 76.44 287.096 76.44 287.448 76.44C287.799 76.44 288.151 76.44 288.503 76.44C288.855 76.44 289.206 76.44 289.558 76.44C289.91 76.44 290.261 76.44 290.613 76.44C290.964 76.44 291.316 76.44 291.667 76.44C292.018 76.44 292.37 76.44 292.721 76.44C293.072 76.44 293.423 76.44 293.774 76.44C294.125 76.44 294.476 76.44 294.827 76.44C295.178 76.44 295.529 76.44 295.879 76.44C296.23 76.44 296.581 76.44 296.931 76.44C297.282 76.44 297.632 76.44 297.982 76.44C298.333 76.44 298.683 76.44 299.033 76.44C299.383 76.44 299.733 76.44 300.083 76.44C300.433 76.44 300.783 76.44 301.133 76.44C301.483 76.44 301.833 76.44 302.182 76.44C302.532 76.44 302.881 76.44 303.231 76.44C303.58 76.44 303.929 76.44 304.278 76.44C304.628 76.44 304.977 76.44 305.326 76.44C305.675 76.44 306.023 76.44 306.372 76.44C306.721 76.44 307.07 76.44 307.418 76.44C307.767 76.44 308.115 76.44 308.463 76.44C308.812 76.44 309.16 76.44 309.508 76.44C309.856 76.44 310.204 76.44 310.552 76.44C310.899 76.44 311.247 76.44 311.595 76.44C311.942 76.44 312.29 76.44 312.637 76.44C312.984 76.44 313.332 76.44 313.679 76.44C314.026 76.44 314.373 76.44 314.719 76.44C315.066 76.44 315.413 76.44 315.759 76.44C316.106 76.44 316.452 76.44 316.799 76.44C317.145 76.44 317.491 76.44 317.837 76.44C318.183 76.44 318.529 76.44 318.875 76.44C319.22 76.44 319.566 76.44 319.911 76.44C320.257 76.44 320.602 76.44 320.947 76.44C321.292 76.44 321.637 76.44 321.982 76.44C322.327 76.44 322.672 76.44 323.016 76.44C323.361 76.44 323.705 76.44 324.05 76.44C324.394 76.44 324.738 76.44 325.082 76.44C325.426 76.44 325.77 76.44 326.113 76.44C326.457 76.44 326.8 76.44 327.144 76.44C327.487 76.44 327.83 76.44 328.173 76.44C328.516 76.44 328.859 76.44 329.201 76.44C329.544 76.44 329.886 76.44 330.229 76.44C330.571 76.44 330.913 76.44 331.255 76.44C331.597 76.44 331.939 76.44 332.28 76.44C332.622 76.44 332.964 76.44 333.305 76.44C333.646 76.44 333.987 76.44 334.328 76.44C334.669 76.44 335.01 76.44 335.35 76.44C335.691 76.44 336.031 76.44 336.371 76.44C336.711 76.44 337.051 76.44 337.391 76.44C337.731 76.44 338.071 76.44 338.41 76.44C338.75 76.44 339.089 76.44 339.428 76.44C339.767 76.44 340.106 76.44 340.444 76.44C340.783 76.44 341.121 76.44 341.46 76.44C341.798 76.44 342.136 76.44 342.474 76.44C342.812 76.44 343.149 76.44 343.487 76.44C343.824 76.44 344.162 76.44 344.499 76.44C344.836 76.44 345.173 76.44 345.509 76.44C345.846 76.44 346.182 76.44 346.519 76.44C346.855 76.44 347.191 76.44 347.527 76.44C347.862 76.44 348.198 76.44 348.533 76.44C348.869 76.44 349.204 76.44 349.539 76.44C349.874 76.44 350.208 76.44 350.543 76.44C350.877 76.44 351.212 76.44 351.546 76.44C351.88 76.44 352.214 76.44 352.547 76.44C352.881 76.44 353.214 76.44 353.547 76.44C353.881 76.44 354.213 76.44 354.546 76.44C354.879 76.44 355.211 76.44 355.544 76.44C355.876 76.44 356.208 76.44 356.54 76.44C356.871 76.44 357.203 76.44 357.534 76.44C357.865 76.44 358.196 76.44 358.527 76.44C358.858 76.44 359.189 76.44 359.519 76.44C359.849 76.44 360.179 76.44 360.509 76.44C360.839 76.44 361.169 76.44 361.498 76.44C361.827 76.44 362.156 76.44 362.485 76.44C362.814 76.44 363.143 76.44 363.471 76.44C363.799 76.44 364.127 76.44 364.455 76.44C364.783 76.44 365.11 76.44 365.438 76.44C365.765 76.44 366.092 76.44 366.419 76.44C366.746 76.44 367.072 76.44 367.398 76.44C367.725 76.44 368.051 76.44 368.376 76.44C368.702 76.44 369.028 76.44 369.353 76.44C369.678 76.44 370.003 76.44 370.328 76.44C370.652 76.44 370.977 76.44 371.301 76.44C371.625 76.44 371.949 76.44 372.272 76.44C372.596 76.44 372.919 76.44 373.242 76.44C373.565 76.44 373.888 76.44 374.21 76.44C374.533 76.44 374.855 76.44 375.177 76.44C375.498 76.44 375.82 76.44 376.141 76.44C376.463 76.44 376.784 76.44 377.104 76.44C377.425 76.44 377.746 76.44 378.066 76.44C378.386 76.44 378.706 76.44 379.025 76.44C379.345 76.44 379.664 76.44 379.983 76.44C380.302 76.44 380.621 76.44 380.939 76.44C381.257 76.44 381.575 76.44 381.893 76.44C382.211 76.44 382.528 76.44 382.845 76.44C383.163 76.44 383.479 76.44 383.796 76.44C384.113 76.44 384.429 76.44 384.745 76.44C385.061 76.44 385.376 76.44 385.691 76.44C386.007 76.44 386.322 76.44 386.636 76.44C386.951 76.44 387.265 76.44 387.579 76.44C387.894 76.44 388.207 76.44 388.521 76.44C388.834 76.44 389.147 76.44 389.46 76.44C389.773 76.44 390.085 76.44 390.397 76.44C390.709 76.44 391.021 76.44 391.332 76.44C391.644 76.44 391.955 76.44 392.266 76.44C392.577 76.44 392.887 76.44 393.197 76.44C393.507 76.44 393.817 76.44 394.127 76.44C394.436 76.44 394.745 76.44 395.054 76.44C395.363 76.44 395.671 76.44 395.979 76.44C396.287 76.44 396.595 76.44 396.903 76.44C397.21 76.44 397.517 76.44 397.824 76.44C398.131 76.44 398.437 76.44 398.743 76.44C399.049 76.44 399.355 76.44 399.66 76.44C399.965 76.44 400.27 76.44 400.575 76.44C400.88 76.44 401.184 76.44 401.488 76.44C401.792 76.44 402.095 76.44 402.398 76.44C402.702 76.44 403.005 76.44 403.307 76.44C403.61 76.44 403.912 76.44 404.213 76.44C404.515 76.44 404.817 76.44 405.118 76.44C405.419 76.44 405.719 76.44 406.02 76.44C406.32 76.44 406.62 76.44 406.919 76.44C407.219 76.44 407.518 76.44 407.817 76.44C408.116 76.44 408.414 76.44 408.712 76.44C409.01 76.44 409.308 76.44 409.605 76.44C409.903 76.44 410.199 76.44 410.496 76.44C410.793 76.44 411.089 76.44 411.384 76.44C411.68 76.44 411.976 76.44 412.271 76.44C412.566 76.44 412.86 76.44 413.154 76.44C413.449 76.44 413.743 76.44 414.036 76.44C414.329 76.44 414.622 76.44 414.915 76.44C415.208 76.44 415.5 76.44 415.792 76.44C416.084 76.44 416.375 76.44 416.666 76.44C416.957 76.44 417.248 76.44 417.538 76.44C417.829 76.44 418.118 76.44 418.408 76.44C418.697 76.44 418.986 76.44 419.275 76.44C419.564 76.44 419.852 76.44 420.14 76.44C420.428 76.44 420.715 76.44 421.002 76.44C421.289 76.44 421.576 76.44 421.862 76.44C422.148 76.44 422.434 76.44 422.719 76.44C423.004 76.44 423.289 76.44 423.574 76.44C423.858 76.44 424.143 76.44 424.426 76.44C424.71 76.44 424.993 76.44 425.276 76.44C425.559 76.44 425.841 76.44 426.123 76.44C426.405 76.44 426.687 76.44 426.968 76.44C427.249 76.44 427.529 76.44 427.81 76.44C428.09 76.44 428.37 76.44 428.649 76.44C428.928 76.44 429.207 76.44 429.486 76.44C429.764 76.44 430.042 76.44 430.32 76.44C430.598 76.44 430.875 76.44 431.152 76.44C431.428 76.44 431.705 76.44 431.981 76.44C432.256 76.44 432.532 76.44 432.807 76.44C433.082 76.44 433.356 76.44 433.63 76.44C433.904 76.44 434.178 76.44 434.451 76.44C434.724 76.44 434.997 76.44 435.269 76.44C435.541 76.44 435.813 76.44 436.084 76.44C436.356 76.44 436.627 76.44 436.897 76.44C437.167 76.44 437.437 76.44 437.707 76.44C437.976 76.44 438.245 76.44 438.514 76.44C438.782 76.44 439.051 76.44 439.318 76.44V71.44C439.051 71.44 438.782 71.44 438.514 71.44C438.245 71.44 437.976 71.44 437.707 71.44C437.437 71.44 437.167 71.44 436.897 71.44C436.627 71.44 436.356 71.44 436.084 71.44C435.813 71.44 435.541 71.44 435.269 71.44C434.997 71.44 434.724 71.44 434.451 71.44C434.178 71.44 433.904 71.44 433.63 71.44C433.356 71.44 433.082 71.44 432.807 71.44C432.532 71.44 432.256 71.44 431.981 71.44C431.705 71.44 431.428 71.44 431.152 71.44C430.875 71.44 430.598 71.44 430.32 71.44C430.042 71.44 429.764 71.44 429.486 71.44C429.207 71.44 428.928 71.44 428.649 71.44C428.37 71.44 428.09 71.44 427.81 71.44C427.529 71.44 427.249 71.44 426.968 71.44C426.687 71.44 426.405 71.44 426.123 71.44C425.841 71.44 425.559 71.44 425.276 71.44C424.993 71.44 424.71 71.44 424.426 71.44C424.143 71.44 423.858 71.44 423.574 71.44C423.289 71.44 423.004 71.44 422.719 71.44C422.434 71.44 422.148 71.44 421.862 71.44C421.576 71.44 421.289 71.44 421.002 71.44C420.715 71.44 420.428 71.44 420.14 71.44C419.852 71.44 419.564 71.44 419.275 71.44C418.986 71.44 418.697 71.44 418.408 71.44C418.118 71.44 417.829 71.44 417.538 71.44C417.248 71.44 416.957 71.44 416.666 71.44C416.375 71.44 416.084 71.44 415.792 71.44C415.5 71.44 415.208 71.44 414.915 71.44C414.622 71.44 414.329 71.44 414.036 71.44C413.743 71.44 413.449 71.44 413.154 71.44C412.86 71.44 412.566 71.44 412.271 71.44C411.976 71.44 411.68 71.44 411.384 71.44C411.089 71.44 410.793 71.44 410.496 71.44C410.199 71.44 409.903 71.44 409.605 71.44C409.308 71.44 409.01 71.44 408.712 71.44C408.414 71.44 408.116 71.44 407.817 71.44C407.518 71.44 407.219 71.44 406.919 71.44C406.62 71.44 406.32 71.44 406.02 71.44C405.719 71.44 405.419 71.44 405.118 71.44C404.817 71.44 404.515 71.44 404.213 71.44C403.912 71.44 403.61 71.44 403.307 71.44C403.005 71.44 402.702 71.44 402.398 71.44C402.095 71.44 401.792 71.44 401.488 71.44C401.184 71.44 400.88 71.44 400.575 71.44C400.27 71.44 399.965 71.44 399.66 71.44C399.355 71.44 399.049 71.44 398.743 71.44C398.437 71.44 398.131 71.44 397.824 71.44C397.517 71.44 397.21 71.44 396.903 71.44C396.595 71.44 396.287 71.44 395.979 71.44C395.671 71.44 395.363 71.44 395.054 71.44C394.745 71.44 394.436 71.44 394.127 71.44C393.817 71.44 393.507 71.44 393.197 71.44C392.887 71.44 392.577 71.44 392.266 71.44C391.955 71.44 391.644 71.44 391.332 71.44C391.021 71.44 390.709 71.44 390.397 71.44C390.085 71.44 389.773 71.44 389.46 71.44C389.147 71.44 388.834 71.44 388.521 71.44C388.207 71.44 387.894 71.44 387.579 71.44C387.265 71.44 386.951 71.44 386.636 71.44C386.322 71.44 386.007 71.44 385.691 71.44C385.376 71.44 385.061 71.44 384.745 71.44C384.429 71.44 384.113 71.44 383.796 71.44C383.479 71.44 383.163 71.44 382.845 71.44C382.528 71.44 382.211 71.44 381.893 71.44C381.575 71.44 381.257 71.44 380.939 71.44C380.621 71.44 380.302 71.44 379.983 71.44C379.664 71.44 379.345 71.44 379.025 71.44C378.706 71.44 378.386 71.44 378.066 71.44C377.746 71.44 377.425 71.44 377.104 71.44C376.784 71.44 376.463 71.44 376.141 71.44C375.82 71.44 375.498 71.44 375.177 71.44C374.855 71.44 374.533 71.44 374.21 71.44C373.888 71.44 373.565 71.44 373.242 71.44C372.919 71.44 372.596 71.44 372.272 71.44C371.949 71.44 371.625 71.44 371.301 71.44C370.977 71.44 370.652 71.44 370.328 71.44C370.003 71.44 369.678 71.44 369.353 71.44C369.028 71.44 368.702 71.44 368.376 71.44C368.051 71.44 367.725 71.44 367.398 71.44C367.072 71.44 366.746 71.44 366.419 71.44C366.092 71.44 365.765 71.44 365.438 71.44C365.11 71.44 364.783 71.44 364.455 71.44C364.127 71.44 363.799 71.44 363.471 71.44C363.143 71.44 362.814 71.44 362.485 71.44C362.156 71.44 361.827 71.44 361.498 71.44C361.169 71.44 360.839 71.44 360.509 71.44C360.179 71.44 359.849 71.44 359.519 71.44C359.189 71.44 358.858 71.44 358.527 71.44C358.196 71.44 357.865 71.44 357.534 71.44C357.203 71.44 356.871 71.44 356.54 71.44C356.208 71.44 355.876 71.44 355.544 71.44C355.211 71.44 354.879 71.44 354.546 71.44C354.213 71.44 353.881 71.44 353.547 71.44C353.214 71.44 352.881 71.44 352.547 71.44C352.214 71.44 351.88 71.44 351.546 71.44C351.212 71.44 350.877 71.44 350.543 71.44C350.208 71.44 349.874 71.44 349.539 71.44C349.204 71.44 348.869 71.44 348.533 71.44C348.198 71.44 347.862 71.44 347.527 71.44C347.191 71.44 346.855 71.44 346.519 71.44C346.182 71.44 345.846 71.44 345.509 71.44C345.173 71.44 344.836 71.44 344.499 71.44C344.162 71.44 343.824 71.44 343.487 71.44C343.149 71.44 342.812 71.44 342.474 71.44C342.136 71.44 341.798 71.44 341.46 71.44C341.121 71.44 340.783 71.44 340.444 71.44C340.106 71.44 339.767 71.44 339.428 71.44C339.089 71.44 338.75 71.44 338.41 71.44C338.071 71.44 337.731 71.44 337.391 71.44C337.051 71.44 336.711 71.44 336.371 71.44C336.031 71.44 335.691 71.44 335.35 71.44C335.01 71.44 334.669 71.44 334.328 71.44C333.987 71.44 333.646 71.44 333.305 71.44C332.964 71.44 332.622 71.44 332.28 71.44C331.939 71.44 331.597 71.44 331.255 71.44C330.913 71.44 330.571 71.44 330.229 71.44C329.886 71.44 329.544 71.44 329.201 71.44C328.859 71.44 328.516 71.44 328.173 71.44C327.83 71.44 327.487 71.44 327.144 71.44C326.8 71.44 326.457 71.44 326.113 71.44C325.77 71.44 325.426 71.44 325.082 71.44C324.738 71.44 324.394 71.44 324.05 71.44C323.705 71.44 323.361 71.44 323.016 71.44C322.672 71.44 322.327 71.44 321.982 71.44C321.637 71.44 321.292 71.44 320.947 71.44C320.602 71.44 320.257 71.44 319.911 71.44C319.566 71.44 319.22 71.44 318.875 71.44C318.529 71.44 318.183 71.44 317.837 71.44C317.491 71.44 317.145 71.44 316.799 71.44C316.452 71.44 316.106 71.44 315.759 71.44C315.413 71.44 315.066 71.44 314.719 71.44C314.373 71.44 314.026 71.44 313.679 71.44C313.332 71.44 312.984 71.44 312.637 71.44C312.29 71.44 311.942 71.44 311.595 71.44C311.247 71.44 310.899 71.44 310.552 71.44C310.204 71.44 309.856 71.44 309.508 71.44C309.16 71.44 308.812 71.44 308.463 71.44C308.115 71.44 307.767 71.44 307.418 71.44C307.07 71.44 306.721 71.44 306.372 71.44C306.023 71.44 305.675 71.44 305.326 71.44C304.977 71.44 304.628 71.44 304.278 71.44C303.929 71.44 303.58 71.44 303.231 71.44C302.881 71.44 302.532 71.44 302.182 71.44C301.833 71.44 301.483 71.44 301.133 71.44C300.783 71.44 300.433 71.44 300.083 71.44C299.733 71.44 299.383 71.44 299.033 71.44C298.683 71.44 298.333 71.44 297.982 71.44C297.632 71.44 297.282 71.44 296.931 71.44C296.581 71.44 296.23 71.44 295.879 71.44C295.529 71.44 295.178 71.44 294.827 71.44C294.476 71.44 294.125 71.44 293.774 71.44C293.423 71.44 293.072 71.44 292.721 71.44C292.37 71.44 292.018 71.44 291.667 71.44C291.316 71.44 290.964 71.44 290.613 71.44C290.261 71.44 289.91 71.44 289.558 71.44C289.206 71.44 288.855 71.44 288.503 71.44C288.151 71.44 287.799 71.44 287.448 71.44C287.096 71.44 286.744 71.44 286.392 71.44C286.04 71.44 285.688 71.44 285.335 71.44C284.983 71.44 284.631 71.44 284.279 71.44C283.927 71.44 283.574 71.44 283.222 71.44C282.869 71.44 282.517 71.44 282.165 71.44C281.812 71.44 281.46 71.44 281.107 71.44C280.754 71.44 280.402 71.44 280.049 71.44C279.696 71.44 279.344 71.44 278.991 71.44C278.638 71.44 278.285 71.44 277.933 71.44C277.58 71.44 277.227 71.44 276.874 71.44C276.521 71.44 276.168 71.44 275.815 71.44C275.462 71.44 275.109 71.44 274.756 71.44C274.403 71.44 274.05 71.44 273.697 71.44C273.343 71.44 272.99 71.44 272.637 71.44C272.284 71.44 271.931 71.44 271.577 71.44C271.224 71.44 270.871 71.44 270.518 71.44C270.164 71.44 269.811 71.44 269.458 71.44C269.104 71.44 268.751 71.44 268.397 71.44C268.044 71.44 267.691 71.44 267.337 71.44C266.984 71.44 266.63 71.44 266.277 71.44C265.923 71.44 265.57 71.44 265.216 71.44C264.863 71.44 264.51 71.44 264.156 71.44C263.803 71.44 263.449 71.44 263.096 71.44C262.742 71.44 262.388 71.44 262.035 71.44C261.681 71.44 261.328 71.44 260.974 71.44C260.621 71.44 260.267 71.44 259.914 71.44C259.56 71.44 259.207 71.44 258.853 71.44C258.5 71.44 258.146 71.44 257.793 71.44C257.439 71.44 257.086 71.44 256.732 71.44C256.379 71.44 256.025 71.44 255.672 71.44C255.318 71.44 254.965 71.44 254.612 71.44C254.258 71.44 253.905 71.44 253.551 71.44C253.198 71.44 252.844 71.44 252.491 71.44C252.138 71.44 251.784 71.44 251.431 71.44C251.078 71.44 250.724 71.44 250.371 71.44C250.018 71.44 249.665 71.44 249.311 71.44C248.958 71.44 248.605 71.44 248.252 71.44C247.899 71.44 247.545 71.44 247.192 71.44C246.839 71.44 246.486 71.44 246.133 71.44C245.78 71.44 245.427 71.44 245.074 71.44C244.721 71.44 244.368 71.44 244.015 71.44C243.663 71.44 243.31 71.44 242.957 71.44C242.604 71.44 242.251 71.44 241.899 71.44C241.546 71.44 241.193 71.44 240.841 71.44C240.488 71.44 240.135 71.44 239.783 71.44C239.43 71.44 239.078 71.44 238.725 71.44C238.373 71.44 238.021 71.44 237.668 71.44C237.316 71.44 236.964 71.44 236.612 71.44C236.259 71.44 235.907 71.44 235.555 71.44C235.203 71.44 234.851 71.44 234.499 71.44C234.147 71.44 233.795 71.44 233.444 71.44C233.092 71.44 232.74 71.44 232.388 71.44C232.037 71.44 231.685 71.44 231.333 71.44C230.982 71.44 230.63 71.44 230.279 71.44C229.928 71.44 229.576 71.44 229.225 71.44C228.874 71.44 228.523 71.44 228.171 71.44C227.82 71.44 227.469 71.44 227.118 71.44C226.767 71.44 226.417 71.44 226.066 71.44C225.715 71.44 225.364 71.44 225.014 71.44C224.663 71.44 224.313 71.44 223.962 71.44C223.612 71.44 223.262 71.44 222.911 71.44C222.561 71.44 222.211 71.44 221.861 71.44C221.511 71.44 221.161 71.44 220.811 71.44C220.461 71.44 220.111 71.44 219.762 71.44C219.412 71.44 219.062 71.44 218.713 71.44C218.363 71.44 218.014 71.44 217.665 71.44C217.315 71.44 216.966 71.44 216.617 71.44C216.268 71.44 215.919 71.44 215.57 71.44C215.222 71.44 214.873 71.44 214.524 71.44C214.176 71.44 213.827 71.44 213.479 71.44C213.13 71.44 212.782 71.44 212.434 71.44C212.086 71.44 211.738 71.44 211.39 71.44C211.042 71.44 210.694 71.44 210.346 71.44C209.999 71.44 209.651 71.44 209.304 71.44C208.956 71.44 208.609 71.44 208.262 71.44C207.915 71.44 207.568 71.44 207.221 71.44C206.874 71.44 206.527 71.44 206.18 71.44C205.834 71.44 205.487 71.44 205.141 71.44C204.794 71.44 204.448 71.44 204.102 71.44C203.756 71.44 203.41 71.44 203.064 71.44C202.718 71.44 202.372 71.44 202.027 71.44C201.681 71.44 201.336 71.44 200.991 71.44C195.41 71.44 190.036 71.44 184.54 71.44C184.2 71.44 183.86 71.44 183.52 71.44C183.181 71.44 182.841 71.44 182.502 71.44C182.163 71.44 181.824 71.44 181.485 71.44C181.146 71.44 180.808 71.44 180.469 71.44C180.131 71.44 179.793 71.44 179.454 71.44C179.116 71.44 178.779 71.44 178.441 71.44C178.103 71.44 177.766 71.44 177.429 71.44C177.091 71.44 176.754 71.44 176.418 71.44C176.081 71.44 175.744 71.44 175.408 71.44C175.071 71.44 174.735 71.44 174.399 71.44C174.063 71.44 173.727 71.44 173.392 71.44C173.056 71.44 172.721 71.44 172.386 71.44C172.051 71.44 171.716 71.44 171.381 71.44C171.046 71.44 170.712 71.44 170.378 71.44C170.043 71.44 169.709 71.44 169.376 71.44C169.042 71.44 168.708 71.44 168.375 71.44C168.041 71.44 167.708 71.44 167.375 71.44C167.043 71.44 166.71 71.44 166.377 71.44C166.045 71.44 165.713 71.44 165.381 71.44C165.049 71.44 164.717 71.44 164.386 71.44C164.054 71.44 163.723 71.44 163.392 71.44C163.061 71.44 162.73 71.44 162.4 71.44C162.069 71.44 161.739 71.44 161.409 71.44C161.079 71.44 160.749 71.44 160.419 71.44C160.09 71.44 159.76 71.44 159.431 71.44C159.102 71.44 158.774 71.44 158.445 71.44C158.116 71.44 157.788 71.44 157.46 71.44C157.132 71.44 156.804 71.44 156.477 71.44C156.149 71.44 155.822 71.44 155.495 71.44C155.168 71.44 154.841 71.44 154.515 71.44C154.188 71.44 153.862 71.44 153.536 71.44C153.21 71.44 152.884 71.44 152.559 71.44C152.234 71.44 151.908 71.44 151.583 71.44C151.259 71.44 150.934 71.44 150.61 71.44C150.285 71.44 149.961 71.44 149.637 71.44C149.314 71.44 148.99 71.44 148.667 71.44C148.344 71.44 148.021 71.44 147.698 71.44C147.375 71.44 147.053 71.44 146.731 71.44C146.409 71.44 146.087 71.44 145.765 71.44C145.444 71.44 145.123 71.44 144.802 71.44C144.481 71.44 144.16 71.44 143.84 71.44C143.519 71.44 143.199 71.44 142.879 71.44C142.559 71.44 142.24 71.44 141.921 71.44C141.601 71.44 141.283 71.44 140.964 71.44C140.645 71.44 140.327 71.44 140.009 71.44C139.691 71.44 139.373 71.44 139.056 71.44C138.738 71.44 138.421 71.44 138.104 71.44C137.788 71.44 137.471 71.44 137.155 71.44C136.839 71.44 136.523 71.44 136.207 71.44C135.892 71.44 135.577 71.44 135.262 71.44C134.947 71.44 134.632 71.44 134.318 71.44C134.003 71.44 133.689 71.44 133.376 71.44C133.062 71.44 132.749 71.44 132.436 71.44C132.123 71.44 131.81 71.44 131.497 71.44C131.185 71.44 130.873 71.44 130.561 71.44C130.25 71.44 129.938 71.44 129.627 71.44C129.316 71.44 129.005 71.44 128.695 71.44C128.384 71.44 128.074 71.44 127.765 71.44C127.455 71.44 127.145 71.44 126.836 71.44C126.527 71.44 126.219 71.44 125.91 71.44C125.602 71.44 125.294 71.44 124.986 71.44C124.678 71.44 124.371 71.44 124.064 71.44C123.757 71.44 123.45 71.44 123.144 71.44C122.837 71.44 122.531 71.44 122.226 71.44C121.92 71.44 121.615 71.44 121.31 71.44C121.005 71.44 120.7 71.44 120.396 71.44C120.092 71.44 119.788 71.44 119.484 71.44C119.181 71.44 118.878 71.44 118.575 71.44C118.272 71.44 117.97 71.44 117.668 71.44C117.366 71.44 117.064 71.44 116.763 71.44C116.461 71.44 116.16 71.44 115.86 71.44C115.559 71.44 115.259 71.44 114.959 71.44C114.659 71.44 114.359 71.44 114.06 71.44C113.761 71.44 113.462 71.44 113.164 71.44C112.866 71.44 112.568 71.44 112.27 71.44C111.972 71.44 111.675 71.44 111.378 71.44C111.081 71.44 110.785 71.44 110.489 71.44C110.193 71.44 109.897 71.44 109.602 71.44C109.306 71.44 109.011 71.44 108.717 71.44C108.422 71.44 108.128 71.44 107.834 71.44C107.54 71.44 107.247 71.44 106.954 71.44C106.661 71.44 106.368 71.44 106.076 71.44C105.784 71.44 105.492 71.44 105.201 71.44C104.909 71.44 104.618 71.44 104.328 71.44C104.037 71.44 103.747 71.44 103.457 71.44C103.167 71.44 102.878 71.44 102.589 71.44C102.3 71.44 102.011 71.44 101.723 71.44C101.435 71.44 101.147 71.44 100.86 71.44C100.572 71.44 100.285 71.44 99.9988 71.44C99.7123 71.44 99.4261 71.44 99.1404 71.44C98.8547 71.44 98.5694 71.44 98.2846 71.44C97.9997 71.44 97.7152 71.44 97.4312 71.44C97.1472 71.44 96.8635 71.44 96.5803 71.44C96.2972 71.44 96.0144 71.44 95.7321 71.44C95.4497 71.44 95.1678 71.44 94.8863 71.44C94.6048 71.44 94.3238 71.44 94.0432 71.44C93.7626 71.44 93.4824 71.44 93.2026 71.44C92.9229 71.44 92.6435 71.44 92.3647 71.44C92.0858 71.44 91.8073 71.44 91.5293 71.44C91.2513 71.44 90.9738 71.44 90.6966 71.44C90.4195 71.44 90.1428 71.44 89.8666 71.44C89.5903 71.44 89.3146 71.44 89.0392 71.44C88.7639 71.44 88.489 71.44 88.2145 71.44C87.9401 71.44 87.6661 71.44 87.3925 71.44C87.119 71.44 86.8459 71.44 86.5733 71.44C86.3006 71.44 86.0284 71.44 85.7567 71.44C85.485 71.44 85.2137 71.44 84.9429 71.44C84.6721 71.44 84.4017 71.44 84.1319 71.44C83.862 71.44 83.5926 71.44 83.3236 71.44C83.0546 71.44 82.7861 71.44 82.5181 71.44C82.2501 71.44 81.9825 71.44 81.7155 71.44C81.4484 71.44 81.1818 71.44 80.9156 71.44C80.6495 71.44 80.3838 71.44 80.1186 71.44C79.8534 71.44 79.5887 71.44 79.3244 71.44C79.0602 71.44 78.7964 71.44 78.5332 71.44C78.2699 71.44 78.0071 71.44 77.7448 71.44C77.4824 71.44 77.2206 71.44 76.9592 71.44C76.6979 71.44 76.437 71.44 76.1767 71.44C75.9163 71.44 75.6564 71.44 75.397 71.44C75.1376 71.44 74.8787 71.44 74.6203 71.44C74.3619 71.44 74.1039 71.44 73.8465 71.44C73.5891 71.44 73.3322 71.44 73.0757 71.44C72.8193 71.44 72.5634 71.44 72.3079 71.44C72.0525 71.44 71.7976 71.44 71.5432 71.44C71.2887 71.44 71.0348 71.44 70.7814 71.44C70.528 71.44 70.2751 71.44 70.0227 71.44C69.7703 71.44 69.5184 71.44 69.267 71.44C69.0156 71.44 68.7647 71.44 68.5144 71.44C68.264 71.44 68.0142 71.44 67.7649 71.44C67.5155 71.44 67.2667 71.44 67.0184 71.44C66.7701 71.44 66.5224 71.44 66.2751 71.44C66.0279 71.44 65.7811 71.44 65.5349 71.44C65.2887 71.44 65.0431 71.44 64.7979 71.44C64.5528 71.44 64.3081 71.44 64.064 71.44C63.8199 71.44 63.5764 71.44 63.3333 71.44C63.0903 71.44 62.8478 71.44 62.6058 71.44C62.3638 71.44 62.1224 71.44 61.8815 71.44C61.6406 71.44 61.4002 71.44 61.1604 71.44C60.9206 71.44 60.6813 71.44 60.4426 71.44C60.2038 71.44 59.9656 71.44 59.728 71.44C59.4903 71.44 59.2532 71.44 59.0166 71.44C58.7801 71.44 58.5441 71.44 58.3086 71.44C58.0731 71.44 57.8382 71.44 57.6038 71.44C57.3695 71.44 57.1357 71.44 56.9024 71.44C56.6691 71.44 56.4364 71.44 56.2043 71.44C55.9721 71.44 55.7406 71.44 55.5095 71.44C55.2785 71.44 55.048 71.44 54.8181 71.44C54.5882 71.44 54.3589 71.44 54.1301 71.44C53.9013 71.44 53.6731 71.44 53.4454 71.44C53.2178 71.44 52.9907 71.44 52.7642 71.44C52.5377 71.44 52.3118 71.44 52.0864 71.44C51.861 71.44 51.6362 71.44 51.412 71.44C51.1878 71.44 50.9642 71.44 50.7411 71.44C50.518 71.44 50.2955 71.44 50.0736 71.44C49.8517 71.44 49.6304 71.44 49.4097 71.44C49.1889 71.44 48.9687 71.44 48.7492 71.44C48.5296 71.44 48.3106 71.44 48.0922 71.44C47.8738 71.44 47.656 71.44 47.4388 71.44C47.2215 71.44 47.0049 71.44 46.7889 71.44C46.5728 71.44 46.3574 71.44 46.1425 71.44C45.9277 71.44 45.7134 71.44 45.4998 71.44C45.2861 71.44 45.0731 71.44 44.8606 71.44C44.6481 71.44 44.4363 71.44 44.225 71.44C44.0138 71.44 43.8031 71.44 43.5931 71.44C43.383 71.44 43.1736 71.44 42.9648 71.44C42.7559 71.44 42.5477 71.44 42.3401 71.44C42.1325 71.44 41.9255 71.44 41.7191 71.44C41.5127 71.44 41.307 71.44 41.1018 71.44C40.8966 71.44 40.6921 71.44 40.4882 71.44C40.2843 71.44 40.081 71.44 39.8783 71.44C39.6756 71.44 39.4735 71.44 39.2721 71.44C39.0707 71.44 38.8699 71.44 38.6697 71.44C38.4695 71.44 38.2699 71.44 38.071 71.44C37.8721 71.44 37.6738 71.44 37.4761 71.44C37.2784 71.44 37.0814 71.44 36.885 71.44C36.6886 71.44 36.4928 71.44 36.2977 71.44C36.1026 71.44 35.9081 71.44 35.7142 71.44C35.5203 71.44 35.3271 71.44 35.1346 71.44C34.942 71.44 34.75 71.44 34.5588 71.44C34.3675 71.44 34.1768 71.44 33.9868 71.44C33.7968 71.44 33.6075 71.44 33.4188 71.44C33.2301 71.44 33.042 71.44 32.8546 71.44C32.6672 71.44 32.4805 71.44 32.2944 71.44C32.1083 71.44 31.9228 71.44 31.7381 71.44C31.5533 71.44 31.3691 71.44 31.1857 71.44C31.0022 71.44 30.8194 71.44 30.6373 71.44C30.4551 71.44 30.2736 71.44 30.0928 71.44C29.912 71.44 29.7319 71.44 29.5524 71.44C29.3729 71.44 29.1941 71.44 29.0159 71.44C28.8378 71.44 28.6603 71.44 28.4835 71.44C28.3067 71.44 28.1306 71.44 27.9551 71.44C27.7796 71.44 27.6049 71.44 27.4308 71.44C27.2567 71.44 27.0832 71.44 26.9105 71.44C26.7377 71.44 26.5657 71.44 26.3943 71.44C26.2229 71.44 26.0522 71.44 25.8822 71.44C25.7122 71.44 25.5428 71.44 25.3742 71.44C25.2055 71.44 25.0376 71.44 24.8703 71.44C24.7031 71.44 24.5365 71.44 24.3706 71.44C24.2047 71.44 24.0395 71.44 23.875 71.44C23.7106 71.44 23.5468 71.44 23.3837 71.44C23.2206 71.44 23.0582 71.44 22.8965 71.44C22.7348 71.44 22.5738 71.44 22.4135 71.44C22.2532 71.44 22.0936 71.44 21.9347 71.44C21.7758 71.44 21.6176 71.44 21.4601 71.44C21.3027 71.44 21.1459 71.44 20.9899 71.44C20.8338 71.44 20.6785 71.44 20.5238 71.44C20.3692 71.44 20.2153 71.44 20.0621 71.44C19.9089 71.44 19.7564 71.44 19.6046 71.44C19.4529 71.44 19.3018 71.44 19.1515 71.44C19.0012 71.44 18.8516 71.44 18.7027 71.44C18.5538 71.44 18.4056 71.44 18.2582 71.44C18.1108 71.44 17.9641 71.44 17.8181 71.44C17.6721 71.44 17.5269 71.44 17.3824 71.44C17.2378 71.44 17.094 71.44 16.951 71.44C16.8079 71.44 16.6656 71.44 16.524 71.44C16.3825 71.44 16.2416 71.44 16.1015 71.44C15.9614 71.44 15.822 71.44 15.6834 71.44C15.5448 71.44 15.4069 71.44 15.2698 71.44C15.1326 71.44 14.9962 71.44 14.8606 71.44C14.7249 71.44 14.59 71.44 14.4559 71.44C14.3217 71.44 14.1883 71.44 14.0557 71.44C13.923 71.44 13.7911 71.44 13.66 71.44C13.5288 71.44 13.3985 71.44 13.2688 71.44C13.1392 71.44 13.0103 71.44 12.8822 71.44C12.7541 71.44 12.6267 71.44 12.5001 71.44C12.3735 71.44 12.2477 71.44 12.1226 71.44C11.9976 71.44 11.8733 71.44 11.7497 71.44C11.6262 71.44 11.5034 71.44 11.3814 71.44C11.2594 71.44 11.1382 71.44 11.0177 71.44C10.8973 71.44 10.7776 71.44 10.6587 71.44C10.5398 71.44 10.4216 71.44 10.3043 71.44C10.1869 71.44 10.0703 71.44 9.95452 71.44C9.83872 71.44 9.7237 71.44 9.60946 71.44C9.49522 71.44 9.38177 71.44 9.26909 71.44C9.15642 71.44 9.04454 71.44 8.93344 71.44C8.82234 71.44 8.71203 71.44 8.60251 71.44C8.49299 71.44 8.38426 71.44 8.27632 71.44C8.16838 71.44 8.06124 71.44 7.95489 71.44C7.84854 71.44 7.74299 71.44 7.63823 71.44C7.53347 71.44 7.42951 71.44 7.32636 71.44C7.2232 71.44 7.12084 71.44 7.01929 71.44C6.91773 71.44 6.81698 71.44 6.71703 71.44C6.61709 71.44 6.51795 71.44 6.41962 71.44C6.32128 71.44 6.22376 71.44 6.12705 71.44C6.03033 71.44 5.93443 71.44 5.83934 71.44C5.74425 71.44 5.64997 71.44 5.55651 71.44C5.46305 71.44 5.37041 71.44 5.27858 71.44C5.18676 71.44 5.09575 71.44 5.00556 71.44C4.91537 71.44 4.82601 71.44 4.73747 71.44C4.64892 71.44 4.5612 71.44 4.47431 71.44C4.38742 71.44 4.30135 71.44 4.21611 71.44C4.13087 71.44 4.04646 71.44 3.96289 71.44C3.87931 71.44 3.79656 71.44 3.71465 71.44C3.63273 71.44 3.55165 71.44 3.47141 71.44C3.39116 71.44 3.31176 71.44 3.23319 71.44C3.15462 71.44 3.07689 71.44 3 71.44V76.44ZM449.814 86.94V209.253H454.814V86.94H449.814ZM439.314 219.753H16.0011V224.753H439.314V219.753ZM0.501099 235.253V348.141H5.5011V235.253H0.501099ZM16.0011 363.641H452.314V358.641H16.0011V363.641ZM0.501099 348.141C0.501099 356.701 7.44068 363.641 16.0011 363.641V358.641C10.2021 358.641 5.5011 353.94 5.5011 348.141H0.501099ZM16.0011 219.753C7.44069 219.753 0.501099 226.692 0.501099 235.253H5.5011C5.5011 229.454 10.2021 224.753 16.0011 224.753V219.753ZM449.814 209.253C449.814 215.052 445.113 219.753 439.314 219.753V224.753C447.875 224.753 454.814 217.813 454.814 209.253H449.814ZM439.318 76.44C445.116 76.44 449.814 81.1401 449.814 86.94H454.814C454.814 78.3805 447.88 71.44 439.318 71.44V76.44Z" fill="url(#paint0_linear)"/>
<circle cx="106.692" cy="73.6918" r="4.19183" fill="#F6F6F6" stroke="#22282D"/>
<circle cx="106.692" cy="361.692" r="4.19183" fill="#F6F6F6" stroke="#22282D"/>
<circle cx="235.692" cy="73.6918" r="4.19183" fill="#F6F6F6" stroke="#22282D"/>
<circle cx="235.692" cy="361.692" r="4.19183" fill="#F6F6F6" stroke="#22282D"/>
<circle cx="367.692" cy="73.6918" r="4.19183" fill="#F6F6F6" stroke="#22282D"/>
<circle cx="367.692" cy="360.692" r="4.19183" fill="#F6F6F6" stroke="#22282D"/>
<circle cx="301.692" cy="221.692" r="4.19183" fill="#F6F6F6" stroke="#22282D"/>
<circle cx="170.692" cy="221.692" r="4.19183" fill="#F6F6F6" stroke="#22282D"/>
<path d="M379.073 11.646C379.073 18.0336 374.4 22.2919 368.634 22.2919C363.948 22.2919 360.166 19.8061 358.846 15.9044" stroke="#22282D" stroke-width="2" stroke-linecap="square" stroke-linejoin="round"/>
<path d="M357.781 11.6459C357.781 5.25837 362.455 1 368.221 1C372.908 1 376.688 3.48583 378.009 7.38756" stroke="#22282D" stroke-width="2" stroke-linecap="square" stroke-linejoin="round"/>
<path d="M360.936 15.2986L357.818 14.4811L357 17.5998" stroke="#22282D" stroke-width="2" stroke-linecap="square" stroke-linejoin="round"/>
<path d="M375.211 6.83429L378.237 7.94774L379.351 4.92196" stroke="#22282D" stroke-width="2" stroke-linecap="square" stroke-linejoin="round"/>
<path d="M365.988 14.3819L366.623 13.5867L364.578 11.9481L366.623 10.3095L365.988 9.51441L363.447 11.5506C363.387 11.5983 363.339 11.6588 363.306 11.7276C363.273 11.7964 363.256 11.8718 363.256 11.9481C363.256 12.0245 363.273 12.0999 363.306 12.1687C363.339 12.2375 363.387 12.298 363.447 12.3457L365.988 14.3819ZM370.689 9.51441L370.054 10.3095L372.099 11.9481L370.054 13.5867L370.689 14.3819L373.231 12.3457C373.29 12.298 373.338 12.2375 373.371 12.1687C373.404 12.0999 373.421 12.0245 373.421 11.9481C373.421 11.8718 373.404 11.7964 373.371 11.7276C373.338 11.6588 373.29 11.5983 373.231 11.5506L370.689 9.51441ZM369.851 7.47672L367.818 16.6395L366.826 16.4185L368.859 7.2558L369.851 7.47672Z" fill="#EFD168"/>
<path d="M184.933 151.083C184.933 152.431 184.356 153.724 183.33 154.677C182.303 155.63 180.911 156.166 179.459 156.166C178.007 156.166 176.615 155.63 175.589 154.677C174.562 153.724 173.985 152.431 173.985 151.083C173.985 149.735 174.562 148.442 175.589 147.489C176.615 146.536 178.007 146 179.459 146C180.911 146 182.303 146.536 183.33 147.489C184.356 148.442 184.933 149.735 184.933 151.083ZM182.217 149.158C182.168 149.112 182.11 149.077 182.045 149.053C181.981 149.029 181.913 149.018 181.844 149.019C181.775 149.02 181.707 149.034 181.644 149.061C181.581 149.087 181.524 149.125 181.478 149.172L179.101 151.983L177.669 150.653C177.572 150.569 177.443 150.523 177.31 150.525C177.177 150.527 177.051 150.577 176.957 150.664C176.862 150.752 176.809 150.869 176.806 150.993C176.804 151.116 176.853 151.236 176.944 151.326L178.754 153.008C178.803 153.053 178.861 153.089 178.925 153.113C178.989 153.137 179.058 153.148 179.126 153.147C179.195 153.146 179.263 153.132 179.326 153.106C179.389 153.08 179.446 153.042 179.493 152.995L182.224 149.825C182.317 149.735 182.369 149.615 182.367 149.49C182.366 149.365 182.312 149.246 182.217 149.158H182.217Z" fill="#EFD168"/>
<path d="M181.029 156.894C180.049 157.259 178.988 157.363 177.954 157.197C176.919 157.031 175.947 156.6 175.133 155.947C174.32 155.294 173.694 154.442 173.317 153.475C172.94 152.508 172.826 151.46 172.986 150.437C170.245 149.645 167.32 149.748 164.644 150.731C161.968 151.714 159.684 153.525 158.132 155.894C156.58 158.263 155.842 161.063 156.028 163.88C156.215 166.696 157.315 169.378 159.166 171.527L159.408 171.805H179.195L179.437 171.527C181.152 169.532 182.222 167.074 182.509 164.471C182.796 161.867 182.286 159.239 181.045 156.926L181.029 156.894ZM168.497 151.558H169.301C169.599 151.558 169.865 151.558 170.106 151.598V154.381H168.497V151.558ZM160.453 163.98H157.686C157.686 163.67 157.646 163.367 157.646 163.049V162.389H160.453V163.98ZM162.472 157.49L160.453 155.534C160.81 155.132 161.194 154.755 161.604 154.405L163.582 156.361L162.472 157.49ZM171.015 164.799C170.703 165.11 170.31 165.331 169.879 165.436C169.448 165.541 168.997 165.527 168.574 165.395C168.151 165.262 167.773 165.018 167.481 164.687C167.19 164.356 166.996 163.953 166.922 163.521C166.847 163.088 166.895 162.644 167.059 162.237C167.223 161.829 167.498 161.474 167.852 161.211C168.207 160.948 168.629 160.787 169.07 160.745C169.512 160.703 169.956 160.782 170.355 160.974L175.109 156.353L176.243 157.475L171.481 162.095C171.689 162.541 171.752 163.038 171.663 163.521C171.573 164.003 171.336 164.447 170.983 164.791L171.015 164.799ZM180.949 164.004H178.085V162.413H180.925V163.073C180.925 163.296 180.941 163.67 180.917 163.98L180.949 164.004Z" fill="#22282D"/>
<path d="M307.286 161.949C306.48 161.949 305.723 161.509 305.313 160.806L302.249 155.596L299.19 160.806C298.776 161.514 298.018 161.954 297.213 161.954C296.998 161.954 296.784 161.925 296.579 161.861L290.051 159.945V168.645C290.051 169.363 290.528 169.989 291.204 170.16L301.506 172.804C301.992 172.926 302.502 172.926 302.983 172.804L313.294 170.16C313.971 169.984 314.447 169.358 314.447 168.645V159.945L307.919 161.856C307.715 161.92 307.5 161.949 307.286 161.949Z" fill="#22282D"/>
<path d="M287.083 156.465L289.537 151.44C289.685 151.137 289.999 150.966 290.328 151.006L302.249 152.565L297.875 159.993C297.694 160.301 297.332 160.448 296.994 160.35L287.564 157.589C287.097 157.452 286.864 156.914 287.083 156.465Z" fill="#EFD168"/>
<path d="M317.805 156.467L315.351 151.441C315.204 151.138 314.889 150.966 314.561 151.006L302.64 152.565L307.014 159.997C307.195 160.305 307.557 160.451 307.895 160.354L317.324 157.591C317.791 157.454 318.024 156.917 317.805 156.467Z" fill="#EFD168"/>
<path d="M106.121 288C99.4264 288 94 293.426 94 300.121C94 306.815 99.4264 312.241 106.121 312.241C112.815 312.241 118.241 306.815 118.241 300.121C118.241 293.426 112.815 288 106.121 288ZM110.142 305.477C109.952 305.667 109.752 305.866 109.59 306.028C109.443 306.175 109.34 306.356 109.288 306.552C109.214 306.828 109.155 307.108 109.055 307.376L108.205 309.666C107.532 309.813 106.837 309.895 106.121 309.895V308.557C106.203 307.94 105.747 306.785 105.015 306.052C104.721 305.759 104.557 305.361 104.557 304.946V303.382C104.557 302.813 104.25 302.29 103.752 302.015C103.05 301.626 102.051 301.083 101.367 300.739C100.806 300.456 100.287 300.097 99.8198 299.676L99.7807 299.641C99.4469 299.339 99.1506 298.999 98.8981 298.627C98.4396 297.954 97.6929 296.847 97.2075 296.128C98.208 293.904 100.011 292.118 102.251 291.148L103.425 291.735C103.945 291.995 104.557 291.617 104.557 291.036V290.483C104.947 290.42 105.344 290.38 105.749 290.365L107.132 291.748C107.437 292.054 107.437 292.549 107.132 292.854L106.903 293.083L106.397 293.588C106.245 293.741 106.245 293.988 106.397 294.141L106.626 294.37C106.779 294.523 106.779 294.77 106.626 294.923L106.235 295.314C106.162 295.387 106.062 295.428 105.959 295.428H105.519C105.418 295.428 105.32 295.468 105.247 295.539L104.762 296.011C104.702 296.069 104.663 296.144 104.649 296.226C104.635 296.307 104.648 296.392 104.685 296.466L105.447 297.99C105.577 298.25 105.387 298.556 105.097 298.556H104.822C104.727 298.556 104.636 298.522 104.565 298.46L104.112 298.066C104.009 297.977 103.885 297.917 103.752 297.89C103.619 297.863 103.481 297.872 103.352 297.915L101.829 298.423C101.712 298.461 101.611 298.536 101.539 298.635C101.468 298.735 101.429 298.854 101.429 298.977C101.429 299.198 101.554 299.4 101.752 299.499L102.294 299.77C102.754 300 103.261 300.12 103.775 300.12C104.289 300.12 104.879 301.454 105.339 301.684H108.601C109.016 301.684 109.414 301.849 109.707 302.142L110.376 302.811C110.656 303.091 110.813 303.47 110.813 303.865C110.813 304.165 110.753 304.461 110.638 304.738C110.523 305.015 110.355 305.266 110.142 305.477ZM114.38 301.012C114.097 300.942 113.85 300.768 113.689 300.525L112.81 299.207C112.681 299.015 112.613 298.788 112.613 298.557C112.613 298.325 112.681 298.099 112.81 297.906L113.767 296.47C113.881 296.301 114.036 296.163 114.219 296.072L114.853 295.755C115.514 297.07 115.895 298.55 115.895 300.121C115.895 300.544 115.859 300.959 115.806 301.369L114.38 301.012Z" fill="#22282D"/>
<path d="M379.721 309.02V304.962C379.721 303.826 379.559 302.69 378.91 301.554C378.261 300.418 377.449 299.444 376.313 298.795C375.177 297.984 372.743 297.821 371.607 297.821L369.01 300.58L369.984 302.69V307.559L368.361 309.344L366.738 307.559V302.69L367.874 300.58L365.115 297.821C363.816 297.821 361.382 297.984 360.246 298.795C359.11 299.444 358.461 300.418 357.811 301.554C357.162 302.69 357 303.664 357 304.962V309.02C357 309.02 361.22 310.805 368.361 310.805C375.502 310.805 379.721 309.02 379.721 309.02Z" fill="#22282D"/>
<path d="M368.361 285C365.277 285 363.492 287.921 363.979 291.167C364.466 294.413 366.089 296.685 368.361 296.685C370.633 296.685 372.256 294.413 372.743 291.167C373.23 287.759 371.445 285 368.361 285V285Z" fill="#EFD168"/>
<defs>
<linearGradient id="paint0_linear" x1="-0.201914" y1="67.9488" x2="452.242" y2="375.812" gradientUnits="userSpaceOnUse">
<stop stop-color="#2F383F" stop-opacity="0"/>
<stop offset="0.515625" stop-color="#2F383F"/>
<stop offset="1" stop-color="#2F383F" stop-opacity="0"/>
</linearGradient>
<clipPath id="clip0">
<rect width="14.0755" height="14.0755" fill="white" transform="translate(108.768 8.60168)"/>
</clipPath>
</defs>
</svg>
