<svg width="428" height="345" viewBox="0 0 428 345" fill="none" xmlns="http://www.w3.org/2000/svg">
<path d="M270.782 340.125L261.624 336.269L255.342 290.362H171.685L164.875 336.081L156.682 340.178C156.29 340.374 155.976 340.696 155.79 341.093C155.605 341.49 155.558 341.938 155.659 342.365C155.76 342.792 156.001 343.172 156.345 343.444C156.689 343.716 157.114 343.863 157.553 343.863H270.027C270.476 343.864 270.912 343.708 271.259 343.424C271.607 343.139 271.845 342.743 271.934 342.303C272.023 341.863 271.957 341.405 271.747 341.008C271.537 340.611 271.196 340.299 270.782 340.125Z" fill="#E6E6E6"/>
<path d="M419.447 296.469H8.49841C6.34228 296.464 4.27611 295.605 2.7532 294.078C1.23029 292.552 0.375015 290.484 0.375 288.328V230.379H427.57V288.328C427.57 290.484 426.715 292.552 425.192 294.078C423.669 295.605 421.603 296.464 419.447 296.469Z" fill="#CCCCCC"/>
<path d="M428 257.767H0V9.81456C0.00300646 7.21244 1.03805 4.71776 2.87805 2.87782C4.71806 1.03787 7.21277 0.00291828 9.81489 0H418.185C420.787 0.00291158 423.282 1.03786 425.122 2.87781C426.962 4.71775 427.997 7.21242 428 9.81456V257.767Z" fill="#22282D"/>
<path d="M402.437 239.77H25.5627C23.5566 239.768 21.6333 238.97 20.2148 237.552C18.7963 236.133 17.9983 234.21 17.9961 232.204V25.5628C17.9983 23.5567 18.7962 21.6334 20.2147 20.2148C21.6333 18.7962 23.5565 17.9983 25.5627 17.996H402.437C404.443 17.9983 406.367 18.7962 407.785 20.2148C409.204 21.6334 410.001 23.5567 410.004 25.5628V232.204C410.001 234.21 409.204 236.133 407.785 237.552C406.367 238.97 404.443 239.768 402.437 239.77Z" fill="white"/>
<path d="M319.694 344.342H107.923C107.706 344.347 107.494 344.28 107.319 344.151C107.145 344.022 107.017 343.839 106.957 343.631C106.92 343.489 106.916 343.34 106.945 343.196C106.974 343.053 107.035 342.917 107.125 342.801C107.215 342.685 107.33 342.59 107.461 342.525C107.593 342.461 107.738 342.427 107.885 342.427H319.616C319.845 342.419 320.07 342.488 320.254 342.624C320.438 342.76 320.571 342.955 320.63 343.176C320.661 343.316 320.66 343.461 320.628 343.601C320.595 343.741 320.532 343.871 320.442 343.983C320.352 344.095 320.238 344.186 320.109 344.248C319.98 344.31 319.838 344.342 319.694 344.342Z" fill="#CCCCCC"/>
<path d="M398.413 51.4036H307.419V120.921H398.413V51.4036Z" fill="#F2F2F2"/>
<path d="M393.893 54.8578H311.941V117.467H393.893V54.8578Z" fill="white"/>
<path d="M354.356 101.298C354.366 101.298 354.377 101.298 354.388 101.297C359.936 101.007 365.164 98.615 369.011 94.6072C372.857 90.5995 375.033 85.2771 375.095 79.7224C375.157 74.1677 373.102 68.7979 369.346 64.7049C365.59 60.6119 360.417 58.103 354.877 57.6885C354.808 57.6832 354.74 57.692 354.675 57.7145C354.61 57.737 354.55 57.7727 354.5 57.8193C354.449 57.8651 354.409 57.9209 354.381 57.983C354.354 58.0452 354.339 58.1124 354.339 58.1805L353.861 100.793C353.86 100.926 353.911 101.053 354.004 101.148C354.097 101.243 354.223 101.297 354.356 101.298Z" fill="#22282D"/>
<path d="M337.22 64.7349C337.39 64.737 337.553 64.8063 337.672 64.9278L352.342 79.9303C352.401 79.9903 352.447 80.0614 352.478 80.1395C352.51 80.2177 352.525 80.3012 352.524 80.3854L352.296 100.776C352.295 100.863 352.276 100.95 352.241 101.03C352.205 101.11 352.153 101.181 352.088 101.24C352.023 101.3 351.947 101.346 351.864 101.374C351.781 101.403 351.692 101.415 351.604 101.408C347.526 101.103 343.613 99.6663 340.305 97.2597C336.998 94.853 334.427 91.5718 332.882 87.7846C331.337 83.9974 330.879 79.8544 331.559 75.821C332.239 71.7877 334.03 68.0239 336.731 64.9526C336.79 64.8864 336.861 64.8329 336.941 64.7955C337.021 64.7581 337.108 64.7375 337.196 64.7351C337.204 64.7349 337.212 64.7348 337.22 64.7349Z" fill="#E6E6E6"/>
<path d="M352.137 57.5144C352.3 57.5164 352.457 57.5805 352.576 57.6938C352.639 57.7542 352.689 57.8271 352.723 57.9079C352.757 57.9886 352.774 58.0756 352.773 58.1632L352.566 76.5608C352.565 76.6874 352.526 76.8108 352.454 76.9153C352.383 77.0199 352.282 77.1009 352.164 77.148C352.047 77.1952 351.918 77.2064 351.794 77.1803C351.67 77.1543 351.556 77.092 351.468 77.0014L338.667 63.9099C338.606 63.8476 338.558 63.7737 338.527 63.6925C338.496 63.6113 338.481 63.5245 338.484 63.4376C338.488 63.3506 338.508 63.2652 338.546 63.1866C338.583 63.1079 338.636 63.0376 338.701 62.9801C342.424 59.703 347.144 57.7776 352.097 57.5152C352.11 57.5146 352.123 57.5143 352.137 57.5144Z" fill="#EFD168"/>
<path d="M345.542 110.135C345.533 110.911 345.295 111.667 344.856 112.307C344.418 112.948 343.799 113.444 343.079 113.733C342.359 114.022 341.569 114.091 340.809 113.931C340.05 113.771 339.355 113.389 338.812 112.834C338.269 112.279 337.903 111.576 337.76 110.813C337.618 110.05 337.704 109.262 338.009 108.548C338.314 107.835 338.824 107.227 339.474 106.803C340.124 106.379 340.886 106.158 341.662 106.167C342.702 106.179 343.695 106.604 344.422 107.348C345.15 108.092 345.552 109.094 345.542 110.135Z" fill="#EFD168"/>
<path d="M356.754 110.26C356.746 111.036 356.507 111.792 356.069 112.433C355.63 113.073 355.012 113.57 354.291 113.859C353.571 114.147 352.781 114.216 352.021 114.056C351.262 113.896 350.567 113.515 350.024 112.96C349.482 112.405 349.116 111.702 348.973 110.939C348.83 110.176 348.917 109.388 349.222 108.674C349.527 107.96 350.036 107.353 350.687 106.929C351.337 106.505 352.098 106.283 352.874 106.292C353.915 106.305 354.907 106.73 355.635 107.474C356.362 108.218 356.765 109.22 356.754 110.26Z" fill="#22282D"/>
<path d="M367.966 110.386C367.957 111.162 367.718 111.918 367.28 112.559C366.842 113.199 366.223 113.695 365.503 113.984C364.782 114.273 363.992 114.342 363.233 114.182C362.473 114.022 361.778 113.641 361.236 113.086C360.693 112.531 360.327 111.827 360.184 111.064C360.041 110.302 360.128 109.513 360.433 108.8C360.738 108.086 361.248 107.479 361.898 107.055C362.548 106.631 363.309 106.409 364.086 106.418C365.126 106.431 366.119 106.856 366.846 107.6C367.574 108.344 367.976 109.346 367.966 110.386Z" fill="#E6E6E6"/>
<path d="M397.455 131.862H306.461V201.379H397.455V131.862Z" fill="#F2F2F2"/>
<path d="M392.934 135.316H310.983V197.925H392.934V135.316Z" fill="white"/>
<path d="M324.888 155.894C326.767 155.894 328.29 154.37 328.29 152.491C328.29 150.612 326.767 149.088 324.888 149.088C323.008 149.088 321.485 150.612 321.485 152.491C321.485 154.37 323.008 155.894 324.888 155.894Z" fill="#22282D"/>
<path d="M379.559 149.843C379.863 149.843 380.163 149.902 380.444 150.018C380.724 150.133 380.979 150.303 381.194 150.518C381.408 150.732 381.579 150.986 381.695 151.267C381.811 151.547 381.871 151.847 381.871 152.151C381.871 152.454 381.811 152.754 381.695 153.035C381.579 153.315 381.408 153.569 381.194 153.784C380.979 153.998 380.724 154.168 380.444 154.284C380.163 154.399 379.863 154.459 379.559 154.458H343.772C343.16 154.458 342.573 154.215 342.14 153.782C341.708 153.35 341.464 152.763 341.464 152.151C341.464 151.539 341.708 150.952 342.14 150.519C342.573 150.086 343.16 149.843 343.772 149.843H379.559ZM379.559 149.278H343.772C343.394 149.277 343.02 149.351 342.671 149.495C342.322 149.639 342.005 149.851 341.738 150.118C341.471 150.385 341.259 150.701 341.114 151.05C340.969 151.399 340.895 151.773 340.895 152.151C340.895 152.528 340.969 152.902 341.114 153.251C341.259 153.6 341.471 153.917 341.738 154.184C342.005 154.45 342.322 154.662 342.671 154.806C343.02 154.95 343.394 155.024 343.772 155.023H379.559C379.937 155.024 380.311 154.95 380.66 154.806C381.009 154.662 381.326 154.45 381.594 154.184C381.861 153.917 382.073 153.6 382.217 153.251C382.362 152.902 382.436 152.528 382.436 152.151C382.436 151.773 382.362 151.399 382.217 151.05C382.073 150.701 381.861 150.385 381.594 150.118C381.326 149.851 381.009 149.639 380.66 149.495C380.311 149.351 379.937 149.277 379.559 149.278Z" fill="#22282D"/>
<path d="M365.438 155.023H338.497C337.735 155.023 337.005 154.721 336.466 154.182C335.927 153.643 335.625 152.913 335.625 152.151C335.625 151.389 335.927 150.658 336.466 150.119C337.005 149.58 337.735 149.278 338.497 149.278H365.438C366.2 149.278 366.93 149.58 367.469 150.119C368.008 150.658 368.31 151.389 368.31 152.151C368.31 152.913 368.008 153.643 367.469 154.182C366.93 154.721 366.2 155.023 365.438 155.023Z" fill="#EFD168"/>
<path d="M324.888 170.023C326.767 170.023 328.29 168.5 328.29 166.621C328.29 164.741 326.767 163.218 324.888 163.218C323.008 163.218 321.485 164.741 321.485 166.621C321.485 168.5 323.008 170.023 324.888 170.023Z" fill="#22282D"/>
<path d="M379.56 163.973C379.863 163.972 380.163 164.032 380.444 164.147C380.724 164.263 380.979 164.433 381.194 164.647C381.408 164.862 381.579 165.116 381.695 165.396C381.811 165.677 381.871 165.977 381.871 166.28C381.871 166.584 381.811 166.884 381.695 167.164C381.579 167.445 381.408 167.699 381.194 167.914C380.979 168.128 380.724 168.298 380.444 168.413C380.163 168.529 379.863 168.589 379.56 168.588H343.772C343.16 168.588 342.573 168.345 342.14 167.912C341.708 167.479 341.465 166.892 341.465 166.28C341.465 165.668 341.708 165.081 342.14 164.649C342.573 164.216 343.16 163.973 343.772 163.973H379.56ZM379.56 163.408H343.772C343.01 163.408 342.28 163.71 341.741 164.249C341.202 164.788 340.899 165.518 340.899 166.28C340.899 167.042 341.202 167.773 341.741 168.312C342.28 168.851 343.01 169.153 343.772 169.153H379.56C380.321 169.153 381.052 168.851 381.591 168.312C382.13 167.773 382.432 167.042 382.432 166.28C382.432 165.518 382.13 164.788 381.591 164.249C381.052 163.71 380.321 163.408 379.56 163.408Z" fill="#22282D"/>
<path d="M375.611 169.153H338.497C337.735 169.153 337.005 168.851 336.466 168.312C335.927 167.773 335.625 167.042 335.625 166.28C335.625 165.518 335.927 164.788 336.466 164.249C337.005 163.71 337.735 163.408 338.497 163.408H375.611C376.373 163.408 377.104 163.71 377.642 164.249C378.181 164.788 378.484 165.518 378.484 166.28C378.484 167.042 378.181 167.773 377.642 168.312C377.104 168.851 376.373 169.153 375.611 169.153Z" fill="#EFD168"/>
<path d="M324.888 184.153C326.767 184.153 328.29 182.63 328.29 180.75C328.29 178.871 326.767 177.348 324.888 177.348C323.008 177.348 321.485 178.871 321.485 180.75C321.485 182.63 323.008 184.153 324.888 184.153Z" fill="#22282D"/>
<path d="M379.56 178.102C379.863 178.102 380.163 178.161 380.444 178.277C380.724 178.393 380.979 178.563 381.194 178.777C381.408 178.991 381.579 179.246 381.695 179.526C381.811 179.806 381.871 180.107 381.871 180.41C381.871 180.713 381.811 181.014 381.695 181.294C381.579 181.574 381.408 181.829 381.194 182.043C380.979 182.257 380.724 182.427 380.444 182.543C380.163 182.659 379.863 182.718 379.56 182.718H343.772C343.16 182.718 342.573 182.474 342.14 182.042C341.708 181.609 341.465 181.022 341.465 180.41C341.465 179.798 341.708 179.211 342.14 178.778C342.573 178.345 343.16 178.102 343.772 178.102H379.56ZM379.56 177.537H343.772C343.01 177.537 342.28 177.84 341.741 178.379C341.202 178.917 340.899 179.648 340.899 180.41C340.899 181.172 341.202 181.903 341.741 182.441C342.28 182.98 343.01 183.283 343.772 183.283H379.56C380.321 183.283 381.052 182.98 381.591 182.441C382.13 181.903 382.432 181.172 382.432 180.41C382.432 179.648 382.13 178.917 381.591 178.379C381.052 177.84 380.321 177.537 379.56 177.537Z" fill="#22282D"/>
<path d="M353.57 183.283H338.499C338.121 183.283 337.747 183.209 337.398 183.065C337.049 182.921 336.732 182.71 336.464 182.443C336.197 182.176 335.985 181.859 335.841 181.51C335.696 181.161 335.622 180.788 335.622 180.41C335.622 180.032 335.696 179.658 335.841 179.31C335.985 178.961 336.197 178.644 336.464 178.377C336.732 178.11 337.049 177.899 337.398 177.755C337.747 177.61 338.121 177.537 338.499 177.537H353.57C354.331 177.538 355.061 177.841 355.599 178.38C356.137 178.919 356.439 179.649 356.439 180.41C356.439 181.171 356.137 181.901 355.599 182.44C355.061 182.978 354.331 183.282 353.57 183.283Z" fill="#EFD168"/>
<path d="M286.347 63.7029H32.124V193.992H286.347V63.7029Z" fill="#F2F2F2"/>
<path d="M277.873 70.1769H40.5981V187.518H277.873V70.1769Z" fill="white"/>
<path d="M248.446 169.617H75.4769C75.3333 169.616 75.1956 169.559 75.0941 169.458C74.9926 169.356 74.9356 169.219 74.9355 169.075V86.1713C74.9355 86.0277 74.9926 85.8901 75.0941 85.7885C75.1956 85.687 75.3333 85.63 75.4769 85.63C75.6204 85.63 75.7581 85.687 75.8596 85.7885C75.9611 85.8901 76.0182 86.0277 76.0182 86.1713V168.534H248.446C248.589 168.534 248.727 168.591 248.828 168.692C248.93 168.794 248.987 168.932 248.987 169.075C248.987 169.219 248.93 169.356 248.828 169.458C248.727 169.559 248.589 169.617 248.446 169.617Z" fill="#22282D"/>
<path d="M112.433 163.662H96.7006C96.2746 163.662 95.8662 163.492 95.565 163.191C95.2637 162.89 95.0943 162.481 95.0938 162.055V140.368C95.0943 139.942 95.2637 139.534 95.565 139.233C95.8662 138.932 96.2746 138.762 96.7006 138.762H112.433C112.859 138.762 113.267 138.932 113.568 139.233C113.87 139.534 114.039 139.942 114.04 140.368V162.055C114.039 162.481 113.87 162.89 113.568 163.191C113.267 163.492 112.859 163.662 112.433 163.662Z" fill="#EFD168"/>
<path d="M141.123 163.662H125.391C124.965 163.661 124.556 163.492 124.255 163.191C123.954 162.89 123.784 162.481 123.784 162.055V119.798C123.784 119.372 123.954 118.964 124.255 118.663C124.556 118.362 124.965 118.192 125.391 118.192H141.123C141.549 118.192 141.957 118.362 142.258 118.663C142.56 118.964 142.729 119.372 142.73 119.798V162.055C142.729 162.481 142.56 162.89 142.258 163.191C141.957 163.492 141.549 163.661 141.123 163.662Z" fill="#EFD168"/>
<path d="M169.812 163.662H154.08C153.654 163.662 153.246 163.492 152.944 163.191C152.643 162.89 152.474 162.481 152.473 162.055V140.368C152.474 139.942 152.643 139.534 152.944 139.233C153.246 138.932 153.654 138.762 154.08 138.762H169.812C170.238 138.762 170.647 138.932 170.948 139.233C171.249 139.534 171.419 139.942 171.419 140.368V162.055C171.419 162.481 171.249 162.89 170.948 163.191C170.647 163.492 170.238 163.662 169.812 163.662Z" fill="#EFD168"/>
<path d="M198.502 163.662H182.769C182.353 163.671 181.95 163.515 181.649 163.227C181.348 162.94 181.173 162.544 181.163 162.128V111.606C181.173 111.19 181.348 110.795 181.649 110.507C181.95 110.22 182.353 110.063 182.769 110.072H198.502C198.918 110.063 199.321 110.22 199.622 110.507C199.923 110.795 200.098 111.19 200.109 111.606V162.128C200.098 162.544 199.923 162.94 199.622 163.227C199.321 163.515 198.918 163.671 198.502 163.662Z" fill="#EFD168"/>
<path d="M227.192 163.662H211.459C211.033 163.662 210.625 163.492 210.324 163.191C210.023 162.89 209.853 162.481 209.853 162.055V97.0634C209.853 96.6374 210.023 96.229 210.324 95.9278C210.625 95.6266 211.033 95.4571 211.459 95.4567H227.192C227.618 95.4571 228.026 95.6266 228.327 95.9278C228.629 96.229 228.798 96.6374 228.798 97.0634V162.055C228.798 162.481 228.629 162.89 228.327 163.191C228.026 163.492 227.618 163.662 227.192 163.662Z" fill="#EFD168"/>
<path d="M104.566 132.266C106.36 132.266 107.814 130.812 107.814 129.018C107.814 127.224 106.36 125.77 104.566 125.77C102.772 125.77 101.318 127.224 101.318 129.018C101.318 130.812 102.772 132.266 104.566 132.266Z" fill="#22282D"/>
<path d="M133.257 111.155C135.05 111.155 136.505 109.701 136.505 107.907C136.505 106.113 135.05 104.659 133.257 104.659C131.463 104.659 130.009 106.113 130.009 107.907C130.009 109.701 131.463 111.155 133.257 111.155Z" fill="#22282D"/>
<path d="M161.946 132.266C163.74 132.266 165.194 130.812 165.194 129.018C165.194 127.224 163.74 125.77 161.946 125.77C160.152 125.77 158.698 127.224 158.698 129.018C158.698 130.812 160.152 132.266 161.946 132.266Z" fill="#22282D"/>
<path d="M190.636 100.87C192.429 100.87 193.883 99.4157 193.883 97.6219C193.883 95.8281 192.429 94.374 190.636 94.374C188.842 94.374 187.388 95.8281 187.388 97.6219C187.388 99.4157 188.842 100.87 190.636 100.87Z" fill="#22282D"/>
<path d="M219.325 88.9608C221.119 88.9608 222.573 87.5067 222.573 85.713C222.573 83.9192 221.119 82.4651 219.325 82.4651C217.531 82.4651 216.077 83.9192 216.077 85.713C216.077 87.5067 217.531 88.9608 219.325 88.9608Z" fill="#22282D"/>
<path d="M162.015 129.746L133.257 108.206L104.892 129.451L104.243 128.585L133.257 106.853L161.878 128.29L190.32 97.1661L190.433 97.1197L219.123 85.5605L219.528 86.5646L190.952 98.078L162.015 129.746Z" fill="#22282D"/>
</svg>
