<svg width="80" height="84" viewBox="0 0 80 84" fill="none" xmlns="http://www.w3.org/2000/svg">
<path fill-rule="evenodd" clip-rule="evenodd" d="M79.3026 42.671C79.3026 53.6366 70.4133 62.5259 59.4478 62.5259C48.4822 62.5259 39.5929 53.6366 39.5929 42.671C39.5929 31.7055 48.4822 22.8162 59.4478 22.8162C70.4133 22.8162 79.3026 31.7055 79.3026 42.671ZM70.1334 33.7883H67.031L62.1272 38.6415C61.4129 39.3455 60.4503 39.7402 59.4474 39.7402C58.4445 39.7402 57.4819 39.3455 56.7676 38.6415L51.8638 33.7883H48.7614L55.216 40.1768C56.3437 41.2884 57.8635 41.9115 59.447 41.9115C61.0304 41.9115 62.5503 41.2884 63.678 40.1768L70.1334 33.7883ZM48.722 51.5532H51.8244L56.7677 46.6606C57.4819 45.9565 58.4445 45.5618 59.4474 45.5618C60.4503 45.5618 61.413 45.9565 62.1272 46.6606L67.0714 51.5532H70.1738L63.6788 45.1252C62.5511 44.0137 61.0313 43.3906 59.4479 43.3906C57.8644 43.3906 56.3446 44.0137 55.2169 45.1252L48.722 51.5532Z" fill="#F6F6F6"/>
<path fill-rule="evenodd" clip-rule="evenodd" d="M39.7097 19.8549C39.7097 30.8204 30.8204 39.7097 19.8549 39.7097C8.88933 39.7097 0 30.8204 0 19.8549C0 8.88933 8.88933 0 19.8549 0C30.8204 0 39.7097 8.88933 39.7097 19.8549ZM23.7362 12.8261C26.3229 13.7171 28.2146 15.0528 27.8435 17.5374L27.8429 17.5374C27.574 19.3562 26.5656 20.2368 25.227 20.5466C27.0651 21.5042 27.9999 22.9717 27.1089 25.5158C26.0043 28.675 23.3767 28.9417 19.8832 28.2806L19.0354 31.6784L16.9866 31.1678L17.8234 27.8155C17.2924 27.6836 16.7497 27.5436 16.1913 27.3919L15.351 30.7599L13.3046 30.2493L14.1525 26.8445C13.9645 26.7963 13.7752 26.7469 13.5845 26.6972C13.2906 26.6205 12.9934 26.543 12.6925 26.4676L10.0258 25.8029L11.0429 23.4572C11.0429 23.4572 12.5525 23.8587 12.532 23.8289C12.6256 23.8589 12.7242 23.87 12.8222 23.8618C12.9201 23.8535 13.0154 23.826 13.1027 23.7808C13.1899 23.7355 13.2674 23.6735 13.3306 23.5983C13.3938 23.523 13.4415 23.436 13.4709 23.3422L14.8113 17.971L15.0272 18.0246C14.9578 17.9972 14.8866 17.9744 14.8142 17.9564L15.77 14.1221C15.7987 13.838 15.7148 13.554 15.5362 13.3312C15.3577 13.1084 15.0989 12.9645 14.8154 12.9306C14.8475 12.909 13.3274 12.5606 13.3274 12.5606L13.8724 10.3724L16.6978 11.0779L16.6954 11.0884C17.1202 11.194 17.5579 11.2944 18.0037 11.3959L18.8434 8.03134L20.8909 8.54192L20.0682 11.8405C20.6178 11.966 21.171 12.0926 21.709 12.2268L22.5259 8.9498L24.5753 9.46038L23.7362 12.8261ZM17.2535 25.0286C18.9246 25.4703 22.5804 26.4364 23.162 24.1014H23.1626C23.7562 21.7148 20.2131 20.9197 18.4842 20.5318C18.291 20.4884 18.1205 20.4502 17.9809 20.4153L16.8559 24.9253C16.9701 24.9537 17.1038 24.9891 17.2535 25.0286ZM18.8317 18.439C20.2262 18.811 23.2656 19.6218 23.7951 17.5007C24.3364 15.3306 21.3808 14.6765 19.9373 14.3571C19.7751 14.3212 19.6319 14.2895 19.515 14.2604L18.495 18.3508C18.5915 18.3749 18.7048 18.4051 18.8317 18.439Z" fill="#F6F6F6"/>
<path fill-rule="evenodd" clip-rule="evenodd" d="M19.8548 84C30.8204 84 39.7097 75.1107 39.7097 64.1451C39.7097 53.1796 30.8204 44.2903 19.8548 44.2903C8.88931 44.2903 0 53.1796 0 64.1451C0 75.1107 8.88931 84 19.8548 84ZM19.8526 77.2307L27.8902 65.9113L19.8526 70.657L11.8198 65.9113L19.8526 77.2307ZM19.8526 69.1361H19.8521L11.8198 64.3881L19.8521 51.0596H19.8526L27.8854 64.3881L19.8526 69.1361Z" fill="#EFD168"/>
</svg>
