<svg width="81" height="96" viewBox="0 0 81 96" fill="none" xmlns="http://www.w3.org/2000/svg">
<path d="M59.3035 67.2584C69.8528 67.2584 78.4047 62.9824 78.4047 57.7078C78.4047 52.4332 69.8528 48.1572 59.3035 48.1572C48.7543 48.1572 40.2024 52.4332 40.2024 57.7078C40.2024 62.9824 48.7543 67.2584 59.3035 67.2584Z" stroke="#F6F6F6" stroke-width="4" stroke-linecap="round" stroke-linejoin="round"/>
<path d="M21.1011 40.5168C31.6504 40.5168 40.2023 36.2409 40.2023 30.9662C40.2023 25.6916 31.6504 21.4156 21.1011 21.4156C10.5519 21.4156 2 25.6916 2 30.9662C2 36.2409 10.5519 40.5168 21.1011 40.5168Z" stroke="#F6F6F6" stroke-width="4" stroke-linecap="round" stroke-linejoin="round"/>
<path d="M2 30.9662V44.337C2 49.6108 10.5516 53.8876 21.1011 53.8876C31.6507 53.8876 40.2023 49.6108 40.2023 44.337V30.9662" stroke="#F6F6F6" stroke-width="4" stroke-linecap="round" stroke-linejoin="round"/>
<path d="M2 44.3372V57.708C2 62.9818 10.5516 67.2585 21.1011 67.2585C31.6507 67.2585 40.2023 62.9818 40.2023 57.708V44.3372" stroke="#F6F6F6" stroke-width="4" stroke-linecap="round" stroke-linejoin="round"/>
<path d="M2 57.708V71.0788C2 76.3526 10.5516 80.6294 21.1011 80.6294C31.6507 80.6294 40.2023 76.3526 40.2023 71.0788V57.708" stroke="#F6F6F6" stroke-width="4" stroke-linecap="round" stroke-linejoin="round"/>
<path d="M2 71.0786V84.4494C2 89.7232 10.5516 94 21.1011 94C31.6507 94 40.2023 89.7232 40.2023 84.4494V71.0786" stroke="#F6F6F6" stroke-width="4" stroke-linecap="round" stroke-linejoin="round"/>
<path d="M40.2024 57.708V71.0788C40.2024 76.3526 48.754 80.6294 59.3035 80.6294C69.8531 80.6294 78.4047 76.3526 78.4047 71.0788V57.708" stroke="#F6F6F6" stroke-width="4" stroke-linecap="round" stroke-linejoin="round"/>
<path d="M40.2024 71.0786V84.4494C40.2024 89.7232 48.754 94 59.3035 94C69.8531 94 78.4047 89.7232 78.4047 84.4494V71.0786" stroke="#F6F6F6" stroke-width="4" stroke-linecap="round" stroke-linejoin="round"/>
<path d="M63.2696 16.7183L55.5825 14.4548C54.6928 14.1969 54.0736 13.3589 54.0736 12.4277C54.0736 11.2601 55.0131 10.3146 56.1733 10.3146H60.8923C61.7606 10.3146 62.6148 10.5796 63.3265 11.0667C63.7607 11.3604 64.3444 11.2888 64.7145 10.9235L67.1914 8.48807C67.6968 7.99383 67.6256 7.17009 67.0633 6.73315C65.3195 5.35787 63.1415 4.59144 60.9065 4.58427V1.14607C60.9065 0.515731 60.3941 0 59.7677 0H57.4901C56.8637 0 56.3512 0.515731 56.3512 1.14607V4.58427H56.1733C51.6394 4.58427 47.9951 8.50239 48.4151 13.1511C48.714 16.4532 51.2194 19.1393 54.3797 20.0705L61.6752 22.2194C62.5649 22.4844 63.1842 23.3153 63.1842 24.2465C63.1842 25.4141 62.2446 26.3596 61.0845 26.3596H56.3655C55.4971 26.3596 54.643 26.0945 53.9312 25.6075C53.4971 25.3138 52.9134 25.3854 52.5433 25.7507L50.0664 28.1861C49.561 28.6804 49.6322 29.5041 50.1945 29.941C51.9383 31.3163 54.1163 32.0828 56.3512 32.0899V35.5281C56.3512 36.1585 56.8637 36.6742 57.4901 36.6742H59.7677C60.3941 36.6742 60.9065 36.1585 60.9065 35.5281V32.0756C64.2234 32.0111 67.3338 30.027 68.4299 26.8681C69.9602 22.4558 67.3907 17.9288 63.2696 16.7183Z" fill="#EFD168"/>
</svg>
