<svg width="81" height="81" viewBox="0 0 81 81" fill="none" xmlns="http://www.w3.org/2000/svg">
<path d="M20.2401 17.349C21.8371 17.349 23.1317 16.0544 23.1317 14.4575C23.1317 12.8606 21.8371 11.566 20.2401 11.566C18.6432 11.566 17.3486 12.8606 17.3486 14.4575C17.3486 16.0544 18.6432 17.349 20.2401 17.349Z" fill="#EFD168"/>
<path d="M72.2879 58.2351V46.2643C72.2879 44.7305 71.6786 43.2596 70.5941 42.175C69.5096 41.0905 68.0387 40.4812 66.5049 40.4812H43.3728V28.9152H69.3964C70.9302 28.9152 72.4011 28.3059 73.4856 27.2214C74.5702 26.1368 75.1795 24.6659 75.1795 23.1321V5.78303C75.1795 4.24928 74.5702 2.77834 73.4856 1.69381C72.4011 0.609282 70.9302 0 69.3964 0H11.5661C10.0323 0 8.5614 0.609282 7.47687 1.69381C6.39234 2.77834 5.78306 4.24928 5.78306 5.78303V23.1321C5.78306 24.6659 6.39234 26.1368 7.47687 27.2214C8.5614 28.3059 10.0323 28.9152 11.5661 28.9152H37.5897V40.4812H14.4576C12.9239 40.4812 11.4529 41.0905 10.3684 42.175C9.28386 43.2596 8.67458 44.7305 8.67458 46.2643V58.2351C5.94886 58.9389 3.57339 60.6126 1.99343 62.9426C0.413474 65.2725 -0.262502 68.0986 0.0922132 70.8913C0.446928 73.684 1.80798 76.2514 3.92025 78.1124C6.03252 79.9733 8.75099 81 11.5661 81C14.3812 81 17.0997 79.9733 19.2119 78.1124C21.3242 76.2514 22.6853 73.684 23.04 70.8913C23.3947 68.0986 22.7187 65.2725 21.1388 62.9426C19.5588 60.6126 17.1833 58.9389 14.4576 58.2351V46.2643H37.5897V57.8303H28.9152V80.9625H52.0473V57.8303H43.3728V46.2643H66.5049V58.2351C63.7792 58.9389 61.4037 60.6126 59.8238 62.9426C58.2438 65.2725 57.5678 68.0986 57.9225 70.8913C58.2773 73.684 59.6383 76.2514 61.7506 78.1124C63.8629 79.9733 66.5813 81 69.3964 81C72.2115 81 74.93 79.9733 77.0423 78.1124C79.1545 76.2514 80.5156 73.684 80.8703 70.8913C81.225 68.0986 80.549 65.2725 78.9691 62.9426C77.3891 60.6126 75.0137 58.9389 72.2879 58.2351ZM17.3491 69.3964C17.3491 70.5402 17.01 71.6583 16.3745 72.6093C15.7391 73.5603 14.8359 74.3015 13.7792 74.7392C12.7225 75.1769 11.5597 75.2914 10.4379 75.0683C9.31608 74.8452 8.28564 74.2944 7.47687 73.4856C6.6681 72.6768 6.11732 71.6464 5.89418 70.5246C5.67104 69.4028 5.78556 68.24 6.22327 67.1833C6.66097 66.1266 7.4022 65.2234 8.35321 64.588C9.30423 63.9525 10.4223 63.6134 11.5661 63.6134C13.0998 63.6134 14.5708 64.2226 15.6553 65.3072C16.7398 66.3917 17.3491 67.8626 17.3491 69.3964ZM46.2643 63.6134V75.1794H34.6982V63.6134H46.2643ZM11.5661 23.1321V5.78303H69.3964V23.1321H11.5661ZM69.3964 75.1794C68.2526 75.1794 67.1346 74.8403 66.1835 74.2048C65.2325 73.5694 64.4913 72.6662 64.0536 71.6095C63.6159 70.5528 63.5014 69.39 63.7245 68.2682C63.9476 67.1464 64.4984 66.1159 65.3072 65.3072C66.116 64.4984 67.1464 63.9476 68.2682 63.7245C69.39 63.5013 70.5528 63.6159 71.6095 64.0536C72.6662 64.4913 73.5694 65.2325 74.2048 66.1835C74.8403 67.1345 75.1795 68.2526 75.1795 69.3964C75.1795 70.9301 74.5702 72.4011 73.4856 73.4856C72.4011 74.5701 70.9302 75.1794 69.3964 75.1794Z" fill="#F6F6F6"/>
</svg>
