<svg width="80" height="69" viewBox="0 0 80 69" fill="none" xmlns="http://www.w3.org/2000/svg">
<path d="M72.7273 48.2155V6.88793H7.27273V48.2155H72.7273ZM72.7273 0C74.6561 0 76.506 0.72569 77.8699 2.01743C79.2338 3.30916 80 5.06114 80 6.88793V48.2155C80 50.0423 79.2338 51.7943 77.8699 53.086C76.506 54.3777 74.6561 55.1034 72.7273 55.1034H47.2727V61.9913H54.5455V68.8793H25.4545V61.9913H32.7273V55.1034H7.27273C5.34388 55.1034 3.49403 54.3777 2.13013 53.086C0.766232 51.7943 0 50.0423 0 48.2155V6.88793C0 3.06513 3.23636 0 7.27273 0H72.7273Z" fill="#F6F6F6"/>
<path d="M45.0563 31.2844H47.5844C48.0058 31.2844 48.4271 30.8611 48.4271 30.4378V21.5489C48.4271 21.1256 48.0058 20.7024 47.5844 20.7024H45.0563C44.6349 20.7024 44.2136 21.1256 44.2136 21.5489V30.4378C44.2136 30.8611 44.6349 31.2844 45.0563 31.2844ZM51.3766 31.2844H53.9048C54.3261 31.2844 54.7475 30.8611 54.7475 30.4378V15.1997C54.7475 14.7764 54.3261 14.3531 53.9048 14.3531H51.3766C50.9553 14.3531 50.5339 14.7764 50.5339 15.1997V30.4378C50.5339 30.8611 50.9553 31.2844 51.3766 31.2844ZM32.4156 31.2844H34.9437C35.3651 31.2844 35.7864 30.8611 35.7864 30.4378V25.7817C35.7864 25.3584 35.3651 24.9352 34.9437 24.9352H32.4156C31.9942 24.9352 31.5729 25.3584 31.5729 25.7817V30.4378C31.5729 30.8611 31.9942 31.2844 32.4156 31.2844ZM38.7359 31.2844H41.2641C41.6854 31.2844 42.1068 30.8611 42.1068 30.4378V17.3161C42.1068 16.8928 41.6854 16.4696 41.2641 16.4696H38.7359C38.3146 16.4696 37.8932 16.8928 37.8932 17.3161V30.4378C37.8932 30.8611 38.3146 31.2844 38.7359 31.2844ZM55.8009 35.5172H27.3593V15.4114C27.3593 14.8267 26.8879 14.3531 26.3059 14.3531H24.1991C23.6171 14.3531 23.1458 14.8267 23.1458 15.4114V37.6336C23.1458 38.8022 24.0892 39.75 25.2525 39.75H55.8009C56.3829 39.75 56.8543 39.2764 56.8543 38.6918V36.5754C56.8543 35.9907 56.3829 35.5172 55.8009 35.5172Z" fill="#EFD168"/>
</svg>
