<svg width="79" height="71" viewBox="0 0 79 71" fill="none" xmlns="http://www.w3.org/2000/svg">
<path d="M34.949 20.0104L42.3466 21.9934C42.5979 22.0531 42.8227 22.1956 42.9861 22.3988C43.1495 22.6019 43.2424 22.8542 43.2504 23.1166C43.2504 23.7545 42.6929 24.2814 42.0072 24.2814H37.1545C36.6316 24.2799 36.1138 24.1763 35.6292 23.9764C34.9149 23.6713 34.0916 23.7406 33.5436 24.2537L30.9536 26.6805C30.8339 26.7871 30.7305 26.9115 30.6469 27.0493C30.54 27.2278 30.4689 27.426 30.4376 27.6325C30.4063 27.839 30.4155 28.0498 30.4647 28.2527C30.5138 28.4556 30.602 28.6466 30.724 28.8147C30.8461 28.9828 30.9996 29.1246 31.1758 29.232C32.6101 30.1077 34.216 30.6521 35.88 30.8268V33.2812C35.88 34.5016 36.9473 35.5 38.2477 35.5H40.6155C41.9173 35.5 42.9846 34.5016 42.9846 33.2812V30.8406C47.4733 30.3414 50.8689 26.5418 50.2773 22.1043C49.8479 18.9148 47.2157 16.3771 43.9306 15.4896L36.5329 13.5066C36.2817 13.4469 36.0569 13.3044 35.8934 13.1012C35.73 12.8981 35.6371 12.6458 35.6292 12.3834C35.6292 11.7455 36.1867 11.2186 36.8723 11.2186H41.725C42.2498 11.2194 42.7695 11.323 43.2558 11.5236C43.9688 11.8287 44.7934 11.7594 45.3414 11.2463L47.9314 8.81953C48.0472 8.71513 48.1469 8.59359 48.2272 8.45898C48.335 8.28061 48.407 8.08228 48.4391 7.87542C48.4711 7.66857 48.4626 7.45731 48.4139 7.25384C48.3652 7.05037 48.2774 6.85873 48.1555 6.68999C48.0336 6.52126 47.8801 6.37876 47.7037 6.27074C46.2689 5.39508 44.6626 4.85068 42.9982 4.67602V2.21875C42.9982 0.998438 41.9322 0 40.6305 0H38.2627C36.9609 0 35.895 0.998438 35.895 2.21875V4.65937C31.4117 5.15859 28.0093 8.9582 28.6009 13.3957C29.0289 16.5852 31.6693 19.1229 34.949 20.0104Z" fill="#EFD168"/>
<path d="M71.2464 45.1232C72.9367 43.7365 75.4448 43.6395 77.0533 45.1232H77.0547C77.5291 45.5526 77.9057 46.0821 78.1582 46.6748C78.4106 47.2676 78.5328 47.9092 78.5162 48.555C78.4995 49.2008 78.3445 49.835 78.062 50.4135C77.7794 50.992 77.3761 51.5008 76.8802 51.9043L56.2657 68.6836C54.7176 69.9419 52.7947 70.6266 50.8132 70.625H2.181C1.60256 70.625 1.04782 70.3912 0.6388 69.9751C0.229783 69.559 0 68.9947 0 68.4062V55.0938C0 54.5053 0.229783 53.941 0.6388 53.5249C1.04782 53.1088 1.60256 52.875 2.181 52.875H9.73271L16.0712 47.6457C18.9276 45.2881 22.4937 44.001 26.172 44H47.982C49.1374 44 50.2457 44.4664 51.0635 45.2968C51.8813 46.1272 52.3418 47.2537 52.344 48.4292C52.3449 48.6829 52.3239 48.9363 52.2813 49.1863C51.935 51.3635 49.9162 52.875 47.7489 52.875H37.077C36.4985 52.875 35.9438 53.1088 35.5348 53.5249C35.1258 53.941 34.896 54.5053 34.896 55.0938C34.896 55.6822 35.1258 56.2465 35.5348 56.6626C35.9438 57.0787 36.4985 57.3125 37.077 57.3125H53.1986C55.1808 57.3181 57.105 56.6329 58.6511 55.3711L71.2464 45.1232Z" fill="#F6F6F6"/>
</svg>
