<svg width="86" height="69" viewBox="0 0 86 69" fill="none" xmlns="http://www.w3.org/2000/svg">
<path fill-rule="evenodd" clip-rule="evenodd" d="M53.8905 19.3723C53.8905 30.0674 45.2133 38.7445 34.5182 38.7445C23.8231 38.7445 15.1459 30.0674 15.1459 19.3723C15.1459 8.67716 23.8231 0 34.5182 0C45.2133 0 53.8905 8.67716 53.8905 19.3723ZM50.259 43.0495H44.3254C41.3389 44.4217 38.016 45.202 34.5182 45.202C31.0204 45.202 27.711 44.4217 24.711 43.0495H17.2984C7.78716 43.0495 0.0786133 50.758 0.0786133 60.2693V62.4218C0.0786133 65.9868 2.971 68.8792 6.53604 68.8792H62.5004C63.327 68.8792 64.1175 68.7237 64.8442 68.4403C57.7524 65.2476 50.335 56.1286 50.259 43.0495Z" fill="#F6F6F6"/>
<path d="M83.9926 37.7573L70.9268 32.2092C70.5288 32.0409 70.1022 31.9543 69.6713 31.9543C69.2404 31.9543 68.8137 32.0409 68.4157 32.2092L55.35 37.7573C54.1319 38.2705 53.3357 39.4842 53.3357 40.8296C53.3357 54.596 61.1275 64.1111 68.4089 67.2042C69.2119 67.544 70.117 67.544 70.92 67.2042C76.752 64.7283 86 56.1772 86 40.8296C86 39.4842 85.2039 38.2705 83.9926 37.7573ZM69.6747 62.9043L69.6679 36.4812L81.638 41.5647C81.4134 52.0646 76.051 59.6725 69.6747 62.9043Z" fill="#EFD168"/>
</svg>
