<svg width="80" height="78" viewBox="0 0 80 78" fill="none" xmlns="http://www.w3.org/2000/svg">
<path d="M49.8722 45.0468L45.5132 42.5296C45.9532 40.1557 45.9532 37.7204 45.5132 35.3466L49.8722 32.8294C50.3736 32.5429 50.5987 31.9494 50.435 31.3969C49.2992 27.7542 47.3653 24.4594 44.8379 21.7171C44.4491 21.2976 43.8147 21.1953 43.3235 21.4818L38.9646 23.9989C37.133 22.4232 35.0252 21.2055 32.7433 20.4074V15.3834C32.7433 14.8103 32.3443 14.309 31.7815 14.1862C28.0263 13.3471 24.1789 13.3881 20.6079 14.1862C20.0451 14.309 19.646 14.8103 19.646 15.3834V20.4176C17.3744 21.226 15.2666 22.4436 13.4248 24.0092L9.07606 21.492C8.57468 21.2055 7.95051 21.2976 7.56168 21.7274C5.03431 24.4594 3.1004 27.7542 1.96462 31.4071C1.79067 31.9597 2.02601 32.5531 2.52739 32.8396L6.88635 35.3568C6.44636 37.7307 6.44636 40.166 6.88635 42.5399L2.52739 45.057C2.02601 45.3435 1.8009 45.937 1.96462 46.4895C3.1004 50.1322 5.03431 53.427 7.56168 56.1693C7.95051 56.5888 8.58491 56.6911 9.07606 56.4046L13.435 53.8875C15.2666 55.4632 17.3744 56.6809 19.6562 57.479V62.5133C19.6562 63.0863 20.0553 63.5877 20.6181 63.7105C24.3733 64.5495 28.2207 64.5086 31.7917 63.7105C32.3545 63.5877 32.7536 63.0863 32.7536 62.5133V57.479C35.0252 56.6706 37.133 55.453 38.9748 53.8875L43.3338 56.4046C43.8352 56.6911 44.4593 56.599 44.8481 56.1693C47.3755 53.4372 49.3094 50.1424 50.4452 46.4895C50.5987 45.9267 50.3736 45.3333 49.8722 45.0468ZM26.1947 47.1239C21.6822 47.1239 18.0089 43.4505 18.0089 38.9381C18.0089 34.4256 21.6822 30.7523 26.1947 30.7523C30.7071 30.7523 34.3805 34.4256 34.3805 38.9381C34.3805 43.4505 30.7071 47.1239 26.1947 47.1239Z" fill="#F6F6F6"/>
<g clip-path="url(#clip0)">
<path d="M73.4294 55.0539L70.8911 55.1806C70.4273 54.0533 69.76 53.0205 68.9231 52.1343L70.082 49.8725C70.2162 49.6136 70.1491 49.3003 69.9282 49.1108C68.4485 47.8771 66.7256 47.0096 64.9025 46.5391C64.6226 46.4677 64.3255 46.5981 64.1957 46.8542L63.0367 49.1159C61.8282 48.9495 60.6007 49.0106 59.4143 49.2973L58.0378 47.1665C57.8808 46.9235 57.5742 46.8202 57.3019 46.9223C55.4794 47.5954 53.8589 48.6668 52.5631 49.9837C52.3581 50.19 52.3262 50.5119 52.4832 50.7549L53.8625 52.89C53.1206 53.8552 52.5602 54.9491 52.2081 56.1177L49.6741 56.2416C49.383 56.2575 49.1435 56.4675 49.0963 56.7563C48.773 58.6074 48.8555 60.5346 49.3747 62.395C49.4523 62.677 49.7147 62.8642 50.0058 62.8483L52.5441 62.7216C53.0079 63.8489 53.6751 64.8817 54.5121 65.768L53.3531 68.0297C53.219 68.2886 53.2861 68.602 53.5069 68.7915C54.9866 70.0252 56.7095 70.8926 58.5327 71.3632C58.8125 71.4346 59.1096 71.3042 59.2394 71.0481L60.3984 68.7863C61.6069 68.9528 62.8345 68.8917 64.0209 68.605L65.4002 70.74C65.5572 70.9831 65.8638 71.0864 66.1361 70.9842C67.9586 70.3112 69.579 69.2398 70.8749 67.9229C71.0799 67.7166 71.1118 67.3947 70.9548 67.1516L69.5755 65.0166C70.3174 64.0514 70.8777 62.9575 71.2299 61.7889L73.7682 61.6622C74.0593 61.6463 74.2988 61.4363 74.346 61.1475C74.6693 59.2964 74.5868 57.3692 74.0676 55.5088C73.9786 55.2281 73.7205 55.038 73.4294 55.0539ZM63.9568 62.422C62.043 63.6583 59.4787 63.1068 58.2424 61.1931C57.0061 59.2794 57.5575 56.715 59.4713 55.4787C61.385 54.2424 63.9493 54.7939 65.1856 56.7076C66.422 58.6213 65.8705 61.1857 63.9568 62.422Z" fill="#EFD168"/>
</g>
<g clip-path="url(#clip1)">
<path d="M72.2447 14.3896L69.7064 14.5163C69.2426 13.389 68.5754 12.3562 67.7384 11.47L68.8974 9.20819C69.0315 8.94932 68.9644 8.63595 68.7435 8.44647C67.2638 7.21277 65.541 6.34529 63.7178 5.87475C63.4379 5.80336 63.1408 5.93378 63.011 6.18985L61.852 8.45164C60.6435 8.28517 59.416 8.34627 58.2296 8.63295L56.8531 6.50224C56.6961 6.25923 56.3895 6.15592 56.1172 6.25804C54.2947 6.93106 52.6742 8.00251 51.3784 9.31939C51.1734 9.52566 51.1415 9.84763 51.2985 10.0906L52.6778 12.2257C51.9359 13.1909 51.3756 14.2848 51.0234 15.4534L48.4894 15.5773C48.1983 15.5932 47.9588 15.8032 47.9116 16.092C47.5883 17.9431 47.6708 19.8703 48.19 21.7307C48.2676 22.0127 48.53 22.1999 48.8211 22.184L51.3594 22.0573C51.8232 23.1846 52.4904 24.2174 53.3274 25.1037L52.1684 27.3654C52.0343 27.6243 52.1014 27.9377 52.3222 28.1272C53.8019 29.3609 55.5248 30.2283 57.348 30.6989C57.6279 30.7703 57.9249 30.6399 58.0547 30.3838L59.2137 28.122C60.4222 28.2885 61.6498 28.2274 62.8362 27.9407L64.2155 30.0757C64.3725 30.3187 64.6791 30.4221 64.9514 30.3199C66.7739 29.6469 68.3943 28.5755 69.6902 27.2586C69.8952 27.0523 69.9271 26.7303 69.7701 26.4873L68.3908 24.3523C69.1327 23.3871 69.693 22.2932 70.0452 21.1246L72.5835 20.9979C72.8746 20.982 73.1141 20.7719 73.1613 20.4832C73.4846 18.6321 73.4021 16.7049 72.883 14.8445C72.7939 14.5637 72.5358 14.3737 72.2447 14.3896ZM62.7721 21.7577C60.8583 22.994 58.294 22.4425 57.0577 20.5288C55.8214 18.6151 56.3728 16.0507 58.2866 14.8144C60.2003 13.5781 62.7646 14.1296 64.001 16.0433C65.2373 17.957 64.6858 20.5214 62.7721 21.7577Z" fill="#F6F6F6"/>
</g>
<defs>
<clipPath id="clip0">
<rect width="26.4515" height="26.4515" fill="white" transform="translate(43.428 55.0179) rotate(-32.8634)"/>
</clipPath>
<clipPath id="clip1">
<rect width="26.4515" height="26.4515" fill="white" transform="translate(42.2433 14.3536) rotate(-32.8634)"/>
</clipPath>
</defs>
</svg>
